<?xml version="1.0" encoding="utf-8"?>
<!-- Generator: Adobe Illustrator 26.0.1, SVG Export Plug-In . SVG Version: 6.00 Build 0)  -->
<svg version="1.1" id="Layer_1" xmlns="http://www.w3.org/2000/svg" xmlns:xlink="http://www.w3.org/1999/xlink" x="0px" y="0px"
	 viewBox="0 0 400 400" style="enable-background:new 0 0 400 400;" xml:space="preserve">
<style type="text/css">
	.st0{fill:#F5F5F5;}
	.st1{fill:#E1E1E1;}
	.st2{fill:#375A64;}
	.st3{fill:#00DFBF;}
	.st4{opacity:0.5;}
	.st5{fill:#FFFFFF;}
	.st6{opacity:0.15;}
	.st7{opacity:0.9;fill:#1A2E35;}
	.st8{opacity:0.6;fill:#FFFFFF;}
	.st9{fill:#FFAAA8;}
	.st10{fill:#FF9090;}
	.st11{opacity:0.6;}
	.st12{fill:#2B454E;}
	.st13{opacity:0.8;fill:#FFFFFF;}
	.st14{opacity:0.2;}
	.st15{opacity:0.5;fill:#FFFFFF;}
	.st16{opacity:0.3;}
	.st17{opacity:0.1;}
	.st18{fill:#1A2E35;}
	.st19{fill:#FAFAFA;}
	.st20{opacity:5.000000e-02;}
	.st21{opacity:0.25;}
	.st22{opacity:0.4;}
	.st23{fill:#C76668;}
	.st24{fill:#B0494C;}
	.st25{opacity:0.7;fill:#FFFFFF;}
	.st26{fill:#ECECEC;}
	.st27{fill:#E6E6E6;}
	.st28{opacity:0.65;fill:#FFFFFF;}
	.st29{fill:#F0F0F0;}
	.st30{opacity:0.5;fill:#2B454E;}
	.st31{opacity:0.75;}
	.st32{opacity:0.1;fill:#00DFBF;}
	.st33{fill:#B0FFF2;}
	.st34{clip-path:url(#SVGID_00000087387645752754312450000012833185586500226183_);fill:#007F6A;}
	.st35{opacity:0.67;fill:#FFFFFF;}
	.st36{fill:#00997F;}
	.st37{fill:#DCE5FE;}
	.st38{fill:url(#SVGID_00000132054756447109913750000014857732449951933628_);}
	.st39{fill-rule:evenodd;clip-rule:evenodd;fill:url(#SVGID_00000017494193020539409360000003045152113980004997_);}
	.st40{opacity:0.76;}
	.st41{opacity:0.76;fill:#FFFFFF;}
</style>
<path class="st33" d="M122.5,296.7c39.1,1.3,81.4-5.8,116.9,0.9c26,4.9,55.2,11.9,81.6,5.4c27.3-6.7,61.8-29.9,53.7-62.5
	c-2.7-10.7-12.7-14.4-18.6-22.7c-7.5-10.5-5.1-21-1.1-32.6c6.5-19.2,16.5-43.4,8.3-63.5c-8.8-21.4-35.5-15.7-52.1-8.4
	c-22.2,9.8-42,31.8-68.6,24.5c-18.8-5.2-34.5-18.8-50.7-29C167,93.2,88.3,77.8,61.1,96.3c-29.8,20.2,21.6,40.7-10.6,59.2
	c-23.2,13.4-35.6,49.3-29.2,83C29.5,281.2,85.9,295.5,122.5,296.7z"/>
<g>
	<path class="st3" d="M47,126.1H33.8c-0.9,0-1.6-0.7-1.6-1.6l0,0c0-0.9,0.7-1.6,1.6-1.6H47c0.9,0,1.6,0.7,1.6,1.6l0,0
		C48.7,125.3,47.9,126.1,47,126.1z"/>
	<path class="st3" d="M97.1,126.1H54.7c-0.9,0-1.6-0.7-1.6-1.6l0,0c0-0.9,0.7-1.6,1.6-1.6h42.4c0.9,0,1.6,0.7,1.6,1.6l0,0
		C98.7,125.3,98,126.1,97.1,126.1z"/>
	<path class="st3" d="M102.2,132.5H59.8c-0.9,0-1.6-0.7-1.6-1.6l0,0c0-0.9,0.7-1.6,1.6-1.6h42.4c0.9,0,1.6,0.7,1.6,1.6l0,0
		C103.8,131.8,103.1,132.5,102.2,132.5z"/>
	<path class="st3" d="M90.1,145.3H59.8c-0.9,0-1.6-0.7-1.6-1.6l0,0c0-0.9,0.7-1.6,1.6-1.6h30.3c0.9,0,1.6,0.7,1.6,1.6l0,0
		C91.8,144.6,91,145.3,90.1,145.3z"/>
	<path class="st3" d="M106.9,138.9H64.5c-0.9,0-1.6-0.7-1.6-1.6l0,0c0-0.9,0.7-1.6,1.6-1.6h42.4c0.9,0,1.6,0.7,1.6,1.6l0,0
		C108.6,138.2,107.8,138.9,106.9,138.9z"/>
</g>
<g>
	<path class="st3" d="M288.1,256.2h-13.2c-0.9,0-1.6-0.7-1.6-1.6l0,0c0-0.9,0.7-1.6,1.6-1.6h13.2c0.9,0,1.6,0.7,1.6,1.6l0,0
		C289.7,255.5,289,256.2,288.1,256.2z"/>
	<path class="st3" d="M338.2,256.2h-42.4c-0.9,0-1.6-0.7-1.6-1.6l0,0c0-0.9,0.7-1.6,1.6-1.6h42.4c0.9,0,1.6,0.7,1.6,1.6l0,0
		C339.8,255.5,339.1,256.2,338.2,256.2z"/>
	<path class="st3" d="M343.3,262.7h-42.4c-0.9,0-1.6-0.7-1.6-1.6l0,0c0-0.9,0.7-1.6,1.6-1.6h42.4c0.9,0,1.6,0.7,1.6,1.6l0,0
		C344.9,261.9,344.2,262.7,343.3,262.7z"/>
	<path class="st3" d="M331.2,275.5h-30.3c-0.9,0-1.6-0.7-1.6-1.6l0,0c0-0.9,0.7-1.6,1.6-1.6h30.3c0.9,0,1.6,0.7,1.6,1.6l0,0
		C332.8,274.8,332.1,275.5,331.2,275.5z"/>
	<path class="st3" d="M348,269.1h-42.4c-0.9,0-1.6-0.7-1.6-1.6l0,0c0-0.9,0.7-1.6,1.6-1.6H348c0.9,0,1.6,0.7,1.6,1.6l0,0
		C349.6,268.4,348.9,269.1,348,269.1z"/>
</g>
<path class="st2" d="M42.3,218c0,0,26.4,69.5,34.7,84c9.7,16.8,37.9,6.1,36.5-8c-1.4-14-34.4-72.1-34.4-72.1L42.3,218z"/>
<polygon class="st3" points="77.9,167.3 214.2,110.5 212.5,264.2 73.4,227.1 "/>
<ellipse class="st2" cx="214.4" cy="187.8" rx="16.1" ry="79"/>
<path class="st3" d="M215.6,261.4c-1.5-1.5-4.6-7.2-7.3-21.9c-2.6-14.3-4.1-32.8-4.1-52.1c0-19.3,1.4-37.8,4.1-52.1
	c2.7-14.8,5.9-20.5,7.3-21.9c1.5,1.5,4.6,7.2,7.3,21.9c2.6,14.3,4.1,32.8,4.1,52.1c0,19.3-1.4,37.8-4.1,52.1
	C220.2,254.2,217.1,259.9,215.6,261.4z"/>
<g>
	<defs>
		<path id="SVGID_1_" d="M215.6,261.4c-1.5-1.5-4.6-7.2-7.3-21.9c-2.6-14.3-4.1-32.8-4.1-52.1c0-19.3,1.4-37.8,4.1-52.1
			c2.7-14.8,5.9-20.5,7.3-21.9c1.5,1.5,4.6,7.2,7.3,21.9c2.6,14.3,23.3,32.8,23.3,52.1c0,19.3-20.7,37.8-23.3,52.1
			C220.2,254.2,217.1,259.9,215.6,261.4z"/>
	</defs>
	<clipPath id="SVGID_00000012437251164634090270000009074564542931249792_">
		<use xlink:href="#SVGID_1_"  style="overflow:visible;"/>
	</clipPath>
	<path style="clip-path:url(#SVGID_00000012437251164634090270000009074564542931249792_);fill:#007F6A;" d="M236.2,186.8
		c0,13.4-7.2,24.3-21.5,24.3s-25.9-10.9-25.9-24.3c0-13.4,11.6-24.3,25.9-24.3S236.2,173.4,236.2,186.8z"/>
</g>
<path class="st2" d="M51.5,164c7.7-0.9,18.8-1.2,30.7,1.5c-3.9,20.6-3.3,42,1.2,64.2l-33.7,0c-5.4,0-10-3.9-10.8-9.2
	c-1.7-10.6-3.7-28.5-1.5-42.9C38.5,170.4,44.2,164.9,51.5,164z"/>
<path class="st5" d="M71.7,179.7H45.4c-0.8,0-1.6-0.4-2-1.2c-0.4-0.7-0.4-1.6,0.1-2.3c0.2-0.3,0.5-0.3,0.8-0.2
	c0.3,0.2,0.3,0.5,0.2,0.8c-0.2,0.4-0.3,0.8,0,1.2c0.2,0.4,0.6,0.6,1,0.6h26.3c0.6,0,1.2-0.5,1.2-1.2v-1.9c0-0.6-0.5-1.2-1.2-1.2
	H45.3c-0.3,0-0.5-0.2-0.5-0.5c0-0.3,0.2-0.5,0.5-0.5h26.5c1.2,0,2.3,1,2.3,2.3v1.9C74,178.6,73,179.7,71.7,179.7z"/>
<path class="st5" d="M69.4,191.3H43.1c-0.8,0-1.6-0.4-2-1.2c-0.4-0.7-0.4-1.6,0.1-2.3c0.2-0.3,0.5-0.3,0.8-0.2
	c0.3,0.2,0.3,0.5,0.2,0.8c-0.2,0.4-0.3,0.8,0,1.2c0.2,0.4,0.6,0.6,1,0.6h26.3c0.6,0,1.2-0.5,1.2-1.2v-1.9c0-0.6-0.5-1.2-1.2-1.2
	H42.9c-0.3,0-0.5-0.2-0.5-0.5c0-0.3,0.2-0.5,0.5-0.5h26.5c1.2,0,2.3,1,2.3,2.3v1.9C71.6,190.3,70.6,191.3,69.4,191.3z"/>
<path class="st3" d="M101.7,163c-0.2,0-0.4-0.1-0.5-0.3c-0.1-0.3,0-0.6,0.3-0.7l96.6-39.5c0.3-0.1,0.6,0,0.7,0.3
	c0.1,0.3,0,0.6-0.3,0.7L101.9,163C101.8,163,101.8,163,101.7,163z"/>
<path class="st3" d="M84.9,169.9c-0.2,0-0.4-0.1-0.5-0.3c-0.1-0.3,0-0.6,0.3-0.7l6.4-2.6c0.3-0.1,0.6,0,0.7,0.3
	c0.1,0.3,0,0.6-0.3,0.7l-6.4,2.6C85.1,169.9,85,169.9,84.9,169.9z"/>
<path class="st5" d="M71.7,204.9H45.4c-0.8,0-1.6-0.4-2-1.2c-0.4-0.7-0.4-1.6,0.1-2.3c0.2-0.3,0.5-0.3,0.8-0.2
	c0.3,0.2,0.3,0.5,0.2,0.8c-0.2,0.4-0.3,0.8,0,1.2c0.2,0.4,0.6,0.6,1,0.6h26.3c0.6,0,1.2-0.5,1.2-1.2v-1.9c0-0.6-0.5-1.2-1.2-1.2
	H45.3c-0.3,0-0.5-0.2-0.5-0.5c0-0.3,0.2-0.5,0.5-0.5h26.5c1.2,0,2.3,1,2.3,2.3v1.9C74,203.9,73,204.9,71.7,204.9z"/>
<path class="st5" d="M74.2,220H47.9c-0.8,0-1.6-0.4-2-1.2c-0.4-0.7-0.4-1.6,0.1-2.3c0.2-0.3,0.5-0.3,0.8-0.2
	c0.3,0.2,0.3,0.5,0.2,0.8c-0.2,0.4-0.3,0.8,0,1.2c0.2,0.4,0.6,0.6,1,0.6h26.3c0.6,0,1.2-0.5,1.2-1.2v-1.9c0-0.6-0.5-1.2-1.2-1.2
	H47.7c-0.3,0-0.5-0.2-0.5-0.5s0.2-0.5,0.5-0.5h26.5c1.2,0,2.3,1,2.3,2.3v1.9C76.4,219,75.4,220,74.2,220z"/>
<path class="st5" d="M97.6,302.2c-1.2,0-2.4-0.1-3.6-0.4c-5.3-1.2-9.6-4.6-11.8-9.6l-21-46.6c-0.1-0.3,0-0.6,0.3-0.7
	c0.3-0.1,0.6,0,0.7,0.3l21,46.6c2.1,4.6,6.1,7.9,11.1,9c4.9,1.1,9.8-0.2,13.5-3.5c0.2-0.2,0.4-0.4,0.6-0.5c0.2-0.2,0.6-0.2,0.8,0
	c0.2,0.2,0.2,0.6,0,0.8c-0.2,0.2-0.4,0.4-0.6,0.6C105.4,300.8,101.6,302.2,97.6,302.2z"/>
<path class="st5" d="M58.6,239.1c-0.2,0-0.4-0.1-0.5-0.3l-2.3-5.2c-0.1-0.3,0-0.6,0.3-0.7c0.3-0.1,0.6,0,0.7,0.3l2.3,5.2
	c0.1,0.3,0,0.6-0.3,0.7C58.7,239,58.6,239.1,58.6,239.1z"/>
<path class="st35" d="M232.4,186c-0.3,0-0.5-0.2-0.5-0.5c-0.5-6.6-2.8-11.5-6.8-14.7c-7-5.4-17-3.5-17.1-3.5
	c-0.3,0.1-0.6-0.1-0.6-0.4c-0.1-0.3,0.1-0.6,0.4-0.6c0.4-0.1,10.6-2,18,3.7c4.3,3.3,6.8,8.5,7.2,15.5
	C233,185.7,232.7,185.9,232.4,186C232.4,186,232.4,186,232.4,186z"/>
<g>
	<path class="st36" d="M178.1,307.5c0,0,10.3-13,8.6-25.2c-1.7-12.2-10-10.8-13.8-3.5c-3.7,7.2-7.1,6.2-4.9-0.6
		c2.2-6.8,5-11.2,0.4-18c-4.6-6.8-5.1-9.7-2.5-15.7c2.6-6,5.8-14.6-4.4-17.7c-10.2-3.1-20.4,6.3-18.1,18.6
		c2.4,12.3,3.8,13.6,0.5,18.2c-3.3,4.6-1.9,6.4-1.5,9.4c0.5,3-4.6,3.7-4.5-0.5c0.1-4.2,6.5-14,2.1-18.6c-4.4-4.6-12.9-4.6-15.1,6
		c-2.2,10.6,4.8,15.4,4.5,19.2c-0.3,3.8-4.1-2-7.4,1.9c-3.3,3.9,1.1,7,4.4,9.1c3.3,2.1,8.2,5.9,3.5,8.7c-4.7,2.8-9.1,0.1-6.2,8.7
		H178.1z"/>
	<path class="st37" d="M157,235.6c-0.3,0.2-0.6,0.4-0.9,0.6c-0.3,0.2-0.6,0.5-0.8,0.8c-0.5,0.6-0.9,1.2-1.3,1.9
		c-0.7,1.4-1.1,2.9-1.2,4.4c0,0.2,0,0.4,0,0.6c0,0.2,0,0.4,0,0.6l0,0.6l0,0.6l0,0.3l0,0.3l0.1,0.6c0.1,0.4,0.1,0.7,0.2,1.1
		c0.1,0.4,0.1,0.7,0.2,1.1l0.1,0.5l0.1,0.5l0.5,2.1c0.7,2.8,1.4,5.6,1.9,8.5c0.5,2.8,0.9,5.7,0.8,8.5c0,0.7-0.1,1.4-0.2,2.1
		c-0.1,0.7-0.2,1.4-0.4,2.1c-0.2,0.7-0.4,1.3-0.7,2c-0.3,0.7-0.5,1.5-0.7,2.2c-0.4,1.5-0.6,2.9-0.7,4.4c-0.2,1.5-0.3,2.9-0.4,4.4
		c-0.2,2.9-0.4,5.8-0.8,8.7c-0.1,0.4-0.1,0.7-0.2,1.1c-0.1,0.4-0.1,0.7-0.2,1.1c-0.1,0.4-0.2,0.7-0.2,1.1c0,0.2-0.1,0.3-0.1,0.5
		c-0.1,0.2-0.1,0.3-0.2,0.5l-0.2,0.5c-0.1,0.2-0.1,0.3-0.2,0.5c-0.1,0.3-0.3,0.7-0.4,1c-0.3,0.6-0.7,1.2-1.2,1.8l0.1,0.1
		c0.5-0.5,1-1.1,1.4-1.7c0.4-0.6,0.7-1.3,1-2c0.5-1.4,0.9-2.8,1.2-4.3c0.6-2.9,0.9-5.8,1.2-8.7c0.2-1.4,0.3-2.9,0.5-4.3
		c0.2-1.4,0.4-2.8,0.8-4.2c0.2-0.7,0.4-1.3,0.7-1.9c0.3-0.7,0.6-1.4,0.8-2.2c0.2-0.7,0.4-1.5,0.5-2.2c0.1-0.7,0.2-1.5,0.2-2.3
		c0.1-3-0.2-6-0.7-8.9c-0.5-2.9-1.2-5.8-2-8.6c-0.2-0.7-0.4-1.4-0.6-2.1l-0.2-0.5l-0.1-0.5c-0.1-0.3-0.2-0.7-0.3-1
		c-0.1-0.3-0.1-0.7-0.2-1l-0.1-0.5c0-0.2-0.1-0.3-0.1-0.5c-0.1-0.7-0.1-1.4-0.1-2.1c0-0.7,0.1-1.4,0.2-2.1c0.1-0.7,0.3-1.4,0.5-2
		c0.1-0.3,0.3-0.7,0.4-1c0.2-0.3,0.3-0.6,0.5-0.9c0.4-0.6,0.9-1.1,1.4-1.6L157,235.6z"/>
	<path class="st37" d="M178.9,279.5c-0.3,2.3-0.7,4.6-1.3,6.8c-0.3,1.1-0.6,2.2-0.9,3.3c-0.1,0.3-0.2,0.5-0.3,0.8
		c-0.1,0.3-0.2,0.5-0.3,0.8c-0.2,0.5-0.4,1.1-0.6,1.6c-0.2,0.5-0.4,1.1-0.6,1.6c-0.2,0.5-0.4,1.1-0.7,1.6c-0.5,1-1,2.1-1.6,3.1
		c-0.6,1-1.2,2-1.9,2.9c-0.7,0.9-1.4,1.8-2.2,2.7l0.1,0.1c0.9-0.7,1.7-1.6,2.5-2.4c0.8-0.9,1.4-1.8,2.1-2.8c0.6-1,1.2-2,1.7-3.1
		c0.2-0.5,0.5-1.1,0.7-1.6c0.2-0.5,0.4-1.1,0.6-1.6c0.2-0.6,0.4-1.1,0.6-1.7c0.1-0.3,0.2-0.6,0.3-0.8c0.1-0.3,0.2-0.6,0.2-0.8
		c0.3-1.1,0.6-2.3,0.8-3.4c0.4-2.3,0.7-4.6,0.8-6.9L178.9,279.5z"/>
</g>
<g>
	<path class="st2" d="M281.5,169.4l-30.4-1.6c-2.5-0.1-4.5,1.8-4.4,4.3l0.8,28c0.1,2.3,2,4,4.4,3.9l28.9-1.4c2-0.1,3.6-1.8,3.6-3.9
		l0.7-25.1C285.1,171.4,283.5,169.5,281.5,169.4z"/>
	<g>
		
			<linearGradient id="SVGID_00000056396738457518888350000005325008096290762383_" gradientUnits="userSpaceOnUse" x1="253.8842" y1="185.8426" x2="276.8146" y2="185.8426">
			<stop  offset="0" style="stop-color:#DAE3FE"/>
			<stop  offset="1" style="stop-color:#E9EFFD"/>
		</linearGradient>
		<path style="fill:url(#SVGID_00000056396738457518888350000005325008096290762383_);" d="M265.3,197.3c-6.3,0-11.5-5.1-11.5-11.5
			s5.1-11.5,11.5-11.5c6.3,0,11.5,5.1,11.5,11.5S271.7,197.3,265.3,197.3z M265.3,176.3c-5.3,0-9.5,4.3-9.5,9.5
			c0,5.3,4.3,9.5,9.5,9.5c5.3,0,9.5-4.3,9.5-9.5C274.9,180.6,270.6,176.3,265.3,176.3z"/>
		
			<linearGradient id="SVGID_00000049206902724282631330000016872120668582063243_" gradientUnits="userSpaceOnUse" x1="261.7577" y1="186.1366" x2="270.9758" y2="186.1366">
			<stop  offset="0" style="stop-color:#DAE3FE"/>
			<stop  offset="1" style="stop-color:#E9EFFD"/>
		</linearGradient>
		<path style="fill-rule:evenodd;clip-rule:evenodd;fill:url(#SVGID_00000049206902724282631330000016872120668582063243_);" d="
			M261.8,190.3V182c0-0.9,1-1.4,1.7-1l6.9,4.1c0.7,0.4,0.7,1.5,0,2l-6.9,4.1C262.7,191.7,261.8,191.1,261.8,190.3z"/>
	</g>
</g>
<g>
	<path class="st2" d="M337.6,129.5l-27.8-1.4c-2.3-0.1-4.1,1.6-4,3.9l0.7,25.5c0.1,2.1,1.9,3.7,4,3.6l26.4-1.3
		c1.8-0.1,3.3-1.7,3.3-3.6l0.6-22.9C340.9,131.4,339.4,129.6,337.6,129.5z"/>
	<g class="st40">
		<path class="st5" d="M332.9,154.4h-19.5c-1.5,0-2.7-1.2-2.7-2.7v-14.2c0-1.5,1.2-2.7,2.7-2.7h19.5c1.5,0,2.7,1.2,2.7,2.7v14.2
			C335.6,153.2,334.4,154.4,332.9,154.4z M313.4,136.7c-0.5,0-0.8,0.4-0.8,0.8v14.2c0,0.5,0.4,0.8,0.8,0.8h19.5
			c0.5,0,0.8-0.4,0.8-0.8v-14.2c0-0.5-0.4-0.8-0.8-0.8H313.4z"/>
		<path class="st5" d="M323.2,145.1c-0.2,0-0.4-0.1-0.5-0.2l-10.9-7.7c-0.4-0.3-0.5-0.9-0.2-1.3c0.3-0.4,0.9-0.5,1.3-0.2l10.4,7.3
			l10.2-7.3c0.4-0.3,1-0.2,1.3,0.2c0.3,0.4,0.2,1-0.2,1.3l-10.8,7.6C323.5,145.1,323.4,145.1,323.2,145.1z"/>
		<path class="st5" d="M312.4,154l-0.3-1.9l0.1,0.9l-0.8-0.5c0.2-0.3,4.1-7.2,6.7-11.7c0.3-0.5,0.8-0.6,1.3-0.4
			c0.5,0.3,0.6,0.8,0.4,1.3c0,0-1.7,2.9-3.4,5.9c-0.8,1.5-1.7,2.9-2.3,4.1C312.9,153.9,312.9,153.9,312.4,154z"/>
		<path class="st5" d="M333.8,154c-0.5-0.1-0.5-0.1-1.7-2.3c-0.6-1.1-1.5-2.6-2.3-4.1c-1.7-2.9-3.4-5.9-3.4-5.9
			c-0.3-0.5-0.1-1,0.4-1.3c0.5-0.3,1-0.1,1.3,0.4c2.6,4.5,6.5,11.4,6.7,11.7L334,153L333.8,154z"/>
	</g>
</g>
<g>
	<path class="st2" d="M303.9,215.3l-16.2-0.9c-1.3-0.1-2.4,1-2.3,2.3l0.4,15.1c0,1.2,1.1,2.2,2.3,2.1l15.4-0.8c1-0.1,1.9-1,1.9-2.1
		l0.4-13.5C305.9,216.4,305,215.4,303.9,215.3z"/>
	<path class="st41" d="M301.8,216.9h-11.5c-1.1,0-2.5,0.9-2.5,2v6.4c0,1.1,1.4,1.7,2.5,1.7h7.9c0.3,0,0.4,0.8,0.4,1v1
		c0,0.4,0.4,0.5,0.6,0.6c0.1,0.1,0.2,0.2,0.4,0.2c0.2,0,0.3-0.1,0.4-0.2l1.7-2c1.1,0,1.5-1.2,1.5-2.2v-6.4
		C303.3,217.9,302.9,216.9,301.8,216.9z M302.3,225.4c0,0.5,0,1-0.4,1h-0.4l-2,2.1v-1.4c0-0.3,0.2-0.7-0.1-0.7h-8.9
		c-0.5,0-1.4-0.5-1.4-1v-6.2c0-0.7,0.9-0.8,1.4-0.8h11.5c0.5,0,0.4,0.1,0.4,0.6V225.4z"/>
	<path class="st5" d="M301.2,220.2c0,0.2-0.2,0.4-0.4,0.4h-10.4c-0.2,0-0.4-0.2-0.4-0.4l0,0c0-0.2,0.2-0.4,0.4-0.4h10.4
		C301,219.8,301.2,220,301.2,220.2L301.2,220.2z"/>
	<path class="st5" d="M301.2,222c0,0.2-0.2,0.4-0.4,0.4h-10.4c-0.2,0-0.4-0.2-0.4-0.4l0,0c0-0.2,0.2-0.4,0.4-0.4h10.4
		C301,221.6,301.2,221.8,301.2,222L301.2,222z"/>
	<path class="st5" d="M301.2,224.5c0,0.2-0.2,0.4-0.4,0.4h-10.4c-0.2,0-0.4-0.2-0.4-0.4l0,0c0-0.2,0.2-0.4,0.4-0.4h10.4
		C301,224.2,301.2,224.3,301.2,224.5L301.2,224.5z"/>
</g>
<g>
	<path class="st5" d="M281.7,125.9c0.3,0.1,0.7,0.3,1,0.4c0.4,0.2,0.5,0.6,0.4,1c0,0.1-0.1,0.2-0.2,0.2c-0.2,0.2-0.5,0.3-0.8,0.1
		c-0.3-0.1-0.7-0.3-1-0.4c-0.4-0.2-0.5-0.6-0.4-0.9C280.9,125.9,281.3,125.7,281.7,125.9z"/>
	<path class="st5" d="M271.3,204.5c0.4-0.1,0.7-0.1,1.1-0.2c0.4-0.1,0.8,0.2,0.8,0.6c0,0.2,0,0.5-0.2,0.6c-0.1,0.1-0.2,0.2-0.4,0.2
		c-0.4,0.1-0.7,0.1-1.1,0.2c-0.4,0.1-0.8-0.2-0.8-0.6C270.6,204.9,270.9,204.5,271.3,204.5z"/>
	<path class="st5" d="M278.2,124.6l0.1,0c0.3,0.1,0.6,0.2,0.9,0.3c0.4,0.1,0.6,0.5,0.4,0.9c0,0.1-0.1,0.2-0.2,0.3
		c-0.2,0.2-0.5,0.3-0.7,0.2c-0.3-0.1-0.6-0.2-0.9-0.3l-0.1,0c-0.4-0.1-0.6-0.5-0.5-0.9C277.4,124.7,277.8,124.5,278.2,124.6z"/>
	<path class="st5" d="M274.7,123.6c0.4,0.1,0.7,0.2,1.1,0.3c0.4,0.1,0.6,0.5,0.5,0.9c0,0.1-0.1,0.2-0.2,0.3
		c-0.2,0.2-0.4,0.2-0.7,0.2c-0.3-0.1-0.7-0.2-1-0.3c-0.4-0.1-0.6-0.5-0.5-0.9C273.9,123.8,274.3,123.5,274.7,123.6z"/>
	<path class="st5" d="M274.9,203.9c0.4-0.1,0.7-0.1,1.1-0.2c0.4-0.1,0.8,0.2,0.8,0.6c0,0.2,0,0.5-0.2,0.7c-0.1,0.1-0.2,0.2-0.4,0.2
		c-0.4,0.1-0.7,0.1-1.1,0.2c-0.4,0.1-0.8-0.2-0.8-0.6C274.2,204.4,274.5,204,274.9,203.9z"/>
	<path class="st5" d="M278.4,203.2c0.4-0.1,0.7-0.1,1.1-0.2c0.4-0.1,0.8,0.2,0.9,0.6c0.1,0.3,0,0.5-0.2,0.7
		c-0.1,0.1-0.2,0.2-0.4,0.2c-0.4,0.1-0.7,0.2-1.1,0.2c-0.4,0.1-0.8-0.2-0.9-0.6C277.8,203.7,278,203.3,278.4,203.2z"/>
	<path class="st5" d="M287.3,129.4c0.2-0.3,0.6-0.5,1-0.3c0.3,0.2,0.6,0.4,0.9,0.6c0.3,0.2,0.4,0.7,0.2,1c0,0.1-0.1,0.1-0.1,0.1
		c-0.2,0.2-0.6,0.3-0.9,0.1c-0.3-0.2-0.6-0.4-0.9-0.6C287.2,130.2,287.1,129.7,287.3,129.4z"/>
	<path class="st5" d="M288.8,200.4c0.3-0.1,0.7-0.2,1-0.4c0.4-0.1,0.8,0.1,0.9,0.4c0.1,0.3,0,0.6-0.2,0.8c-0.1,0.1-0.2,0.1-0.3,0.2
		c-0.3,0.1-0.7,0.3-1,0.4c-0.4,0.1-0.8-0.1-0.9-0.4C288.3,201,288.5,200.6,288.8,200.4z"/>
	<path class="st5" d="M285,127.4c0.3,0.2,0.7,0.3,1,0.5c0.4,0.2,0.5,0.6,0.3,1c0,0.1-0.1,0.1-0.1,0.2c-0.2,0.2-0.6,0.3-0.8,0.1
		c-0.3-0.2-0.6-0.3-1-0.5c-0.4-0.2-0.5-0.6-0.3-1C284.2,127.4,284.7,127.2,285,127.4z"/>
	<path class="st5" d="M281.9,202.4c0.3-0.1,0.7-0.2,1-0.3c0.4-0.1,0.8,0.1,0.9,0.5c0.1,0.3,0,0.5-0.2,0.7c-0.1,0.1-0.2,0.1-0.3,0.2
		c-0.4,0.1-0.7,0.2-1.1,0.3c-0.4,0.1-0.8-0.1-0.9-0.5C281.3,202.9,281.5,202.5,281.9,202.4z"/>
	<path class="st5" d="M285.4,201.5c0.3-0.1,0.7-0.2,1-0.3c0.4-0.1,0.8,0.1,0.9,0.5c0.1,0.3,0,0.5-0.2,0.7c-0.1,0.1-0.2,0.1-0.3,0.2
		c-0.4,0.1-0.7,0.2-1.1,0.3c-0.4,0.1-0.8-0.1-0.9-0.5C284.8,202,285,201.6,285.4,201.5z"/>
	<path class="st5" d="M263.7,122.2c0.4,0,0.7,0,1.1,0c0.4,0,0.7,0.4,0.7,0.8c0,0.2-0.1,0.4-0.2,0.5c-0.1,0.1-0.3,0.2-0.5,0.2
		c-0.4,0-0.7,0-1.1,0c-0.4,0-0.7-0.3-0.7-0.7C263,122.5,263.3,122.2,263.7,122.2z"/>
	<path class="st5" d="M256.4,122.5c0.4,0,0.7-0.1,1.1-0.1c0.4,0,0.8,0.3,0.8,0.7c0,0.2-0.1,0.4-0.2,0.6c-0.1,0.1-0.3,0.2-0.4,0.2
		c-0.4,0-0.7,0.1-1.1,0.1c-0.4,0-0.8-0.2-0.8-0.6C255.7,122.9,256,122.5,256.4,122.5z"/>
	<path class="st5" d="M257,205.9c0.4,0,0.7,0,1.1-0.1c0.4,0,0.7,0.3,0.8,0.7c0,0.2-0.1,0.4-0.2,0.6c-0.1,0.1-0.3,0.2-0.5,0.2
		c-0.4,0-0.7,0-1.1,0.1c-0.4,0-0.7-0.3-0.8-0.7C256.3,206.3,256.6,206,257,205.9z"/>
	<path class="st5" d="M253.4,206.1c0.4,0,0.7,0,1.1,0c0.4,0,0.7,0.3,0.8,0.7c0,0.2-0.1,0.4-0.2,0.6c-0.1,0.1-0.3,0.2-0.5,0.2
		c-0.4,0-0.7,0-1.1,0c-0.4,0-0.7-0.3-0.8-0.7C252.6,206.5,253,206.1,253.4,206.1z"/>
	<path class="st5" d="M260.1,122.2c0.4,0,0.7,0,1.1,0c0.4,0,0.7,0.3,0.7,0.7c0,0.2-0.1,0.4-0.2,0.5c-0.1,0.1-0.3,0.2-0.5,0.2
		c-0.4,0-0.7,0-1.1,0c-0.4,0-0.7-0.3-0.8-0.7C259.4,122.6,259.7,122.2,260.1,122.2z"/>
	<path class="st5" d="M252.8,123c0.4-0.1,0.7-0.1,1.1-0.2c0.4-0.1,0.8,0.2,0.8,0.6c0,0.2,0,0.5-0.2,0.6c-0.1,0.1-0.2,0.2-0.4,0.2
		c-0.4,0.1-0.7,0.1-1.1,0.2c-0.4,0.1-0.8-0.2-0.8-0.6C252.1,123.5,252.4,123.1,252.8,123z"/>
	<path class="st5" d="M249.7,206.2c0.4,0,0.7,0,1.1,0c0.4,0,0.7,0.3,0.7,0.7c0,0.2-0.1,0.4-0.2,0.5c-0.1,0.1-0.3,0.2-0.5,0.2
		c-0.4,0-0.7,0-1.1,0c-0.4,0-0.7-0.3-0.7-0.7C249,206.6,249.3,206.2,249.7,206.2z"/>
	<path class="st5" d="M260.6,205.7c0.4,0,0.7-0.1,1.1-0.1c0.4,0,0.7,0.3,0.8,0.7c0,0.2-0.1,0.4-0.2,0.6c-0.1,0.1-0.3,0.2-0.4,0.2
		c-0.4,0-0.7,0.1-1.1,0.1c-0.4,0-0.7-0.3-0.8-0.7C259.9,206.1,260.2,205.7,260.6,205.7z"/>
	<path class="st5" d="M267.7,205c0.4,0,0.7-0.1,1.1-0.1c0.4-0.1,0.8,0.2,0.8,0.6c0,0.2-0.1,0.5-0.2,0.6c-0.1,0.1-0.2,0.2-0.4,0.2
		c-0.4,0-0.7,0.1-1.1,0.1c-0.4,0-0.8-0.2-0.8-0.6C267.1,205.4,267.3,205,267.7,205z"/>
	<path class="st5" d="M267.4,122.4c0.4,0,0.7,0.1,1.1,0.1c0.4,0,0.7,0.4,0.6,0.8c0,0.2-0.1,0.3-0.2,0.4c-0.2,0.1-0.4,0.2-0.6,0.2
		c-0.4,0-0.7-0.1-1.1-0.1c-0.4,0-0.7-0.4-0.7-0.8C266.7,122.7,267,122.4,267.4,122.4z"/>
	<path class="st5" d="M264.2,205.4c0.4,0,0.7-0.1,1.1-0.1c0.4,0,0.8,0.2,0.8,0.6c0,0.2-0.1,0.4-0.2,0.6c-0.1,0.1-0.3,0.2-0.4,0.2
		c-0.4,0-0.7,0.1-1.1,0.1c-0.4,0-0.8-0.3-0.8-0.6C263.5,205.8,263.8,205.4,264.2,205.4z"/>
	<path class="st5" d="M290.3,131.3c0.2-0.3,0.7-0.4,1-0.2c0.3,0.2,0.6,0.4,0.9,0.6c0.3,0.2,0.4,0.7,0.2,1c0,0-0.1,0.1-0.1,0.1
		c-0.2,0.2-0.6,0.3-0.9,0.1c-0.3-0.2-0.6-0.4-0.9-0.6C290.2,132.1,290.1,131.6,290.3,131.3z"/>
	<path class="st5" d="M271.1,122.9c0.4,0.1,0.7,0.1,1.1,0.2c0.4,0.1,0.7,0.5,0.6,0.8c0,0.2-0.1,0.3-0.2,0.4
		c-0.2,0.2-0.4,0.2-0.6,0.2c-0.4-0.1-0.7-0.1-1.1-0.2c-0.4-0.1-0.7-0.4-0.6-0.8C270.3,123.1,270.7,122.8,271.1,122.9z"/>
	<path class="st5" d="M304.8,190.7c0.3-0.3,0.7-0.3,1,0c0.3,0.3,0.3,0.7,0,1c-0.3,0.3-0.5,0.5-0.8,0.8c0,0,0,0,0,0
		c-0.3,0.3-0.7,0.3-1,0c-0.3-0.3-0.3-0.7,0-1C304.3,191.3,304.5,191,304.8,190.7z"/>
	<path class="st5" d="M312.6,165.9c-0.4,0.1-0.8-0.2-0.8-0.6c0-0.4-0.1-0.7-0.2-1.1c-0.1-0.4,0.2-0.8,0.6-0.8
		c0.4-0.1,0.8,0.2,0.8,0.6c0.1,0.4,0.1,0.7,0.2,1.1c0,0.2-0.1,0.5-0.2,0.6C312.9,165.8,312.7,165.9,312.6,165.9z"/>
	<path class="st5" d="M312.8,169.5c-0.4,0-0.7-0.3-0.8-0.7c0-0.4,0-0.7-0.1-1.1c0-0.4,0.3-0.7,0.7-0.8c0.4,0,0.7,0.3,0.8,0.7
		c0,0.4,0,0.7,0.1,1.1c0,0.2-0.1,0.4-0.2,0.6C313.2,169.5,313,169.5,312.8,169.5z"/>
	<path class="st5" d="M312,162.3c-0.4,0.1-0.8-0.2-0.9-0.5c-0.1-0.3-0.2-0.7-0.2-1c-0.1-0.4,0.1-0.8,0.5-0.9
		c0.4-0.1,0.8,0.1,0.9,0.5c0.1,0.4,0.2,0.7,0.3,1.1c0.1,0.3,0,0.5-0.2,0.7C312.3,162.2,312.1,162.3,312,162.3z"/>
	<path class="st5" d="M312.8,173.2c-0.4,0-0.7-0.4-0.7-0.8c0-0.4,0-0.7,0-1.1c0-0.4,0.3-0.7,0.7-0.7c0.4,0,0.7,0.3,0.7,0.7
		c0,0.4,0,0.7,0,1.1c0,0.2-0.1,0.4-0.2,0.5C313.2,173.1,313,173.2,312.8,173.2z"/>
	<path class="st5" d="M312.3,176.8c-0.4-0.1-0.7-0.4-0.6-0.8c0.1-0.4,0.1-0.7,0.1-1.1c0-0.4,0.4-0.7,0.8-0.6c0.4,0,0.7,0.4,0.6,0.8
		c0,0.4-0.1,0.7-0.2,1.1c0,0.2-0.1,0.3-0.2,0.4C312.8,176.7,312.6,176.8,312.3,176.8z"/>
	<path class="st5" d="M304.9,145.8c-0.3,0.2-0.8,0.1-1-0.2c-0.2-0.3-0.4-0.6-0.6-0.9c-0.2-0.3-0.2-0.8,0.2-1c0.3-0.2,0.8-0.2,1,0.2
		c0.2,0.3,0.4,0.6,0.6,0.9C305.3,145.1,305.3,145.5,304.9,145.8C305,145.7,304.9,145.8,304.9,145.8z"/>
	<path class="st5" d="M306.8,148.9c-0.3,0.2-0.8,0.1-1-0.3c-0.2-0.3-0.4-0.6-0.6-0.9c-0.2-0.3-0.1-0.8,0.2-1c0.3-0.2,0.8-0.1,1,0.2
		c0.2,0.3,0.4,0.6,0.6,0.9c0.2,0.3,0.1,0.7-0.1,0.9C306.9,148.8,306.9,148.8,306.8,148.9z"/>
	<path class="st5" d="M311.1,158.8c-0.4,0.1-0.8-0.1-0.9-0.5c-0.1-0.3-0.2-0.7-0.3-1c-0.1-0.4,0.1-0.8,0.5-0.9
		c0.4-0.1,0.8,0.1,0.9,0.5c0.1,0.3,0.2,0.7,0.3,1.1c0.1,0.3,0,0.6-0.2,0.7C311.3,158.7,311.2,158.8,311.1,158.8z"/>
	<path class="st5" d="M292.2,199.2c0.3-0.1,0.7-0.3,1-0.4c0.4-0.2,0.8,0,1,0.4c0.1,0.3,0.1,0.6-0.2,0.8c-0.1,0.1-0.1,0.1-0.2,0.1
		c-0.3,0.1-0.7,0.3-1,0.4c-0.4,0.2-0.8,0-0.9-0.4C291.6,199.8,291.8,199.3,292.2,199.2z"/>
	<path class="st5" d="M308.5,152.1c-0.4,0.2-0.8,0-1-0.3c-0.2-0.3-0.3-0.6-0.5-1c-0.2-0.4,0-0.8,0.3-1c0.4-0.2,0.8,0,1,0.3
		c0.2,0.3,0.3,0.7,0.5,1c0.1,0.3,0.1,0.6-0.1,0.8C308.6,152,308.6,152,308.5,152.1z"/>
	<path class="st5" d="M310,155.4c-0.4,0.2-0.8,0-0.9-0.4c-0.1-0.2-0.2-0.5-0.3-0.7l-0.1-0.3c-0.2-0.4,0-0.8,0.4-1
		c0.4-0.2,0.8,0,1,0.4l0.1,0.3c0.1,0.3,0.2,0.5,0.3,0.8c0.1,0.3,0,0.6-0.2,0.8C310.1,155.3,310,155.4,310,155.4z"/>
	<path class="st5" d="M311,179.4c0.1-0.3,0.2-0.7,0.3-1c0.1-0.4,0.5-0.6,0.9-0.5c0.4,0.1,0.6,0.5,0.5,0.9c-0.1,0.4-0.2,0.7-0.3,1.1
		c0,0.1-0.1,0.2-0.2,0.3c-0.2,0.2-0.4,0.2-0.7,0.2C311.1,180.2,310.9,179.8,311,179.4z"/>
	<path class="st5" d="M298.5,195.9c0.3-0.2,0.6-0.4,0.9-0.6c0.3-0.2,0.8-0.1,1,0.2c0.2,0.3,0.2,0.7-0.1,0.9c0,0-0.1,0.1-0.1,0.1
		c-0.3,0.2-0.6,0.4-0.9,0.6c-0.3,0.2-0.8,0.1-1-0.2C298.1,196.6,298.2,196.1,298.5,195.9z"/>
	<path class="st5" d="M300.5,140.1c-0.3,0.3-0.8,0.3-1,0c-0.2-0.3-0.5-0.5-0.7-0.8c-0.3-0.3-0.3-0.7,0-1c0,0,0,0,0,0
		c0.3-0.3,0.7-0.3,1,0c0.3,0.3,0.5,0.5,0.8,0.8C300.8,139.3,300.8,139.8,300.5,140.1C300.5,140,300.5,140.1,300.5,140.1z"/>
	<path class="st5" d="M296.1,136.7c-0.3-0.3-0.3-0.7,0-1c0.3-0.3,0.7-0.3,1,0c0.3,0.2,0.5,0.5,0.8,0.7c0.3,0.3,0.3,0.7,0,1
		c0,0,0,0,0,0c-0.3,0.3-0.7,0.3-1,0C296.7,137.2,296.4,137,296.1,136.7z"/>
	<path class="st5" d="M293.3,133.4c0.2-0.3,0.7-0.4,1-0.1c0.3,0.2,0.6,0.5,0.9,0.7c0.3,0.3,0.4,0.7,0.1,1c0,0,0,0-0.1,0.1
		c-0.3,0.3-0.7,0.3-1,0c-0.3-0.2-0.6-0.5-0.8-0.7C293.1,134.2,293,133.7,293.3,133.4z"/>
	<path class="st5" d="M295.4,197.7c0.3-0.2,0.6-0.3,0.9-0.5c0.4-0.2,0.8-0.1,1,0.3c0.2,0.3,0.1,0.6-0.1,0.9c0,0-0.1,0.1-0.2,0.1
		c-0.3,0.2-0.6,0.3-1,0.5c-0.4,0.2-0.8,0-1-0.3C294.9,198.3,295.1,197.8,295.4,197.7z"/>
	<path class="st5" d="M308.3,185.9c0.2-0.3,0.3-0.6,0.5-0.9c0.2-0.4,0.6-0.5,1-0.3c0.4,0.2,0.5,0.6,0.3,1c-0.2,0.3-0.3,0.7-0.5,1
		c0,0.1-0.1,0.1-0.1,0.2c-0.2,0.2-0.6,0.3-0.9,0.1C308.2,186.7,308.1,186.3,308.3,185.9z"/>
	<path class="st5" d="M309.9,182.8c0.1-0.3,0.3-0.7,0.4-1c0.1-0.4,0.6-0.6,0.9-0.4c0.4,0.1,0.6,0.6,0.4,0.9c-0.1,0.3-0.3,0.7-0.4,1
		c0,0.1-0.1,0.2-0.2,0.2c-0.2,0.2-0.5,0.3-0.8,0.2C309.9,183.5,309.7,183.1,309.9,182.8z"/>
	<path class="st5" d="M302.2,141c0.2,0.3,0.5,0.6,0.7,0.9c0.2,0.3,0.2,0.7-0.1,1c0,0,0,0-0.1,0c-0.3,0.3-0.8,0.2-1-0.1
		c-0.2-0.3-0.4-0.6-0.7-0.8c-0.3-0.3-0.2-0.8,0.1-1C301.5,140.6,301.9,140.7,302.2,141z"/>
	<path class="st5" d="M306.6,188.6c0.1-0.2,0.3-0.4,0.4-0.6c0.2-0.3,0.7-0.4,1-0.2c0.3,0.2,0.4,0.7,0.2,1c-0.1,0.2-0.3,0.4-0.5,0.6
		l-0.2,0.3c0,0,0,0.1-0.1,0.1c-0.3,0.2-0.7,0.3-0.9,0.1c-0.3-0.2-0.4-0.7-0.1-1L306.6,188.6z"/>
	<path class="st5" d="M301.4,193.9c0.3-0.2,0.6-0.4,0.8-0.7c0.3-0.3,0.8-0.2,1,0.1c0.2,0.3,0.2,0.7,0,1c0,0,0,0,0,0
		c-0.3,0.2-0.6,0.5-0.9,0.7c-0.3,0.2-0.8,0.2-1-0.1C301,194.6,301.1,194.1,301.4,193.9z"/>
	<path class="st5" d="M249.2,123.8c0.4-0.1,0.7-0.2,1.1-0.3c0.4-0.1,0.8,0.2,0.9,0.5c0.1,0.3,0,0.5-0.2,0.7
		c-0.1,0.1-0.2,0.2-0.3,0.2c-0.3,0.1-0.7,0.2-1,0.3c-0.4,0.1-0.8-0.1-0.9-0.5C248.6,124.3,248.8,123.9,249.2,123.8z"/>
	<path class="st5" d="M151.9,204.4c0.4,0,0.7-0.1,1.1-0.1c0.4,0,0.8,0.2,0.8,0.6c0,0.2-0.1,0.5-0.2,0.6c-0.1,0.1-0.3,0.2-0.4,0.2
		c-0.4,0-0.7,0.1-1.1,0.1c-0.4,0-0.8-0.2-0.8-0.6C151.2,204.8,151.5,204.4,151.9,204.4z"/>
	<path class="st5" d="M148.3,204.9c0.4-0.1,0.7-0.1,1.1-0.2c0.4-0.1,0.8,0.2,0.8,0.6c0,0.2-0.1,0.5-0.2,0.6
		c-0.1,0.1-0.2,0.2-0.4,0.2c-0.4,0.1-0.7,0.1-1.1,0.2c-0.4,0.1-0.8-0.2-0.8-0.6C147.6,205.3,147.9,204.9,148.3,204.9z"/>
	<path class="st5" d="M141.1,206.1c0.4-0.1,0.7-0.1,1.1-0.2c0.4-0.1,0.8,0.2,0.9,0.6c0,0.3,0,0.5-0.2,0.7c-0.1,0.1-0.2,0.2-0.4,0.2
		c-0.4,0.1-0.7,0.1-1.1,0.2c-0.4,0.1-0.8-0.2-0.9-0.6C140.5,206.6,140.7,206.2,141.1,206.1z"/>
	<path class="st5" d="M144.7,205.5c0.4-0.1,0.7-0.1,1.1-0.2c0.4-0.1,0.8,0.2,0.8,0.6c0,0.2,0,0.5-0.2,0.6c-0.1,0.1-0.2,0.2-0.4,0.2
		c-0.4,0.1-0.7,0.1-1.1,0.2c-0.4,0.1-0.8-0.2-0.8-0.6C144,205.9,144.3,205.5,144.7,205.5z"/>
	<path class="st5" d="M137.6,206.9c0.4-0.1,0.7-0.2,1.1-0.3c0.4-0.1,0.8,0.2,0.9,0.5c0.1,0.3,0,0.5-0.2,0.7
		c-0.1,0.1-0.2,0.2-0.3,0.2c-0.4,0.1-0.7,0.2-1.1,0.2c-0.4,0.1-0.8-0.1-0.9-0.5C136.9,207.4,137.2,207,137.6,206.9z"/>
	<path class="st5" d="M246.1,206.3c0.4,0,0.7,0,1.1,0c0.4,0,0.7,0.3,0.7,0.7c0,0.2-0.1,0.4-0.2,0.5c-0.1,0.1-0.3,0.2-0.5,0.2
		c-0.4,0-0.7,0-1.1,0c-0.4,0-0.7-0.3-0.7-0.7C245.4,206.6,245.7,206.3,246.1,206.3z"/>
	<path class="st5" d="M134,207.9c0.4-0.1,0.7-0.2,1.1-0.3c0.4-0.1,0.8,0.1,0.9,0.5c0.1,0.3,0,0.5-0.2,0.7c-0.1,0.1-0.2,0.1-0.3,0.2
		c-0.3,0.1-0.7,0.2-1,0.3c-0.4,0.1-0.8-0.1-0.9-0.5C133.4,208.4,133.6,208,134,207.9z"/>
	<path class="st5" d="M166.4,203.2c0.4,0,0.7,0,1.1,0c0.4,0,0.7,0.3,0.7,0.7c0,0.2-0.1,0.4-0.2,0.5c-0.1,0.1-0.3,0.2-0.5,0.2
		c-0.4,0-0.7,0-1.1,0c-0.4,0-0.7-0.3-0.8-0.7C165.7,203.6,166,203.2,166.4,203.2z"/>
	<path class="st5" d="M155.5,203.9c0.4,0,0.7-0.1,1.1-0.1c0.4,0,0.8,0.3,0.8,0.7c0,0.2-0.1,0.4-0.2,0.6c-0.1,0.1-0.3,0.2-0.4,0.2
		c-0.4,0-0.7,0.1-1.1,0.1c-0.4,0-0.8-0.3-0.8-0.6C154.8,204.3,155.1,204,155.5,203.9z"/>
	<path class="st5" d="M170.1,203.1c0.4,0,0.7,0,1.1,0c0.4,0,0.7,0.3,0.7,0.7c0,0.2-0.1,0.4-0.2,0.5c-0.1,0.1-0.3,0.2-0.5,0.2
		c-0.4,0-0.7,0-1.1,0c-0.4,0-0.7-0.3-0.7-0.7C169.3,203.4,169.7,203.1,170.1,203.1z"/>
	<path class="st5" d="M162.8,203.4c0.4,0,0.7,0,1.1-0.1c0.4,0,0.7,0.3,0.8,0.7c0,0.2-0.1,0.4-0.2,0.6c-0.1,0.1-0.3,0.2-0.5,0.2
		c-0.4,0-0.7,0-1.1,0.1c-0.4,0-0.7-0.3-0.8-0.7C162.1,203.7,162.4,203.4,162.8,203.4z"/>
	<path class="st5" d="M159.2,203.6c0.4,0,0.7-0.1,1.1-0.1c0.4,0,0.7,0.3,0.8,0.7c0,0.2-0.1,0.4-0.2,0.6c-0.1,0.1-0.3,0.2-0.5,0.2
		c-0.4,0-0.7,0.1-1.1,0.1c-0.4,0-0.7-0.3-0.8-0.7C158.5,204,158.8,203.7,159.2,203.6z"/>
	<path class="st5" d="M104.2,221.4c0.3-0.2,0.6-0.4,0.9-0.6c0.3-0.2,0.8-0.1,1,0.2c0.2,0.3,0.2,0.7-0.1,0.9c0,0-0.1,0.1-0.1,0.1
		c-0.3,0.2-0.6,0.4-0.9,0.6c-0.3,0.2-0.8,0.1-1-0.2C103.8,222.1,103.9,221.6,104.2,221.4z"/>
	<path class="st5" d="M173.7,203c0.4,0,0.7,0,1.1,0c0.4,0,0.7,0.3,0.7,0.7c0,0.2-0.1,0.4-0.2,0.5c-0.1,0.1-0.3,0.2-0.5,0.2
		c-0.4,0-0.7,0-1.1,0c-0.4,0-0.7-0.3-0.7-0.7C173,203.4,173.3,203,173.7,203z"/>
	<path class="st5" d="M101.3,223.6c0.3-0.2,0.6-0.4,0.9-0.7c0.3-0.2,0.8-0.2,1,0.1c0.2,0.3,0.2,0.7-0.1,1c0,0,0,0-0.1,0.1
		c-0.3,0.2-0.6,0.4-0.9,0.7c-0.3,0.2-0.8,0.2-1-0.1C100.9,224.3,101,223.8,101.3,223.6z"/>
	<path class="st5" d="M95.7,228.3c0.3-0.3,0.5-0.5,0.8-0.7c0.3-0.3,0.8-0.2,1,0c0.3,0.3,0.2,0.7,0,1c0,0,0,0,0,0
		c-0.3,0.2-0.5,0.5-0.8,0.7c-0.3,0.3-0.8,0.3-1,0C95.4,229,95.4,228.6,95.7,228.3z"/>
	<path class="st5" d="M107.3,219.4c0.3-0.2,0.6-0.4,0.9-0.6c0.3-0.2,0.8-0.1,1,0.2c0.2,0.3,0.1,0.7-0.1,0.9c0,0-0.1,0.1-0.1,0.1
		c-0.3,0.2-0.6,0.4-0.9,0.6c-0.3,0.2-0.8,0.1-1-0.2C106.8,220,106.9,219.6,107.3,219.4z"/>
	<path class="st5" d="M98.4,225.9c0.3-0.2,0.6-0.5,0.8-0.7c0.3-0.3,0.8-0.2,1,0.1c0.2,0.3,0.2,0.7-0.1,1c0,0,0,0,0,0
		c-0.3,0.2-0.6,0.5-0.8,0.7c-0.3,0.3-0.8,0.2-1-0.1C98.1,226.6,98.1,226.1,98.4,225.9z"/>
	<path class="st5" d="M116.9,214.1c0.3-0.2,0.7-0.3,1-0.5c0.4-0.2,0.8,0,1,0.4c0.1,0.3,0.1,0.6-0.2,0.8c-0.1,0.1-0.1,0.1-0.2,0.1
		c-0.3,0.1-0.7,0.3-1,0.5c-0.4,0.2-0.8,0-1-0.3C116.4,214.7,116.5,214.3,116.9,214.1z"/>
	<path class="st5" d="M123.6,211.2c0.3-0.1,0.7-0.3,1-0.4c0.4-0.1,0.8,0.1,0.9,0.4c0.1,0.3,0,0.6-0.2,0.8c-0.1,0.1-0.2,0.1-0.3,0.2
		c-0.3,0.1-0.7,0.3-1,0.4c-0.4,0.1-0.8,0-0.9-0.4C123.1,211.8,123.2,211.4,123.6,211.2z"/>
	<path class="st5" d="M120.2,212.6c0.3-0.1,0.7-0.3,1-0.4c0.4-0.2,0.8,0,0.9,0.4c0.1,0.3,0,0.6-0.2,0.8c-0.1,0.1-0.1,0.1-0.2,0.1
		c-0.3,0.1-0.7,0.3-1,0.4c-0.4,0.2-0.8,0-1-0.4C119.7,213.2,119.9,212.8,120.2,212.6z"/>
	<path class="st5" d="M113.6,215.7c0.3-0.2,0.7-0.3,1-0.5c0.4-0.2,0.8,0,1,0.3c0.1,0.3,0.1,0.6-0.1,0.8c-0.1,0.1-0.1,0.1-0.2,0.1
		c-0.3,0.2-0.6,0.3-1,0.5c-0.4,0.2-0.8,0-1-0.3C113.1,216.3,113.3,215.9,113.6,215.7z"/>
	<path class="st5" d="M110.4,217.5c0.3-0.2,0.6-0.4,1-0.5c0.4-0.2,0.8-0.1,1,0.3c0.2,0.3,0.1,0.7-0.1,0.9c0,0-0.1,0.1-0.2,0.1
		c-0.3,0.2-0.6,0.4-0.9,0.5c-0.3,0.2-0.8,0.1-1-0.3C109.9,218.1,110.1,217.7,110.4,217.5z"/>
	<path class="st5" d="M127.1,210c0.3-0.1,0.7-0.2,1-0.4c0.4-0.1,0.8,0.1,0.9,0.5c0.1,0.3,0,0.6-0.2,0.7c-0.1,0.1-0.2,0.1-0.3,0.2
		c-0.3,0.1-0.7,0.2-1,0.3c-0.4,0.1-0.8-0.1-0.9-0.5C126.5,210.5,126.7,210.1,127.1,210z"/>
	<path class="st5" d="M130.5,208.9c0.3-0.1,0.7-0.2,1-0.3c0.4-0.1,0.8,0.1,0.9,0.5c0.1,0.3,0,0.5-0.2,0.7c-0.1,0.1-0.2,0.1-0.3,0.2
		c-0.3,0.1-0.7,0.2-1,0.3c-0.4,0.1-0.8-0.1-0.9-0.5C129.9,209.4,130.1,209,130.5,208.9z"/>
	<path class="st5" d="M231.7,206l1.1,0c0.4,0,0.7,0.4,0.7,0.8c0,0.2-0.1,0.4-0.2,0.5c-0.1,0.1-0.3,0.2-0.5,0.2l-1.1,0
		c-0.4,0-0.7-0.4-0.7-0.8C230.9,206.3,231.3,206,231.7,206z"/>
	<path class="st5" d="M235.3,206.1l1.1,0c0.4,0,0.7,0.3,0.7,0.7c0,0.2-0.1,0.4-0.2,0.5c-0.1,0.1-0.3,0.2-0.5,0.2l-1.1,0
		c-0.4,0-0.7-0.3-0.7-0.7C234.5,206.4,234.9,206.1,235.3,206.1z"/>
	<path class="st5" d="M220.8,205.4l1.1,0.1c0.4,0,0.7,0.4,0.7,0.8c0,0.2-0.1,0.4-0.2,0.5c-0.1,0.1-0.3,0.2-0.5,0.2l-1.1-0.1
		c-0.4,0-0.7-0.4-0.7-0.8C220.1,205.7,220.4,205.4,220.8,205.4z"/>
	<path class="st5" d="M235.4,130.4c-0.2-0.3-0.1-0.8,0.3-1c0.3-0.2,0.6-0.4,1-0.6c0.3-0.2,0.8-0.1,1,0.3c0.2,0.3,0.1,0.7-0.1,0.9
		c0,0-0.1,0.1-0.1,0.1c-0.3,0.2-0.6,0.4-0.9,0.5C236,130.8,235.6,130.7,235.4,130.4z"/>
	<path class="st5" d="M224.4,205.6l1.1,0.1c0.4,0,0.7,0.4,0.7,0.8c0,0.2-0.1,0.4-0.2,0.5c-0.1,0.1-0.3,0.2-0.5,0.2l-1.1-0.1
		c-0.4,0-0.7-0.4-0.7-0.8C223.7,205.9,224,205.6,224.4,205.6z"/>
	<path class="st5" d="M228,205.8l1.1,0.1c0.4,0,0.7,0.4,0.7,0.8c0,0.2-0.1,0.4-0.2,0.5c-0.1,0.1-0.3,0.2-0.5,0.2l-1.1-0.1
		c-0.4,0-0.7-0.4-0.7-0.8C227.3,206.1,227.6,205.8,228,205.8z"/>
	<path class="st5" d="M245.7,124.8c0.3-0.1,0.7-0.2,1.1-0.3c0.4-0.1,0.8,0.1,0.9,0.5c0.1,0.3,0,0.5-0.2,0.7
		c-0.1,0.1-0.2,0.1-0.3,0.2c-0.3,0.1-0.7,0.2-1,0.3c-0.4,0.1-0.8-0.1-0.9-0.5C245.1,125.4,245.3,124.9,245.7,124.8z"/>
	<path class="st5" d="M242.5,206.3c0.4,0,0.7,0,1.1,0c0.4,0,0.7,0.3,0.7,0.7c0,0.2-0.1,0.4-0.2,0.5c-0.1,0.1-0.3,0.2-0.5,0.2
		c-0.4,0-0.7,0-1.1,0c-0.4,0-0.7-0.3-0.7-0.7C241.8,206.6,242.1,206.3,242.5,206.3z"/>
	<path class="st5" d="M242.2,126.1c0.3-0.1,0.7-0.3,1-0.4c0.4-0.1,0.8,0,0.9,0.4c0.1,0.3,0,0.6-0.2,0.8c-0.1,0.1-0.2,0.1-0.2,0.2
		c-0.3,0.1-0.7,0.3-1,0.4c-0.4,0.2-0.8,0-0.9-0.4C241.7,126.7,241.8,126.2,242.2,126.1z"/>
	<path class="st5" d="M238.9,206.2c0.4,0,0.7,0,1.1,0c0.4,0,0.7,0.3,0.7,0.7c0,0.2-0.1,0.4-0.2,0.5c-0.1,0.1-0.3,0.2-0.5,0.2
		c-0.4,0-0.7,0-1.1,0c-0.4,0-0.7-0.3-0.7-0.7C238.2,206.5,238.5,206.2,238.9,206.2z"/>
	<path class="st5" d="M240.5,128.4c-0.3,0.2-0.6,0.3-1,0.5c-0.4,0.2-0.8,0-1-0.3c-0.2-0.4,0-0.8,0.3-1c0.3-0.2,0.7-0.3,1-0.5
		c0.4-0.2,0.8,0,1,0.3c0.1,0.3,0.1,0.6-0.2,0.8C240.6,128.4,240.5,128.4,240.5,128.4z"/>
	<path class="st5" d="M177.3,203c0.4,0,0.7,0,1.1,0c0.4,0,0.7,0.3,0.7,0.7c0,0.2-0.1,0.4-0.2,0.5c-0.1,0.1-0.3,0.2-0.5,0.2
		c-0.4,0-0.7,0-1.1,0c-0.4,0-0.7-0.3-0.7-0.7C176.6,203.4,176.9,203,177.3,203z"/>
	<path class="st5" d="M195.5,203.7l1.1,0.1c0.4,0,0.7,0.4,0.7,0.8c0,0.2-0.1,0.4-0.2,0.5c-0.1,0.1-0.3,0.2-0.5,0.2l-1.1-0.1
		c-0.4,0-0.7-0.4-0.7-0.8C194.7,204,195.1,203.7,195.5,203.7z"/>
	<path class="st5" d="M188.2,203.3l1.1,0c0.4,0,0.7,0.4,0.7,0.8c0,0.2-0.1,0.4-0.2,0.5c-0.1,0.1-0.3,0.2-0.5,0.2l-1.1,0
		c-0.4,0-0.7-0.4-0.7-0.8C187.5,203.6,187.8,203.3,188.2,203.3z"/>
	<path class="st5" d="M191.9,203.5l1.1,0.1c0.4,0,0.7,0.4,0.7,0.8c0,0.2-0.1,0.4-0.2,0.5c-0.1,0.1-0.3,0.2-0.5,0.2l-1.1-0.1
		c-0.4,0-0.7-0.4-0.7-0.8C191.1,203.8,191.5,203.5,191.9,203.5z"/>
	<path class="st5" d="M217.2,205.2l1.1,0.1c0.4,0,0.7,0.4,0.7,0.8c0,0.2-0.1,0.4-0.2,0.5c-0.1,0.1-0.3,0.2-0.6,0.2l-1.1-0.1
		c-0.4,0-0.7-0.4-0.7-0.8C216.5,205.4,216.8,205.1,217.2,205.2z"/>
	<path class="st5" d="M184.6,203.2l1.1,0c0.4,0,0.7,0.4,0.7,0.8c0,0.2-0.1,0.4-0.2,0.5c-0.1,0.1-0.3,0.2-0.5,0.2l-1.1,0
		c-0.4,0-0.7-0.3-0.7-0.7C183.9,203.5,184.2,203.2,184.6,203.2z"/>
	<path class="st5" d="M181,203.1c0.4,0,0.7,0,1.1,0c0.4,0,0.7,0.3,0.7,0.7c0,0.2-0.1,0.4-0.2,0.5c-0.1,0.1-0.3,0.2-0.5,0.2
		c-0.4,0-0.7,0-1.1,0c-0.4,0-0.7-0.3-0.7-0.7C180.2,203.4,180.6,203.1,181,203.1z"/>
	<path class="st5" d="M199.1,203.9l1.1,0.1c0.4,0,0.7,0.4,0.7,0.8c0,0.2-0.1,0.4-0.2,0.5c-0.1,0.1-0.3,0.2-0.6,0.2l-1.1-0.1
		c-0.4,0-0.7-0.4-0.7-0.8C198.4,204.2,198.7,203.9,199.1,203.9z"/>
	<path class="st5" d="M210,204.7l1.1,0.1c0.4,0,0.7,0.4,0.7,0.8c0,0.2-0.1,0.3-0.2,0.5c-0.1,0.1-0.3,0.2-0.6,0.2l-1.1-0.1
		c-0.4,0-0.7-0.4-0.7-0.8C209.2,204.9,209.6,204.6,210,204.7z"/>
	<path class="st5" d="M213.6,204.9l1.1,0.1c0.4,0,0.7,0.4,0.7,0.8c0,0.2-0.1,0.4-0.2,0.5c-0.1,0.1-0.3,0.2-0.6,0.2l-1.1-0.1
		c-0.4,0-0.7-0.4-0.7-0.8C212.8,205.2,213.2,204.9,213.6,204.9z"/>
	<path class="st5" d="M202.7,204.2l1.1,0.1c0.4,0,0.7,0.4,0.7,0.8c0,0.2-0.1,0.4-0.2,0.5c-0.1,0.1-0.3,0.2-0.6,0.2l-1.1-0.1
		c-0.4,0-0.7-0.4-0.7-0.8C202,204.4,202.3,204.1,202.7,204.2z"/>
	<path class="st5" d="M206.4,204.4l1.1,0.1c0.4,0,0.7,0.4,0.7,0.8c0,0.2-0.1,0.3-0.2,0.5c-0.1,0.1-0.3,0.2-0.6,0.2l-1.1-0.1
		c-0.4,0-0.7-0.4-0.7-0.8C205.6,204.7,206,204.4,206.4,204.4z"/>
</g>
</svg>
