<?xml version="1.0" encoding="utf-8"?>
<!-- Generator: Adobe Illustrator 26.0.1, SVG Export Plug-In . SVG Version: 6.00 Build 0)  -->
<svg version="1.1" id="Layer_1" xmlns="http://www.w3.org/2000/svg" xmlns:xlink="http://www.w3.org/1999/xlink" x="0px" y="0px"
	 viewBox="0 0 400 400" style="enable-background:new 0 0 400 400;" xml:space="preserve">
<style type="text/css">
	.st0{fill:#F5F5F5;}
	.st1{fill:#E1E1E1;}
	.st2{fill:#375A64;}
	.st3{fill:#00DFBF;}
	.st4{opacity:0.5;}
	.st5{fill:#FFFFFF;}
	.st6{opacity:0.15;}
	.st7{opacity:0.9;fill:#1A2E35;}
	.st8{opacity:0.6;fill:#FFFFFF;}
	.st9{fill:#FFAAA8;}
	.st10{fill:#FF9090;}
	.st11{opacity:0.6;}
	.st12{fill:#2B454E;}
	.st13{opacity:0.8;fill:#FFFFFF;}
	.st14{opacity:0.2;}
	.st15{opacity:0.5;fill:#FFFFFF;}
	.st16{opacity:0.3;}
	.st17{opacity:0.1;}
	.st18{fill:#1A2E35;}
	.st19{fill:#FAFAFA;}
	.st20{opacity:5.000000e-02;}
	.st21{opacity:0.25;}
	.st22{opacity:0.4;}
	.st23{fill:#C76668;}
	.st24{fill:#B0494C;}
	.st25{opacity:0.7;fill:#FFFFFF;}
	.st26{fill:#ECECEC;}
	.st27{fill:#E6E6E6;}
	.st28{opacity:0.65;fill:#FFFFFF;}
	.st29{fill:#F0F0F0;}
	.st30{opacity:0.5;fill:#2B454E;}
	.st31{opacity:0.75;}
	.st32{opacity:0.1;fill:#00DFBF;}
</style>
<g>
	<ellipse id="Floor_9_" class="st0" cx="201.7" cy="271.6" rx="171.6" ry="95.5"/>
	<polygon id="Shadow_25_" class="st27" points="44.4,276 135.1,328.4 301.5,232.3 210.8,180 	"/>
	<ellipse id="Shadow_4_" class="st27" cx="270.7" cy="308.6" rx="61.9" ry="35.8"/>
	<ellipse id="Shadow_24_" class="st27" cx="215.6" cy="289.3" rx="46.2" ry="26.7"/>
	<g id="Plants_14_">
		<g id="XMLID_1230_">
			<g id="XMLID_1235_">
				<path id="XMLID_1236_" class="st3" d="M58.4,250.7c0,0,0.3-7.3-2-15.2c-2.3-8-7.5-16.3-14.2-18.5c-6.7-2.2-10.1,2.2-9.1,6.9
					c0.9,4,5.6,7.8,9.2,11.6c3.5,3.8,9.9,12.8,11.1,21l3.8,0.8L58.4,250.7z"/>
			</g>
			<g id="XMLID_1233_" class="st6">
				<path id="XMLID_1234_" d="M58.4,250.7c0,0,0.3-7.3-2-15.2c-2.3-8-7.5-16.3-14.2-18.5c-6.7-2.2-10.1,2.2-9.1,6.9
					c0.9,4,5.6,7.8,9.2,11.6c3.5,3.8,9.9,12.8,11.1,21l3.8,0.8L58.4,250.7z"/>
			</g>
			<g id="XMLID_1231_">
				<path id="XMLID_1232_" class="st5" d="M55.4,254.1c-0.2,0-0.4-0.2-0.4-0.5c1.3-20.1-17.2-33.3-17.3-33.5
					c-0.2-0.1-0.2-0.4-0.1-0.6c0.1-0.2,0.4-0.2,0.6-0.1c0.2,0.1,19.1,13.6,17.7,34.2C55.9,253.9,55.7,254.1,55.4,254.1
					C55.4,254.1,55.4,254.1,55.4,254.1z"/>
			</g>
		</g>
		<g id="XMLID_1228_">
			<path id="XMLID_1229_" class="st3" d="M53.9,276.7c-1.8,0.7-3.9,0.6-5.7,0c-1.4-0.5-2.8-1.4-3.9-2.4c-1.1-1.1-1.9-2.4-2.6-3.8
				c-0.5-0.9-0.9-1.9-1.6-2.7c-1.4-1.6-3.8-1.8-5.8-2.5c-2.5-0.8-4.7-2.9-5.1-5.5c-0.5-2.6,0.1-5.6,2.6-7c-0.9-0.7-0.9-0.7-1.9-1.5
				c-0.8-0.7-1.7-1.3-2.3-2.2c-0.7-0.9-1.1-1.9-1-3c0.1-1.6,1.5-2.9,3-3.4c1.5-0.5,3.2-0.3,4.7,0c1.6,0.3,3.1,0.9,4.5,1.6
				c0.4,0.2,0.8,0.4,1.3,0.4c0.6,0,1.1-0.3,1.7-0.6c3.6-1.9,9.1-1.2,10.5,3.2c0.2,0.6,0.3,1.3,0.5,2c0.8,2.4,3.9,2,5.7,3.3
				c1.2,0.8,0.8,3.1,0.9,4.5c0.2,2.5,0.2,4.3-0.5,6.6c-0.3,0.9-0.8,1.7-1.1,2.5c-0.4,1.2-0.3,2.7-0.4,4c-0.3,2.2-0.8,4.9-2.9,6
				C54.4,276.5,54.1,276.6,53.9,276.7z"/>
		</g>
		<path id="XMLID_1227_" class="st5" d="M56.4,271.8c-1.2-5.1-3.8-9.5-6.9-13c0-0.1-0.1-0.2-0.2-0.2c-1-1.1-2-2.2-3-3.1
			c-0.3-4.8,2-8.7,2-8.7c0.1-0.2,0-0.4-0.1-0.5c-0.2-0.1-0.4,0-0.5,0.1c-0.1,0.2-2.2,3.8-2.1,8.4c-6.9-6.2-14.4-9.2-14.5-9.2
			c-0.2-0.1-0.4,0-0.5,0.2c-0.1,0.2,0,0.4,0.2,0.5c0.1,0.1,9.7,3.9,17.1,11.9c-4.9-1.4-11.1,0.4-11.4,0.5c-0.2,0.1-0.3,0.2-0.2,0.4
			c0,0.1,0.2,0.2,0.3,0.2c0,0,0.1,0,0.1,0c0.1,0,7.4-2.1,12.2-0.1c3,3.5,5.6,7.8,6.8,12.8c0,0.1,0.2,0.3,0.3,0.3c0,0,0.1,0,0.1,0
			C56.3,272.2,56.4,272,56.4,271.8z"/>
	</g>
	<g id="Drafting_Table">
		<g>
			<g>
				<polygon class="st18" points="275.6,165.1 275.6,234.5 278.2,233 278.2,163.6 				"/>
				<polygon class="st2" points="275.6,234.5 273,233 273,163.6 275.6,165.1 				"/>
			</g>
			<g>
				<polygon class="st2" points="129.3,245.9 54.9,202.9 54.9,207.2 129.3,250.2 278.2,164.2 278.1,160 				"/>
				<polygon class="st18" points="278.1,160 278.2,164.2 129.3,250.2 129.3,245.9 				"/>
				<path class="st12" d="M203.8,117L54.9,202.9l74.4,43L278.1,160L203.8,117z M129.3,241.6l-67-38.7l141.4-81.6l67,38.7
					L129.3,241.6z"/>
				<polygon class="st18" points="62.3,202.9 203.8,121.3 270.7,159.9 267,162.1 203.7,125.6 66.1,205 				"/>
				<polygon class="st2" points="73.5,209.3 77.2,151.3 73.5,149.2 69.8,207.2 				"/>
			</g>
			<g>
				<polygon class="st3" points="278.1,155.7 218.6,61.1 69.8,146.9 69.8,151.2 129.3,245.9 278.1,160 				"/>
				<polygon class="st15" points="278.1,155.7 218.6,61.1 69.8,146.9 69.8,151.2 129.3,245.9 278.1,160 				"/>
				<polygon class="st17" points="129.3,241.6 129.3,245.9 278.1,160 278.1,155.7 				"/>
				<polygon class="st3" points="129.3,241.6 69.8,146.9 218.6,61.1 278.1,155.7 				"/>
				<polygon class="st28" points="129.3,241.6 69.8,146.9 218.6,61.1 278.1,155.7 				"/>
			</g>
			<g>
				<polygon class="st18" points="129.3,249.5 129.3,318.9 131.9,317.4 131.9,248 				"/>
				<polygon class="st2" points="129.3,318.9 126.7,317.4 126.7,248 129.3,249.5 				"/>
			</g>
			<g>
				<polygon class="st18" points="57.5,208 57.5,277.4 60.1,275.9 60.1,206.5 				"/>
				<polygon class="st2" points="57.5,277.4 54.9,275.9 54.9,206.5 57.5,208 				"/>
			</g>
		</g>
		<g>
			<polygon class="st14" points="82,152 214.9,75.3 264.7,154.4 131.7,231.1 			"/>
			<polygon class="st2" points="82.6,150.1 215.6,73.5 265.3,152.5 132.4,229.2 			"/>
			<g>
				<g>
					<g>
						<g>
							<path class="st29" d="M116.1,181.9l-2-2.8c-0.1-0.2-0.4-0.3-0.6-0.1l-0.2,0.1c-0.2,0.1-0.3,0.4-0.1,0.6l2,2.8
								c0.1,0.2,0.4,0.3,0.6,0.1l0.2-0.1C116.2,182.4,116.2,182.1,116.1,181.9z"/>
						</g>
						<g>
							<path class="st29" d="M118.1,180.7l-2-2.8c-0.1-0.2-0.4-0.3-0.6-0.1l-0.2,0.1c-0.2,0.1-0.3,0.4-0.1,0.6l2,2.8
								c0.1,0.2,0.4,0.3,0.6,0.1l0.2-0.1C118.2,181.2,118.2,180.9,118.1,180.7z"/>
						</g>
					</g>
					<g>
						<g>
							<g>
								<path class="st29" d="M111.2,183l1.5,0c0.2,0,0.3-0.2,0.2-0.4l-0.8-1.2c-0.1-0.1-0.3-0.1-0.4,0l-0.7,1.2
									C110.9,182.8,111,183,111.2,183z"/>
							</g>
							<g>
								<path class="st29" d="M111.5,183.7l-1.1-1.6c-0.1-0.1-0.2-0.1-0.4-0.1l-0.1,0.1c-0.1,0.1-0.2,0.2-0.1,0.3l1.1,1.6
									c0.1,0.1,0.2,0.1,0.4,0.1l0.1-0.1C111.6,183.9,111.6,183.8,111.5,183.7z"/>
							</g>
						</g>
						<g>
							<g>
								<path class="st29" d="M120.3,177.7l-0.7,1.2c-0.1,0.1-0.3,0.2-0.4,0l-0.8-1.2c-0.1-0.1,0-0.4,0.2-0.4l1.5,0
									C120.3,177.4,120.4,177.6,120.3,177.7z"/>
							</g>
							<g>
								<path class="st29" d="M120.9,178.3l-1.1-1.6c-0.1-0.1,0-0.3,0.1-0.3l0.1-0.1c0.1-0.1,0.3,0,0.4,0.1l1.1,1.6
									c0.1,0.1,0,0.3-0.1,0.3l-0.1,0.1C121.1,178.4,120.9,178.4,120.9,178.3z"/>
							</g>
						</g>
					</g>
				</g>
				<g>
					<g>
						<path class="st29" d="M118.2,190.9c-0.1,0-0.2-0.1-0.3-0.2c-0.2-0.6,0.1-1.6,0.6-2.4c0.5-0.7,1.7-2,4-2.2
							c0.1,0,0.3,0.1,0.3,0.3c0,0.2-0.1,0.3-0.3,0.3c-2.1,0.2-3.1,1.3-3.6,1.9c-0.5,0.7-0.7,1.5-0.6,1.9
							C118.5,190.7,118.5,190.9,118.2,190.9C118.3,190.9,118.3,190.9,118.2,190.9z"/>
					</g>
					<g>
						<path class="st29" d="M124.4,186.1l-1.6-0.6c-0.2-0.1-0.4,0.1-0.3,0.3l0.3,1.6c0,0.2,0.3,0.3,0.4,0.2l1.3-1
							C124.6,186.4,124.6,186.1,124.4,186.1z"/>
					</g>
					<g>
						<path class="st29" d="M121.5,192.5c-0.1,0-0.3-0.1-0.3-0.3c0-0.2,0.1-0.3,0.3-0.3c2.1-0.2,3.1-1.3,3.6-1.9
							c0.5-0.7,0.7-1.5,0.6-1.9c0-0.1,0-0.3,0.2-0.3c0.1,0,0.3,0,0.3,0.2c0.2,0.6-0.1,1.6-0.6,2.4
							C125,191.1,123.8,192.3,121.5,192.5C121.5,192.5,121.5,192.5,121.5,192.5z"/>
					</g>
					<g>
						<path class="st29" d="M119.8,192.7l1.6,0.6c0.2,0.1,0.4-0.1,0.3-0.3l-0.3-1.6c0-0.2-0.3-0.3-0.4-0.2l-1.3,1
							C119.5,192.3,119.6,192.6,119.8,192.7z"/>
					</g>
				</g>
				<g>
					<g>
						<path class="st29" d="M126.2,203.4c-0.1,0-0.2,0-0.2-0.1c-0.1-0.1,0-0.3,0.1-0.3c0.9-0.5,1.5-1.7,1.8-3.6
							c0.2-1.2,0.7-2.8,1.9-3.6c0.1-0.1,0.3,0,0.3,0.1c0.1,0.1,0,0.3-0.1,0.3c-1.1,0.6-1.5,2.1-1.7,3.2c-0.3,2-1,3.3-2,3.9
							C126.3,203.4,126.3,203.4,126.2,203.4z"/>
					</g>
					<g>
						<path class="st29" d="M131.4,195.5l-0.7,1.2c-0.1,0.2-0.3,0.2-0.4,0l-0.8-1.2c-0.1-0.2,0-0.4,0.2-0.4l1.5,0
							C131.4,195.2,131.5,195.3,131.4,195.5z"/>
					</g>
					<g>
						<path class="st29" d="M130.4,200.1c-0.8,0-1.7-0.2-2.4-0.4c-2-0.6-3.4-0.6-4.3,0c-0.1,0.1-0.3,0-0.3-0.1
							c-0.1-0.1,0-0.3,0.1-0.3c1.1-0.6,2.6-0.6,4.7,0c1,0.3,2.8,0.6,3.9,0c0.1-0.1,0.3,0,0.3,0.1c0.1,0.1,0,0.3-0.1,0.3
							C131.8,199.9,131.1,200.1,130.4,200.1z"/>
					</g>
					<g>
						<path class="st29" d="M133.5,198.4l-1.5,0c-0.2,0-0.3,0.2-0.2,0.4l0.8,1.2c0.1,0.1,0.3,0.1,0.4,0l0.7-1.2
							C133.8,198.6,133.7,198.4,133.5,198.4z"/>
					</g>
				</g>
				<g>
					<g>
						<path class="st29" d="M138.5,207.3l-4.3,2.5c-0.2,0.1-0.5,0.1-0.6-0.1l-0.1-0.1c-0.1-0.2-0.1-0.4,0.1-0.6l4.3-2.5
							c0.2-0.1,0.5-0.1,0.6,0.1l0.1,0.1C138.8,207,138.7,207.2,138.5,207.3z"/>
					</g>
					<g>
						<path class="st29" d="M139.5,208.8l-4.3,2.5c-0.2,0.1-0.5,0.1-0.6-0.1l-0.1-0.1c-0.1-0.2-0.1-0.4,0.1-0.6l4.3-2.5
							c0.2-0.1,0.5-0.1,0.6,0.1l0.1,0.1C139.7,208.4,139.7,208.6,139.5,208.8z"/>
					</g>
					<g>
						<path class="st29" d="M140.5,210.2l-4.3,2.5c-0.2,0.1-0.5,0.1-0.6-0.1l-0.1-0.1c-0.1-0.2-0.1-0.4,0.1-0.6l4.3-2.5
							c0.2-0.1,0.5-0.1,0.6,0.1l0.1,0.1C140.7,209.8,140.7,210,140.5,210.2z"/>
					</g>
					<g>
						<g>
							<path class="st29" d="M130.6,210.1c-0.1,0-0.2,0-0.2-0.1c-0.1-0.1,0-0.3,0.1-0.4l2.6-1.5c0.1-0.1,0.3,0,0.4,0.1
								c0.1,0.1,0,0.3-0.1,0.4l-2.6,1.5C130.6,210.1,130.6,210.1,130.6,210.1z"/>
						</g>
						<g>
							<path class="st29" d="M132.8,210.6c-0.1,0-0.2,0-0.2-0.1l-1.8-2.5c-0.1-0.1-0.1-0.3,0.1-0.4c0.1-0.1,0.3-0.1,0.4,0.1l1.8,2.5
								c0.1,0.1,0.1,0.3-0.1,0.4C132.9,210.6,132.8,210.6,132.8,210.6z"/>
						</g>
					</g>
				</g>
				<g>
					<g id="Mobile_2_">
						<g id="XMLID_1040_">
							<path class="st29" d="M178,178.3c-0.3,0-0.6-0.1-0.7-0.4l-23.4-33.4c-0.1-0.2-0.2-0.4-0.1-0.6c0.1-0.2,0.2-0.5,0.4-0.6
								l19.5-11.3c0.4-0.3,1-0.2,1.3,0.2l23.5,33.6c0.1,0.2,0.1,0.3,0.1,0.4c-0.1,0.3-0.3,0.5-0.5,0.6l-19.5,11.3
								C178.4,178.2,178.2,178.3,178,178.3z M174.3,132.4c-0.1,0-0.2,0-0.3,0.1l-19.5,11.3c-0.1,0.1-0.2,0.2-0.2,0.3
								c0,0.1,0,0.2,0,0.2l23.4,33.4c0.1,0.2,0.4,0.2,0.7,0.1l19.5-11.3c0.3-0.2,0.3-0.3,0.3-0.3c0,0,0,0,0-0.1l-23.5-33.6
								C174.6,132.4,174.4,132.4,174.3,132.4z"/>
						</g>
					</g>
					<g>
						<g>
							<path class="st29" d="M156.8,144.5c0.1,0.2,0.1,0.4-0.1,0.5c-0.2,0.1-0.5,0.1-0.6-0.1c-0.1-0.2-0.1-0.4,0.1-0.5
								C156.5,144.3,156.7,144.3,156.8,144.5z"/>
						</g>
						<g>
							<path class="st29" d="M158.1,143.8c0.1,0.2,0.1,0.4-0.1,0.5c-0.2,0.1-0.5,0.1-0.6-0.1c-0.1-0.2-0.1-0.4,0.1-0.5
								C157.7,143.5,158,143.6,158.1,143.8z"/>
						</g>
						<g>
							<path class="st29" d="M159.3,143.1c0.1,0.2,0.1,0.4-0.1,0.5c-0.2,0.1-0.5,0.1-0.6-0.1c-0.1-0.2-0.1-0.4,0.1-0.5
								C159,142.8,159.2,142.9,159.3,143.1z"/>
						</g>
					</g>
					<g>
						<g>
							<path class="st29" d="M174.8,134.8C174.8,134.8,174.8,134.8,174.8,134.8l-1.5-0.3c-0.1,0-0.1-0.1-0.1-0.1
								c0-0.1,0.1-0.1,0.1-0.1l1.5,0.3c0.1,0,0.1,0.1,0.1,0.1C174.9,134.8,174.9,134.8,174.8,134.8z"/>
						</g>
						<g>
							<path class="st29" d="M173.9,135.3C173.9,135.3,173.9,135.3,173.9,135.3c-0.1,0-0.1-0.1-0.1-0.1l0.3-1.4
								c0-0.1,0.1-0.1,0.1-0.1c0.1,0,0.1,0.1,0.1,0.1l-0.3,1.4C174,135.3,174,135.3,173.9,135.3z"/>
						</g>
					</g>
					<g>
						<path class="st29" d="M165.7,147.8l7.7-4.5c0.2-0.1,0.3-0.4,0.1-0.6l-0.1-0.2c-0.1-0.2-0.4-0.3-0.6-0.1l-7.7,4.5
							c-0.2,0.1-0.3,0.4-0.1,0.6l0.1,0.2C165.2,147.9,165.4,147.9,165.7,147.8z"/>
					</g>
					<g>
						<path class="st29" d="M167.1,148.8l6.6-3.8c0.1,0,0.1-0.1,0-0.2l0-0.1c-0.1-0.1-0.2-0.1-0.2-0.1l-6.6,3.8
							c-0.1,0-0.1,0.1,0,0.2l0,0.1C166.9,148.8,167.1,148.8,167.1,148.8z"/>
					</g>
					<g>
						<g>
							<path class="st29" d="M181.4,152.7c1.1,2.5,0.2,5.3-2.3,6.7c-2.2,1.2-4.9,1-6.9-0.4l0.8-5.4l6.3,2.1c0.5,0.2,0.6,0,0.2-0.3
								l-1.5-1l0.6-2.4L181.4,152.7z"/>
						</g>
						<g>
							<g>
								<path class="st29" d="M172.4,149.8c-2.8,1.6-3.5,5.1-1.7,7.7c0.2,0.3,0.5,0.6,0.7,0.9l0.8-5.5c0-0.1,0.1-0.1,0.1-0.2
									c0,0,0,0,0,0c0.1,0,0.2,0,0.3,0l4.4,1.5l0.7-2.8c0-0.1,0.2-0.2,0.4-0.2l2.7,0.6l0,0C179,149,175.2,148.2,172.4,149.8z
									 M175.8,151.4c-0.4,0.2-0.9,0.1-1.1-0.3c-0.3-0.4-0.1-0.8,0.2-1c0.4-0.2,0.9-0.1,1.1,0.3
									C176.3,150.7,176.2,151.2,175.8,151.4z"/>
							</g>
						</g>
					</g>
					<g>
						<g>
							<g>
								<path class="st29" d="M182.4,165.2l-2-2.8c-0.1-0.2-0.4-0.3-0.6-0.1l-0.2,0.1c-0.2,0.1-0.3,0.4-0.1,0.6l2,2.8
									c0.1,0.2,0.4,0.3,0.6,0.1l0.2-0.1C182.5,165.6,182.6,165.4,182.4,165.2z"/>
							</g>
							<g>
								<path class="st29" d="M184.4,164l-2-2.8c-0.1-0.2-0.4-0.3-0.6-0.1l-0.2,0.1c-0.2,0.1-0.3,0.4-0.1,0.6l2,2.8
									c0.1,0.2,0.4,0.3,0.6,0.1l0.2-0.1C184.5,164.5,184.6,164.2,184.4,164z"/>
							</g>
						</g>
						<g>
							<g>
								<g>
									<path class="st29" d="M177.5,166.2l1.5,0c0.2,0,0.3-0.2,0.2-0.4l-0.8-1.2c-0.1-0.1-0.3-0.1-0.4,0l-0.7,1.2
										C177.2,166.1,177.3,166.2,177.5,166.2z"/>
								</g>
								<g>
									<path class="st29" d="M177.9,166.9l-1.1-1.6c-0.1-0.1-0.2-0.1-0.4-0.1l-0.1,0.1c-0.1,0.1-0.2,0.2-0.1,0.3l1.1,1.6
										c0.1,0.1,0.2,0.1,0.4,0.1l0.1-0.1C177.9,167.2,178,167,177.9,166.9z"/>
								</g>
							</g>
							<g>
								<g>
									<path class="st29" d="M186.6,161l-0.7,1.2c-0.1,0.1-0.3,0.2-0.4,0l-0.8-1.2c-0.1-0.1,0-0.4,0.2-0.4l1.5,0
										C186.6,160.6,186.7,160.8,186.6,161z"/>
								</g>
								<g>
									<path class="st29" d="M187.2,161.5l-1.1-1.6c-0.1-0.1,0-0.3,0.1-0.3l0.1-0.1c0.1-0.1,0.3,0,0.4,0.1l1.1,1.6
										c0.1,0.1,0,0.3-0.1,0.3l-0.1,0.1C187.4,161.7,187.3,161.7,187.2,161.5z"/>
								</g>
							</g>
						</g>
					</g>
					<g>
						<g>
							<path class="st29" d="M178,173.6c0,0-0.1,0-0.1-0.1c-0.1-0.2,0-0.6,0.3-0.9c0.2-0.3,0.7-0.8,1.6-0.9c0.1,0,0.1,0,0.1,0.1
								c0,0.1,0,0.1-0.1,0.1c-0.8,0.1-1.3,0.5-1.4,0.8c-0.2,0.3-0.3,0.6-0.2,0.8C178.1,173.5,178,173.6,178,173.6
								C178,173.6,178,173.6,178,173.6z"/>
						</g>
						<g>
							<path class="st29" d="M180.4,171.6l-0.6-0.2c-0.1,0-0.2,0-0.1,0.1l0.1,0.6c0,0.1,0.1,0.1,0.2,0.1l0.5-0.4
								C180.5,171.8,180.5,171.7,180.4,171.6z"/>
						</g>
						<g>
							<path class="st29" d="M179.3,174.2c-0.1,0-0.1,0-0.1-0.1c0-0.1,0-0.1,0.1-0.1c0.8-0.1,1.3-0.5,1.4-0.8
								c0.2-0.3,0.3-0.6,0.2-0.8c0-0.1,0-0.1,0.1-0.1c0.1,0,0.1,0,0.1,0.1c0.1,0.2,0,0.6-0.3,0.9
								C180.7,173.6,180.2,174.1,179.3,174.2C179.3,174.2,179.3,174.2,179.3,174.2z"/>
						</g>
						<g>
							<path class="st29" d="M178.6,174.3l0.6,0.2c0.1,0,0.2,0,0.1-0.1l-0.1-0.6c0-0.1-0.1-0.1-0.2-0.1l-0.5,0.4
								C178.5,174.1,178.5,174.2,178.6,174.3z"/>
						</g>
					</g>
					<g>
						<g>
							<path class="st29" d="M184.9,171.1C184.8,171.1,184.8,171.1,184.9,171.1c-0.1-0.1-0.1-0.2-0.1-0.2c0.4-0.2,0.7-0.7,0.8-1.6
								c0.1-0.5,0.3-1.2,0.9-1.6c0,0,0.1,0,0.1,0c0,0.1,0,0.1,0,0.2c-0.5,0.3-0.7,0.9-0.8,1.4C185.8,169.7,185.6,170.7,184.9,171.1
								C184.9,171.1,184.9,171.1,184.9,171.1z"/>
						</g>
						<g>
							<path class="st29" d="M187.2,167.6l-0.3,0.5c0,0.1-0.1,0.1-0.2,0l-0.4-0.5c0-0.1,0-0.2,0.1-0.2l0.7,0
								C187.2,167.4,187.2,167.5,187.2,167.6z"/>
						</g>
						<g>
							<path class="st29" d="M186.7,169.6c-0.4,0-0.7-0.1-1-0.2c-0.9-0.2-1.5-0.3-1.9,0c-0.1,0-0.1,0-0.1,0c0-0.1,0-0.1,0-0.2
								c0.5-0.3,1.1-0.3,2.1,0c0.4,0.1,1.2,0.3,1.7,0c0,0,0.1,0,0.1,0c0,0.1,0,0.1,0,0.2C187.3,169.6,187,169.6,186.7,169.6z"/>
						</g>
						<g>
							<path class="st29" d="M188.1,168.9l-0.7,0c-0.1,0-0.1,0.1-0.1,0.2l0.4,0.5c0,0.1,0.1,0.1,0.2,0l0.3-0.5
								C188.2,169,188.2,168.9,188.1,168.9z"/>
						</g>
					</g>
					<g>
						<g>
							<path class="st29" d="M193.8,164.7l-1.8,1c-0.1,0-0.2,0-0.2-0.1l0,0c-0.1-0.1,0-0.2,0.1-0.2l1.8-1c0.1,0,0.2,0,0.2,0.1l0,0
								C193.9,164.5,193.9,164.6,193.8,164.7z"/>
						</g>
						<g>
							<path class="st29" d="M194.2,165.2l-1.8,1c-0.1,0-0.2,0-0.2-0.1l0,0c-0.1-0.1,0-0.2,0.1-0.2l1.8-1c0.1,0,0.2,0,0.2,0.1l0,0
								C194.3,165.1,194.3,165.2,194.2,165.2z"/>
						</g>
						<g>
							<path class="st29" d="M194.6,165.8l-1.8,1c-0.1,0-0.2,0-0.2-0.1l0,0c-0.1-0.1,0-0.2,0.1-0.2l1.8-1c0.1,0,0.2,0,0.2,0.1l0,0
								C194.7,165.7,194.7,165.8,194.6,165.8z"/>
						</g>
						<g>
							<g>
								<path class="st29" d="M190.5,165.8C190.5,165.8,190.5,165.8,190.5,165.8c-0.1-0.1-0.1-0.2-0.1-0.2l1.1-0.6c0,0,0.1,0,0.1,0
									c0,0.1,0,0.1,0,0.2L190.5,165.8C190.6,165.8,190.5,165.8,190.5,165.8z"/>
							</g>
							<g>
								<path class="st29" d="M191.4,166C191.4,166,191.4,166,191.4,166l-0.8-1.1c0,0,0-0.1,0-0.2c0.1,0,0.1,0,0.2,0l0.7,1
									C191.6,165.9,191.5,165.9,191.4,166C191.5,166,191.5,166,191.4,166z"/>
							</g>
						</g>
					</g>
					<g id="XMLID_560_">
						<path class="st29" d="M183.2,155.1c-0.1-0.2-0.1-0.3-0.1-0.5l0,0l0,0c0-0.2,0.1-0.4,0.3-0.5c0.3-0.2,0.7-0.1,0.9,0.1
							c0,0,0.1,0,0.1,0c-0.1-0.3,0-0.7,0.2-0.9c0.2-0.1,0.4-0.1,0.6-0.1l0,0l0,0c0.2,0,0.3,0.2,0.4,0.3c0.3,0.5,0.1,1-0.1,1.5
							l-0.2,0.5l-0.6-0.1C184.2,155.6,183.6,155.6,183.2,155.1z"/>
					</g>
				</g>
				<g id="XMLID_1062_">
					<path class="st29" d="M227.3,116.9c-0.3-0.4-0.4-0.8-0.3-1.3l0,0l0,0c0.1-0.5,0.4-1,0.9-1.2c0.7-0.4,1.8-0.1,2.5,0.4
						c0.1,0.1,0.2,0,0.2,0c-0.3-0.8-0.1-1.8,0.6-2.3c0.5-0.3,1.1-0.3,1.6-0.2l0,0l0,0c0.5,0.1,0.9,0.4,1.1,0.8
						c0.9,1.2,0.2,2.6-0.3,4l-0.6,1.4l-1.6-0.1C229.8,118.1,228.1,118.1,227.3,116.9z"/>
				</g>
				<g>
					<g id="Mobile_1_">
						<g id="XMLID_1027_">
							<path class="st29" d="M216.4,164.9c-0.3,0-0.6-0.1-0.7-0.4l-23.4-33.4c-0.1-0.2-0.2-0.4-0.1-0.6c0.1-0.2,0.2-0.5,0.4-0.6
								l19.5-11.3c0.4-0.3,1-0.2,1.3,0.2l23.5,33.6c0.1,0.2,0.1,0.3,0.1,0.4c-0.1,0.3-0.3,0.5-0.5,0.6L217,164.8
								C216.8,164.9,216.6,164.9,216.4,164.9z M212.7,119c-0.1,0-0.2,0-0.3,0.1l-19.5,11.3c-0.1,0.1-0.2,0.2-0.2,0.3
								c0,0.1,0,0.2,0,0.2l23.4,33.4c0.1,0.2,0.4,0.2,0.7,0.1l19.5-11.3c0.3-0.2,0.3-0.3,0.3-0.3c0,0,0,0,0-0.1l-23.5-33.6
								C213,119.1,212.8,119,212.7,119z"/>
						</g>
					</g>
					<g>
						<g>
							<path class="st29" d="M213.3,121.4C213.3,121.4,213.2,121.4,213.3,121.4l-1.5-0.3c-0.1,0-0.1-0.1-0.1-0.1
								c0-0.1,0.1-0.1,0.1-0.1l1.5,0.3c0.1,0,0.1,0.1,0.1,0.1C213.4,121.4,213.3,121.4,213.3,121.4z"/>
						</g>
						<g>
							<path class="st29" d="M212.4,122C212.4,122,212.3,122,212.4,122c-0.1,0-0.1-0.1-0.1-0.1l0.3-1.4c0-0.1,0.1-0.1,0.1-0.1
								c0.1,0,0.1,0.1,0.1,0.1l-0.3,1.4C212.5,121.9,212.4,122,212.4,122z"/>
						</g>
					</g>
					<g>
						<path class="st29" d="M198.6,134.3l7.7-4.5c0.2-0.1,0.3-0.4,0.1-0.6l-0.1-0.2c-0.1-0.2-0.4-0.3-0.6-0.1l-7.7,4.5
							c-0.2,0.1-0.3,0.4-0.1,0.6l0.1,0.2C198.1,134.3,198.4,134.4,198.6,134.3z"/>
					</g>
					<g>
						<g>
							<path class="st29" d="M201.2,138.1l7.7-4.5c0.2-0.1,0.3-0.4,0.1-0.6l-0.1-0.2c-0.1-0.2-0.4-0.3-0.6-0.1l-7.7,4.5
								c-0.2,0.1-0.3,0.4-0.1,0.6l0.1,0.2C200.7,138.1,201,138.2,201.2,138.1z"/>
						</g>
						<g>
							<path class="st29" d="M215.4,129.8l1.1-0.7c0.2-0.1,0.3-0.4,0.1-0.6l-0.1-0.2c-0.1-0.2-0.4-0.3-0.6-0.1l-1.1,0.7
								c-0.2,0.1-0.3,0.4-0.1,0.6l0.1,0.2C214.9,129.9,215.2,130,215.4,129.8z"/>
						</g>
						<g>
							<path class="st29" d="M201.9,139.5l6.6-3.8c0.1,0,0.1-0.1,0-0.2l0-0.1c-0.1-0.1-0.2-0.1-0.2-0.1l-6.6,3.8
								c-0.1,0-0.1,0.1,0,0.2l0,0.1C201.7,139.5,201.8,139.5,201.9,139.5z"/>
						</g>
					</g>
					<g>
						<g>
							<path class="st29" d="M204.2,142.4l7.7-4.5c0.2-0.1,0.3-0.4,0.1-0.6l-0.1-0.2c-0.1-0.2-0.4-0.3-0.6-0.1l-7.7,4.5
								c-0.2,0.1-0.3,0.4-0.1,0.6l0.1,0.2C203.7,142.4,204,142.5,204.2,142.4z"/>
						</g>
						<g>
							<path class="st29" d="M218.4,134.2l1.1-0.7c0.2-0.1,0.3-0.4,0.1-0.6l-0.1-0.2c-0.1-0.2-0.4-0.3-0.6-0.1l-1.1,0.7
								c-0.2,0.1-0.3,0.4-0.1,0.6l0.1,0.2C217.9,134.2,218.2,134.3,218.4,134.2z"/>
						</g>
						<g>
							<path class="st29" d="M204.9,143.8l6.6-3.8c0.1,0,0.1-0.1,0-0.2l0-0.1c-0.1-0.1-0.2-0.1-0.2-0.1l-6.6,3.8
								c-0.1,0-0.1,0.1,0,0.2l0,0.1C204.7,143.8,204.8,143.8,204.9,143.8z"/>
						</g>
					</g>
					<g>
						<g>
							<path class="st29" d="M207.2,146.7l7.7-4.5c0.2-0.1,0.3-0.4,0.1-0.6l-0.1-0.2c-0.1-0.2-0.4-0.3-0.6-0.1l-7.7,4.5
								c-0.2,0.1-0.3,0.4-0.1,0.6l0.1,0.2C206.7,146.7,207,146.8,207.2,146.7z"/>
						</g>
						<g>
							<path class="st29" d="M221.4,138.5l1.1-0.7c0.2-0.1,0.3-0.4,0.1-0.6l-0.1-0.2c-0.1-0.2-0.4-0.3-0.6-0.1l-1.1,0.7
								c-0.2,0.1-0.3,0.4-0.1,0.6l0.1,0.2C221,138.5,221.2,138.6,221.4,138.5z"/>
						</g>
						<g>
							<path class="st29" d="M207.9,148.1l6.6-3.8c0.1,0,0.1-0.1,0-0.2l0-0.1c-0.1-0.1-0.2-0.1-0.2-0.1l-6.6,3.8
								c-0.1,0-0.1,0.1,0,0.2l0,0.1C207.7,148.1,207.8,148.1,207.9,148.1z"/>
						</g>
					</g>
					<g>
						<g>
							<path class="st29" d="M210.2,151l7.7-4.5c0.2-0.1,0.3-0.4,0.1-0.6l-0.1-0.2c-0.1-0.2-0.4-0.3-0.6-0.1l-7.7,4.5
								c-0.2,0.1-0.3,0.4-0.1,0.6l0.1,0.2C209.7,151,210,151.1,210.2,151z"/>
						</g>
						<g>
							<path class="st29" d="M224.5,142.8l1.1-0.7c0.2-0.1,0.3-0.4,0.1-0.6l-0.1-0.2c-0.1-0.2-0.4-0.3-0.6-0.1l-1.1,0.7
								c-0.2,0.1-0.3,0.4-0.1,0.6l0.1,0.2C224,142.8,224.3,142.9,224.5,142.8z"/>
						</g>
						<g>
							<path class="st29" d="M210.9,152.4l6.6-3.8c0.1,0,0.1-0.1,0-0.2l0-0.1c-0.1-0.1-0.2-0.1-0.2-0.1l-6.6,3.8
								c-0.1,0-0.1,0.1,0,0.2l0,0.1C210.7,152.4,210.8,152.4,210.9,152.4z"/>
						</g>
					</g>
					<g>
						<g>
							<path class="st29" d="M213.3,155.3l7.7-4.5c0.2-0.1,0.3-0.4,0.1-0.6l-0.1-0.2c-0.1-0.2-0.4-0.3-0.6-0.1l-7.7,4.5
								c-0.2,0.1-0.3,0.4-0.1,0.6l0.1,0.2C212.8,155.3,213,155.4,213.3,155.3z"/>
						</g>
						<g>
							<path class="st29" d="M227.5,147.1l1.1-0.7c0.2-0.1,0.3-0.4,0.1-0.6l-0.1-0.2c-0.1-0.2-0.4-0.3-0.6-0.1l-1.1,0.7
								c-0.2,0.1-0.3,0.4-0.1,0.6l0.1,0.2C227,147.1,227.3,147.2,227.5,147.1z"/>
						</g>
						<g>
							<path class="st29" d="M213.9,156.7l6.6-3.8c0.1,0,0.1-0.1,0-0.2l0-0.1c-0.1-0.1-0.2-0.1-0.2-0.1l-6.6,3.8
								c-0.1,0-0.1,0.1,0,0.2l0,0.1C213.7,156.7,213.8,156.7,213.9,156.7z"/>
						</g>
					</g>
					<g>
						<g>
							<path class="st29" d="M216.3,159.6l7.7-4.5c0.2-0.1,0.3-0.4,0.1-0.6l-0.1-0.2c-0.1-0.2-0.4-0.3-0.6-0.1l-7.7,4.5
								c-0.2,0.1-0.3,0.4-0.1,0.6l0.1,0.2C215.8,159.6,216.1,159.7,216.3,159.6z"/>
						</g>
						<g>
							<path class="st29" d="M230.5,151.4l1.1-0.7c0.2-0.1,0.3-0.4,0.1-0.6l-0.1-0.2c-0.1-0.2-0.4-0.3-0.6-0.1l-1.1,0.7
								c-0.2,0.1-0.3,0.4-0.1,0.6l0.1,0.2C230,151.4,230.3,151.5,230.5,151.4z"/>
						</g>
						<g>
							<path class="st29" d="M216.9,161l6.6-3.8c0.1,0,0.1-0.1,0-0.2l0-0.1c-0.1-0.1-0.2-0.1-0.2-0.1l-6.6,3.8c-0.1,0-0.1,0.1,0,0.2
								l0,0.1C216.7,161,216.9,161,216.9,161z"/>
						</g>
					</g>
					<g>
						<g>
							<path class="st29" d="M213.1,124.6l-1.8,1c-0.1,0-0.2,0-0.2-0.1l0,0c-0.1-0.1,0-0.2,0.1-0.2l1.8-1c0.1,0,0.2,0,0.2,0.1l0,0
								C213.2,124.5,213.2,124.6,213.1,124.6z"/>
						</g>
						<g>
							<path class="st29" d="M213.5,125.2l-1.8,1c-0.1,0-0.2,0-0.2-0.1l0,0c-0.1-0.1,0-0.2,0.1-0.2l1.8-1c0.1,0,0.2,0,0.2,0.1l0,0
								C213.7,125,213.6,125.1,213.5,125.2z"/>
						</g>
						<g>
							<path class="st29" d="M214,125.8l-1.8,1c-0.1,0-0.2,0-0.2-0.1l0,0c-0.1-0.1,0-0.2,0.1-0.2l1.8-1c0.1,0,0.2,0,0.2,0.1l0,0
								C214.1,125.6,214,125.7,214,125.8z"/>
						</g>
						<g>
							<g>
								<path class="st29" d="M209.9,125.7C209.8,125.7,209.8,125.7,209.9,125.7c-0.1-0.1-0.1-0.2-0.1-0.2l1.1-0.6
									c0.1,0,0.1,0,0.2,0c0,0.1,0,0.1,0,0.1L209.9,125.7C209.9,125.7,209.9,125.7,209.9,125.7z"/>
							</g>
							<g>
								<path class="st29" d="M210.8,125.9C210.7,125.9,210.7,125.9,210.8,125.9l-0.8-1.1c0,0,0-0.1,0-0.2c0.1,0,0.1,0,0.2,0l0.7,1
									C210.9,125.8,210.9,125.9,210.8,125.9C210.8,125.9,210.8,125.9,210.8,125.9z"/>
							</g>
						</g>
					</g>
					<g>
						<g>
							<path class="st29" d="M195,131.2l0.3-0.5c0-0.1,0.1-0.1,0.2,0l0.4,0.5c0,0.1,0,0.2-0.1,0.2l-0.7,0
								C195,131.3,194.9,131.2,195,131.2z"/>
						</g>
						<g>
							<path class="st29" d="M195.4,131.2C195.3,131.2,195.3,131.2,195.4,131.2c-0.1-0.1-0.1-0.2-0.1-0.2l1.1-0.6c0,0,0.1,0,0.1,0
								c0,0.1,0,0.1,0,0.2L195.4,131.2C195.4,131.2,195.4,131.2,195.4,131.2z"/>
						</g>
					</g>
				</g>
				<g>
					<g>
						<path class="st29" d="M223.7,125.1l2.4,1.2c0.3,0.1,0.3,0.6,0,0.7l-2.2,1.3c-0.3,0.2-0.6,0-0.6-0.3l-0.2-2.5
							C223.1,125.2,223.4,125,223.7,125.1z"/>
					</g>
					<g>
						<path class="st29" d="M227.2,131.1c-0.1,0-0.3-0.1-0.4-0.2l-2.9-4.1c-0.1-0.2-0.1-0.5,0.1-0.6c0.2-0.1,0.5-0.1,0.6,0.1
							l2.9,4.1c0.1,0.2,0.1,0.5-0.1,0.6C227.3,131.1,227.2,131.1,227.2,131.1z"/>
					</g>
				</g>
				<g>
					<g>
						<path class="st29" d="M234.3,141.5l-2.4-1.2c-0.3-0.1-0.3-0.6,0-0.7l2.2-1.3c0.3-0.2,0.6,0,0.6,0.3l0.2,2.5
							C234.9,141.4,234.6,141.6,234.3,141.5z"/>
					</g>
					<g>
						<path class="st29" d="M233.7,140.5c-0.1,0-0.3-0.1-0.4-0.2l-2.9-4.1c-0.1-0.2-0.1-0.5,0.1-0.6c0.2-0.1,0.5-0.1,0.6,0.1
							l2.9,4.1c0.1,0.2,0.1,0.5-0.1,0.6C233.9,140.4,233.8,140.5,233.7,140.5z"/>
					</g>
				</g>
				<g>
					<g>
						<g>
							<path class="st29" d="M196.4,160c1.2-0.5,2.1-1.7,2.7-2.8c0.7-1.1,1.2-2.4,1.6-3.6c0.7-2.3,0.6-4.8,0-7.1
								c0-0.2-0.3-0.2-0.3,0c0.3,2.3,0.4,4.6-0.2,6.8c-0.4,1.3-0.9,2.5-1.6,3.7c-0.6,1-1.4,2-2.2,2.9
								C196.3,159.9,196.3,160,196.4,160L196.4,160z"/>
						</g>
					</g>
					<g>
						<g>
							<path class="st29" d="M198.9,149c0.6-0.3,0.9-0.8,1.2-1.3c0.4-0.6,0.5-1.3,0.6-2c-0.1,0-0.3-0.1-0.4-0.1
								c0.1,0.7,0.4,1.4,0.8,2c0.2,0.3,0.4,0.6,0.6,0.9c0.1,0.1,0.2,0.3,0.4,0.4c0.1,0.1,0.3,0.2,0.4,0.2c0.1,0,0.1-0.1,0.1-0.2
								c-0.1-0.3-0.4-0.5-0.6-0.7c-0.2-0.2-0.4-0.5-0.6-0.8c-0.3-0.5-0.6-1.1-0.7-1.7c0-0.2-0.4-0.3-0.4-0.1
								c-0.1,0.7-0.2,1.3-0.5,1.9c-0.3,0.5-0.5,1-0.9,1.4C198.7,148.9,198.8,149.1,198.9,149L198.9,149z"/>
						</g>
					</g>
				</g>
				<g>
					<path class="st29" d="M125.2,163.6l-0.5,0.3l-0.9-1.3c-0.3-0.4-1-0.6-1.4-0.3l-1,0.6c-0.5,0.3-0.6,0.9-0.3,1.3l0.9,1.3
						l-0.5,0.3c-0.1,0.1-0.1,0.2-0.1,0.3l1.5,2.1c0.5,0.7,1.4,0.9,2.1,0.5l1.7-1c0.7-0.4,0.9-1.3,0.4-1.9l-1.5-2.1
						C125.5,163.6,125.3,163.6,125.2,163.6z M121.6,163.9c-0.1-0.1-0.1-0.3,0.1-0.4l1-0.6c0.2-0.1,0.4,0,0.5,0.1l0.9,1.3l-1.6,0.9
						L121.6,163.9z M125,166.7l0.5,0.5l-0.6,0.3l-0.4-0.6c-0.3,0-0.6-0.1-0.7-0.3c-0.2-0.3-0.1-0.7,0.2-0.9c0.3-0.2,0.8-0.1,1,0.2
						C125.1,166.2,125.1,166.4,125,166.7z"/>
				</g>
				<g>
					<g>
						<g>
							<path class="st29" d="M161.7,157.7c-1-0.7-2.2-1.2-3.4-1.7c-1.1-0.4-2.3-0.8-3.5-1.1c-2.2-0.6-4.5-1.1-6.8-1.2
								c-2.5-0.1-5.1,0.4-7.5,1.1c-1.2,0.4-2.4,0.9-3.6,1.4c-1,0.5-2,1-2.9,1.7c-0.9,0.7-1.7,1.6-2.3,2.6c-0.3,0.5-0.5,1-0.6,1.6
								c-0.1,0.6,0,1.1,0,1.7c0,0.2,0.3,0.3,0.3,0.1c0-0.4,0.2-0.7,0.3-1c0.1-0.3,0.1-0.5,0.2-0.8c0.2-0.5,0.4-0.9,0.6-1.3
								c0.5-0.9,1.2-1.6,2-2.2c0.8-0.7,1.8-1.1,2.7-1.6c1-0.5,2.1-0.9,3.2-1.3c2.2-0.8,4.6-1.3,6.9-1.3c2.3,0,4.6,0.4,6.8,1
								c2.5,0.6,5,1.4,7.3,2.6C161.8,157.9,161.8,157.7,161.7,157.7L161.7,157.7z"/>
						</g>
					</g>
					<g>
						<g>
							<path class="st29" d="M129.6,161.8c0.2,0.5,0.6,0.9,0.8,1.4c0.3,0.4,0.5,0.8,0.8,1.3c0.1,0.1,0.4,0.3,0.5,0.1
								c0.7-1.4,2.2-2.2,3.6-2.6c0.3-0.1,0-0.6-0.3-0.6c0.3-0.1,0,0-0.1,0c-0.1,0-0.2,0-0.3,0.1c-0.2,0.1-0.4,0.1-0.7,0.2
								c-0.4,0.2-0.8,0.4-1.1,0.6c-0.7,0.5-1.3,1.1-1.7,1.9c0.2,0,0.3,0.1,0.5,0.1c-0.3-0.5-0.6-0.9-0.9-1.3c-0.3-0.5-0.6-0.9-1-1.4
								C129.6,161.4,129.5,161.7,129.6,161.8L129.6,161.8z"/>
						</g>
					</g>
				</g>
				<g>
					<g>
						<path class="st29" d="M197.9,103.9l18.3-10.6c0.5-0.3,0.6-0.9,0.3-1.4l-0.3-0.4c-0.3-0.5-1-0.6-1.5-0.3l-18.3,10.6
							c-0.5,0.3-0.6,0.9-0.3,1.4l0.3,0.4C196.7,104.1,197.4,104.2,197.9,103.9z"/>
					</g>
					<g>
						<path class="st29" d="M199.1,106.8l15.8-9.1c0.2-0.1,0.3-0.4,0.1-0.5l-0.1-0.2c-0.1-0.2-0.4-0.2-0.6-0.1l-15.8,9.1
							c-0.2,0.1-0.3,0.4-0.1,0.5l0.1,0.2C198.6,106.8,198.9,106.9,199.1,106.8z"/>
					</g>
					<g>
						<path class="st29" d="M187.8,124.2c-0.5,0-1-0.2-1.3-0.7l-8-11.4c-0.2-0.3-0.3-0.7-0.2-1.1c0.1-0.4,0.3-0.7,0.7-0.9l12-6.9
							c0.7-0.4,1.7-0.2,2.1,0.5l8,11.4c0.2,0.3,0.3,0.7,0.2,1.1c-0.1,0.4-0.3,0.7-0.7,0.9l-12,6.9
							C188.3,124.2,188.1,124.2,187.8,124.2z M191.7,103.4c-0.2,0-0.4,0-0.6,0.2l-12,6.9c-0.2,0.1-0.4,0.4-0.5,0.6
							c-0.1,0.3,0,0.5,0.2,0.8l8,11.4c0.3,0.5,1,0.6,1.6,0.3l12-6.9c0.2-0.1,0.4-0.4,0.5-0.6c0.1-0.3,0-0.5-0.2-0.8l-8-11.4
							C192.5,103.6,192.1,103.4,191.7,103.4z"/>
					</g>
					<g id="XMLID_1061_">
						<path class="st3" d="M183.3,112.4l5.8,5.5c-0.2,0.1-0.3,0.2-0.5,0.3c-0.7,0.6-0.8,1.6-0.2,2.1c0.6,0.6,1.6,0.5,2.3-0.1
							c0.7-0.6,0.8-1.6,0.2-2.1l-4.7-4.5l4.3-3.8l0,0l0,0l3.6,3.5c-0.2,0.1-0.3,0.2-0.5,0.3c-0.7,0.6-0.8,1.6-0.2,2.1
							c0.6,0.6,1.6,0.5,2.3-0.1c0.7-0.6,0.8-1.6,0.2-2.1l0,0l-6.8-6.5L183.3,112.4z"/>
					</g>
				</g>
				<g>
					<g>
						<path class="st29" d="M217.3,103.3c-0.5,0.1-0.8,0.5-1.2,0.8c-0.3,0.2-0.6,0.2-0.8,0.3c-0.3,0.1-0.3,0.4-0.5,0.6
							c-0.3,0.3-0.8,0-1,0.5c-0.1,0.2-0.2,1-0.7,0.5c-0.2-0.1-0.3-0.4-0.4-0.6c-0.1-0.1-0.4-0.2-0.4,0c-0.2,0.5-0.1,1.2-0.4,1.6
							c-0.2,0.3-0.4,0.2-0.5,0.1c0.1-0.5,0.1-1,0-1.5c0-0.1-0.2-0.2-0.4-0.2c-0.6,0.3-0.5,1.3-0.1,1.8c-0.2,0.3-0.4,0.5-0.7,0.6
							c-0.3,0.1-0.5,0.1-0.7,0.3c-0.2,0.2-0.2,0.4-0.3,0.6c-0.1-0.1-0.3-0.2-0.4-0.4c0-0.1-0.2-0.1-0.2,0c-0.1,0.2-0.3,0.4-0.4,0.6
							c-0.2-0.6-0.4-1.2-1-1.5c0,0-0.1,0-0.1,0c-0.3,0.4-0.5,0.8-0.6,1.3c0,0.1,0.2,0.2,0.2,0.1c0-0.3,0.1-0.6,0.3-0.8
							c0.2-0.3,0.3-0.5,0.6,0.1c0.2,0.3,0.3,0.8,0.5,1.1c0,0.1,0.2,0.2,0.2,0.1c0.2-0.2,0.3-0.5,0.5-0.7c0.1,0.1,0.2,0.2,0.3,0.4
							c0,0.1,0.2,0.1,0.2,0.1c0.3-0.2,0.3-0.7,0.6-0.9c0.4-0.2,0.8-0.2,1.1-0.6c0.1-0.1,0.1-0.2,0.1-0.2c0.1,0.1,0.2,0.1,0.4,0.1
							c0.9,0.1,1-0.8,1.1-1.5c0.1,0.2,0.3,0.4,0.6,0.4c0.5,0.1,0.8-0.2,0.9-0.6c0.1-0.3,0.1-0.4,0.4-0.4c0.1,0,0.2,0,0.3,0
							c0.3-0.1,0.4-0.3,0.5-0.5c0.2-0.3,0.7-0.3,1-0.5c0.4-0.2,0.7-0.6,1.1-0.7C217.7,103.5,217.5,103.2,217.3,103.3z"/>
					</g>
					<g>
						<path class="st29" d="M224.3,98.9c-0.3,0.3-0.3,0.7-0.6,1c-0.3,0.4-0.7,0.3-1.1,0.1c-0.1,0-0.2-0.1-0.2,0
							c-0.1,0.2-0.2,0.5-0.3,0.8c-0.3,0-0.6-0.1-0.7-0.3c-0.1-0.1-0.3-0.2-0.4-0.1c-0.1,0.3-0.2,0.6-0.6,0.7
							c-0.4,0.1-0.7-0.1-0.9-0.4c-0.1-0.1-0.4-0.2-0.5,0c-0.1,0.3,0,0.6,0,0.9c0,0.2,0,0.3-0.1,0.5c-0.1,0.2-0.5,0.3-0.5,0
							c-0.1-0.2-0.6-0.3-0.5-0.1c0.1,0.6,0.9,0.9,1.4,0.5c0.4-0.3,0.3-0.8,0.2-1.3c0.3,0.2,0.6,0.3,1,0.3c0.4,0,0.8-0.3,0.9-0.7
							c0.3,0.2,0.6,0.3,1,0.3c0.1,0,0.1,0,0.1-0.1c0.1-0.2,0.1-0.5,0.2-0.7c0.4,0.2,0.8,0.2,1.2,0c0.4-0.2,0.8-0.9,0.7-1.3
							C224.6,99,224.4,98.8,224.3,98.9z"/>
					</g>
					<g>
						<path class="st29" d="M217.4,107.7c-0.4,0-1.4-0.4-1.7,0c0,0,0,0.1-0.1,0.2c-0.1,0.2-0.2,0.4-0.4,0.5c-0.4,0.3-0.6,0-1-0.2
							c-0.1,0-0.2-0.1-0.2,0c-0.4,0.5-0.4,1.1-0.8,1.6c-0.2,0.3-0.3,0.4-0.7,0.3c-0.2,0-0.3,0-0.5,0c-0.4,0.1-0.5,0.4-0.6,0.8
							c-0.3,0.8-0.7-0.1-1.1-0.4c-0.1-0.1-0.3-0.2-0.4,0c-0.3,0.6-0.4,1.7-1.2,2c0,0,0,0,0,0c0-0.1-0.3-0.3-0.3-0.1
							c0,0.1,0,0.2,0,0.3c0,0.1,0.1,0.2,0.3,0.2c1-0.1,1.2-1.2,1.5-1.9c0.3,0.4,0.5,0.7,1.1,0.7c0.6-0.1,0.5-0.7,0.7-1
							c0.2-0.2,0.4-0.1,0.6-0.1c0.2,0,0.4,0,0.6-0.1c0.6-0.4,0.5-1.2,0.9-1.8c0.5,0.3,0.9,0.5,1.4,0c0.2-0.2,0.3-0.5,0.5-0.6
							c0.4-0.2,0.9,0.2,1.4,0.1C217.8,107.9,217.5,107.7,217.4,107.7z"/>
					</g>
					<g>
						<path class="st29" d="M224.3,102.9c-0.2,0.2-0.3,0.5-0.6,0.5c-0.2,0.1-0.6,0-0.8-0.1c-0.1-0.1-0.3-0.1-0.3,0
							c-0.2,0.6-0.8,1.8-1.6,0.9c-0.1-0.1-0.4-0.2-0.5,0c-0.1,0.3-0.2,0.7-0.4,1c-0.1,0.1-0.2,0.3-0.3,0.3c-0.2,0.1-0.2-0.1-0.3-0.3
							c-0.1-0.1-0.5-0.3-0.5-0.1c-0.1,0.3-0.3,0.7-0.5,1c-0.1,0.1-0.2,0.3-0.4,0.3c-0.1,0,0,0,0,0c-0.1,0-0.2-0.2-0.2-0.3
							c-0.1-0.2-0.7-0.3-0.6,0c0.2,0.6,0.8,1.1,1.4,0.6c0.3-0.3,0.5-0.6,0.7-1c0.3,0.2,0.6,0.3,0.9,0c0.3-0.2,0.6-0.7,0.7-1.1
							c0.4,0.2,0.8,0.3,1.2,0.1c0.4-0.2,0.8-0.7,0.8-1.1c0.3,0.1,0.6,0.2,0.9,0.1c0.4-0.1,0.6-0.4,0.7-0.7
							C224.7,103,224.4,102.8,224.3,102.9z"/>
					</g>
					<g>
						<path class="st29" d="M226.2,102c0,0-0.1,0-0.1,0c0,0-0.1,0-0.1,0c0,0,0,0-0.1,0c0,0-0.1,0-0.1,0c0,0-0.1,0-0.1,0c0,0,0,0,0,0
							c0,0,0,0,0,0c0,0,0,0,0,0c0,0,0,0,0,0c0,0-0.1,0-0.1,0c0,0-0.1,0.1-0.1,0.1c0,0,0,0.1,0.1,0.1c0,0,0.1,0.1,0.1,0.1
							c0.1,0,0.2,0,0.3,0c0.1,0,0.1,0,0.2,0c0.1,0,0.1-0.1,0.1-0.1c0,0,0,0,0,0c0,0,0,0,0-0.1C226.3,102.2,226.3,102.1,226.2,102
							C226.2,102.1,226.2,102.1,226.2,102z"/>
					</g>
					<g>
						<path class="st29" d="M219.8,110.8c-0.6,0.1-1,0.2-1.6,0c0,0-0.1,0-0.1,0c-0.1,0.3-0.1,0.7-0.5,0.9c-0.4,0.3-0.9,0.2-1.2-0.1
							c-0.1-0.1-0.3-0.1-0.3,0c0,0.1,0,0.8-0.2,0.7c-0.1-0.1-0.3-0.1-0.3,0c-0.1,0.2-0.1,0.5-0.2,0.7c-0.1,0.1-0.2,0.2-0.3,0.2
							c-0.2,0.1-0.2,0-0.4,0c-0.2,0-0.3,0-0.4,0.1c-0.1,0.1-0.2,0.6-0.4,0.4c-0.1-0.1-0.3-0.2-0.3,0c0,0.1,0,0.2-0.1,0.3
							c-0.1,0.3-0.2,0.5-0.5,0.4c-0.3-0.1-0.4-0.3-0.6-0.5c-0.1-0.1-0.2-0.1-0.3,0c-0.3,0.5-0.4,1.1-0.9,1.5
							c-0.1,0.1,0.1,0.3,0.2,0.2c0.5-0.4,0.7-0.9,1-1.4c0.2,0.2,0.4,0.5,0.8,0.5c0.4,0,0.7-0.4,0.8-0.7c0.1,0.1,0.2,0.1,0.4,0.1
							c0.1,0,0.2-0.2,0.3-0.3c0,0,0.1-0.1,0.1-0.1c0.1-0.1,0-0.1,0.2-0.1c0.1,0,0.3,0,0.4,0c0.2,0,0.3-0.1,0.5-0.2
							c0.2-0.2,0.3-0.5,0.4-0.8c0.4,0.1,0.5-0.3,0.5-0.7c0.4,0.2,0.8,0.3,1.3,0.1c0.4-0.2,0.7-0.7,0.6-1.1c0.5,0.1,1.1,0.2,1.5,0
							C220.1,111.1,219.9,110.8,219.8,110.8z"/>
					</g>
					<g>
						<path class="st29" d="M227.9,106.1c-0.1,0-0.2,0-0.3,0.1c-0.1,0-0.2,0.1-0.3,0.1c-0.2,0.1-0.4,0.1-0.6,0.2
							c-0.2,0.1-0.4,0.1-0.6,0.2c0,0,0,0-0.1,0c0,0,0,0,0,0c-0.2,0-0.3,0.1-0.5,0.2c-0.1,0,0,0.2,0.1,0.2c0.1,0,0.2-0.1,0.3-0.1
							c0,0,0,0,0,0c0,0-0.1,0.1-0.1,0.1c0,0,0,0.1-0.1,0.1c0,0-0.1,0.1-0.1,0.1c0,0,0,0-0.1,0c0,0,0,0,0,0c0,0,0,0,0,0
							c-0.1,0-0.2-0.1-0.3-0.2c0,0-0.1-0.1-0.1,0c0,0,0,0.1,0,0.1c0,0,0,0,0,0c-0.1,0.4,0,0.8-0.2,1.1c-0.2,0.3-0.6,0.4-1,0.4
							c-0.1,0-0.1,0-0.2,0c0,0,0-0.1,0-0.1c-0.1-0.2-0.2-0.4-0.4-0.4c-0.1,0-0.2,0.1-0.2,0.2c0,0.2,0.1,0.3,0.2,0.4
							c-0.2,0.3-0.7,0.5-0.9,0.1c0-0.1-0.3-0.2-0.3-0.1c-0.1,0.3,0,0.7-0.2,1c-0.2,0.3-0.6,0.3-0.9,0.2c-0.3-0.1-0.2,0.3,0,0.3
							c0.4,0.1,1,0.2,1.3-0.1c0.2-0.2,0.3-0.6,0.2-0.9c0.3,0.2,0.7,0.2,1,0c0.1-0.1,0.1-0.2,0.2-0.3c0.4,0.1,0.9,0,1.2-0.1
							c0.6-0.3,0.7-0.9,0.5-1.5c0.1,0.1,0.2,0.1,0.4,0.1c0.2,0,0.3-0.2,0.4-0.4c0-0.1,0-0.2,0-0.2c0.3-0.1,0.5-0.1,0.8-0.1
							c0.2,0,0.4-0.1,0.7-0.2C227.7,106.4,228,106.3,227.9,106.1C228,106.1,228,106.1,227.9,106.1z"/>
					</g>
				</g>
				<g>
					<g>
						<path class="st29" d="M193.9,175.1c-0.3,0.4-1,1-1.6,0.5c-0.1-0.1-0.2-0.1-0.3,0c-0.1,0.4-0.2,0.8-0.3,1.1
							c-0.1,0.3-0.7,1.3-1,0.5c-0.1-0.1-0.4-0.3-0.5-0.1c-0.2,0.6-0.3,1.5-1.1,1.7c-0.2,0-0.3,0-0.5,0c0.1-0.2,0.2-0.5,0-0.9
							c0-0.1-0.2-0.3-0.4-0.2c-0.6,0.3-0.6,0.8-0.3,1.1c0,0,0,0,0,0c-0.3,0.2-0.7,0.4-1.1,0.5c-0.2,0-0.4,0-0.5,0.2
							c-0.1,0.1,0,0.3-0.1,0.5c-0.2,0.2-0.6,0.2-0.8,0c-0.1,0-0.2-0.1-0.3,0c-0.2,0.2-0.3,0.5-0.4,0.8c-0.2,0.4-0.4,0.8-0.8,0.2
							c-0.1-0.1-0.2-0.2-0.3-0.1c-0.3,0.4-0.5,0.9-0.9,1.2c-0.3-0.5-0.7-1.3-1.4-1.4c-0.8-0.1-1,1-1.1,1.6c0,0.1,0.2,0.2,0.2,0.1
							c0.1-0.5,0.5-1.9,1.3-1.3c0.4,0.3,0.6,0.9,0.9,1.3c0,0.1,0.1,0.1,0.2,0.1c0.5-0.3,0.7-0.7,0.9-1.2c0.2,0.2,0.5,0.4,0.8,0.2
							c0.4-0.3,0.5-0.8,0.8-1.2c0.3,0.2,0.5,0.2,0.9,0c0.3-0.1,0.3-0.2,0.4-0.4c0-0.1,0-0.2,0.1-0.3c0.1-0.1,0.3,0,0.4,0
							c0.4-0.1,0.9-0.3,1.2-0.6c0,0,0.1,0,0.1,0.1c1.1,0.4,1.9-0.6,2.1-1.5c0.4,0.3,0.7,0.3,1.1-0.1c0.4-0.4,0.7-1.1,0.6-1.7
							c0.7,0.3,1.5,0.1,1.7-0.6C194.1,175.2,193.9,175,193.9,175.1z"/>
					</g>
					<g>
						<path class="st29" d="M203.1,170.5c-0.2,0.5-1,0.7-1.5,0.7c-0.4,0-0.5,0.1-0.6,0.4c0,0.2-0.1,0.3-0.3,0.4
							c-0.2,0.1-0.3,0.1-0.5,0.2c-0.5,0.1-1,0.1-1.4-0.4c-0.1-0.1-0.2-0.2-0.3-0.1c-0.2,0.3-0.3,0.6-0.6,0.9c-0.4,0.3-0.9,0.5-1.2,0
							c-0.1-0.1-0.4-0.2-0.4,0c0.1,0.5,0.1,1-0.1,1.4c-0.3,0.5-0.9,0.5-1.4,0.5c-0.3,0-0.1,0.3,0.1,0.4c0.6,0.1,1.3,0,1.7-0.5
							c0.3-0.3,0.4-0.8,0.3-1.3c0.3,0.2,0.7,0.2,1.1,0c0.3-0.2,0.9-0.5,1-1c0.7,0.6,1.6,0.4,2.4,0c0.2-0.1,0.3-0.2,0.3-0.4
							c0,0,0-0.2,0-0.3c0.1-0.1,0.3,0,0.5,0c0.3,0,0.6-0.2,0.8-0.3c0.3-0.1,0.5-0.3,0.6-0.6C203.5,170.5,203.2,170.3,203.1,170.5z"
							/>
					</g>
					<g>
						<path class="st29" d="M190.3,181.6c-0.3,0.4-0.8,1.6-1.5,0.9c-0.1-0.1-0.4-0.2-0.5,0c-0.1,0.8-0.9,1.2-1.7,0.9
							c-0.1,0-0.2,0-0.2,0.1c-0.2,0.6-0.8,1-1.5,0.8c-0.1,0-0.2,0-0.2,0.1c0,0.5-0.3,0.5-0.6,0.7c-0.2,0-0.5,0-0.6,0.1
							c-0.2,0.1-0.3,0.4-0.4,0.6c-0.3-0.2-0.5-0.5-0.8-0.7c0,0-0.1,0-0.1,0c-0.2,0.2-0.4,0.4-0.5,0.7c0,0.1,0.2,0.3,0.2,0.2
							c0.1-0.2,0.2-0.4,0.4-0.6c0.3,0.2,0.5,0.5,0.8,0.7c0.1,0.1,0.2,0.1,0.2,0c0.1-0.2,0.2-0.4,0.3-0.6c0.1-0.1,0.3-0.2,0.4-0.2
							c0.1,0.1,0.1,0.1,0.2,0c0.4-0.3,0.7-0.3,0.8-0.8c0.8,0.2,1.4-0.2,1.7-0.8c0.9,0.2,1.7-0.1,2-0.9c0.3,0.2,0.7,0.2,1.1,0
							c0.4-0.2,0.9-0.8,0.8-1.2C190.7,181.7,190.4,181.5,190.3,181.6z"/>
					</g>
					<g>
						<path class="st29" d="M194,180.9C194.1,180.8,194,180.9,194,180.9c-0.1,0-0.1,0-0.1,0.1c-0.1,0-0.1,0.1-0.2,0.1
							c-0.1,0.1-0.2,0.2-0.3,0.2c0,0,0,0,0,0c-0.2-0.3-0.4-0.6-0.6-0.8c-0.2-0.2-0.4-0.5-0.6-0.7c-0.1-0.1-0.4-0.2-0.4,0
							c0.1,0.6-0.2,1.2-0.5,1.7c-0.1,0.2,0.2,0.4,0.4,0.3c0.3-0.4,0.6-0.9,0.6-1.4c0.2,0.2,0.4,0.5,0.6,0.8c0.1,0.1,0.2,0.3,0.3,0.5
							c-0.1,0.1-0.2,0.2-0.2,0.3c-0.3,0.4-0.5,0.9-0.3,1.3c0.1,0.1,0.3,0.3,0.4,0.2c0.3-0.1,0.6-0.2,0.8-0.5c0.1-0.2,0.1-0.5,0-0.8
							c0-0.1-0.1-0.2-0.1-0.3c0.1-0.1,0.1-0.2,0.2-0.2c0.1-0.1,0.2-0.2,0.2-0.2c0.1-0.1,0.2-0.1,0.2-0.2
							C194.4,181,194.1,180.8,194,180.9z"/>
					</g>
					<g>
						<path class="st29" d="M204.8,173.2c-0.4,0.1-1.1,0.3-1.3,0.7c-0.1,0.2,0,0.5-0.2,0.6c-0.1,0.1-0.4,0-0.6,0
							c-0.2,0-0.5,0.1-0.7,0.2c-0.3,0.1-0.5,0.1-0.8,0.1c-0.4,0-0.3,0.2-0.4,0.5c-0.1,0.3-0.5,0.5-0.7,0.7c-0.1,0.2,0,0.4-0.3,0.4
							c-0.2,0-0.4-0.2-0.6-0.2c-0.3,0-0.5,0.3-0.7,0.5c-0.3,0.5-0.4,0.6-1.2,0.4c-0.1,0-0.2,0-0.3,0.1c-0.2,0.3-0.3,0.6-0.5,0.8
							c-0.3,0.2-0.7,0-1-0.2c-0.1-0.1-0.4-0.1-0.5,0.1c-0.2,0.6-0.8,1.7-1.6,1c-0.2-0.2-0.5,0-0.3,0.2c0.9,1,1.9,0.2,2.4-0.7
							c0.4,0.2,0.8,0.3,1.1,0.2c0.4-0.1,0.7-0.6,0.8-1c0.3,0.1,0.7,0.1,1,0c0.3-0.2,0.4-0.5,0.5-0.7c0.3-0.5,0.6,0,1-0.1
							c0.2,0,0.2-0.1,0.3-0.2c0.1-0.2,0.1-0.3,0.3-0.5c0.1-0.1,0.3-0.3,0.4-0.4c0.1-0.1,0.1-0.3,0.2-0.4c0.2-0.2,0.3-0.1,0.5-0.1
							c0.4-0.1,0.7-0.3,1.1-0.3c0.4,0,0.7,0.2,0.9-0.2c0.1-0.3,0-0.5,0.3-0.7c0.3-0.2,0.7-0.3,1-0.4
							C205.2,173.4,205,173.1,204.8,173.2z"/>
					</g>
				</g>
				<g>
					<g>
						<g>
							<path class="st29" d="M162.4,159.4c-1.2,1.1-1.6,2.8-1.8,4.3c-0.3,1.9-0.3,3.9,0,5.8c0.3,2,1,4,2,5.8c1.1,2.1,2.6,4,4.4,5.5
								c1.9,1.5,4.1,2.6,6.6,2.6c0.2,0,0-0.3-0.1-0.3c-1-0.1-2.1-0.3-3.1-0.7c-1-0.4-1.8-0.9-2.6-1.5c-1.8-1.4-3.2-3-4.4-5
								c-1-1.7-1.9-3.7-2.3-5.7c-0.3-1.7-0.4-3.6-0.3-5.3c0.1-1.8,0.5-3.8,1.6-5.3C162.7,159.5,162.5,159.3,162.4,159.4L162.4,159.4
								z"/>
						</g>
					</g>
					<g>
						<g>
							<path class="st29" d="M169.8,184.3c0.7-0.2,1.4-0.4,2.2-0.5c0.7-0.1,1.4-0.1,2.2-0.1c0.2,0,0.3-0.2,0.1-0.3
								c-0.6-0.4-1.3-0.7-1.9-1c-0.3-0.2-0.6-0.4-0.9-0.6c-0.1-0.1-0.3-0.2-0.4-0.3c-0.1-0.1-0.1-0.1-0.2-0.2
								c-0.1-0.1-0.2-0.2-0.2-0.2c0,0-0.1-0.1-0.1-0.1c-0.1-0.1-0.2,0-0.2,0.1c0,0.1,0,0.1,0,0.2c0,0.1,0.1,0.2,0.1,0.2
								c0.1,0.1,0.2,0.3,0.4,0.4c0.3,0.3,0.6,0.5,1,0.7c0.7,0.4,1.4,0.7,2.1,1.1c0-0.1,0.1-0.2,0.1-0.3c-0.8-0.1-1.6,0-2.4,0.1
								c-0.4,0.1-0.8,0.1-1.2,0.3c-0.3,0.1-0.7,0.2-1,0.4C169.5,184.1,169.7,184.3,169.8,184.3L169.8,184.3z"/>
						</g>
					</g>
				</g>
				<g>
					<g>
						<path class="st29" d="M242.1,120c0,0.3,0,0.6-0.3,0.9c-0.2,0.2-0.6,0.3-0.9,0.3c-0.6,0.1-1.2,0-1.8-0.1c-0.1,0-0.2,0-0.2,0.1
							c0,0.7-0.3,1.5-1.3,1.2c-0.1,0-0.1-0.1-0.2-0.1c0.2-0.4,0.1-0.8-0.2-1.3c-0.1-0.1-0.2-0.2-0.3-0.1c-0.6,0.4-0.5,0.9-0.1,1.3
							c-0.3,0.4-0.8,0.6-1.4,0.6c-0.1,0-0.2,0.1-0.2,0.2c0.1,0.4,0.2,1.1-0.3,1.4c-0.4,0.2-1,0-1.4-0.2c-0.1,0-0.3-0.1-0.4,0.1
							c0,0.3-0.1,0.7-0.3,1c-0.1-0.1-0.2-0.2-0.3-0.3c-0.1-0.1-0.4-0.2-0.4,0c0,0.2-0.1,0.4-0.1,0.6c-0.3-0.6-0.9-1-1.6-1.1
							c0,0-0.1,0-0.1,0c-0.2,0.3-0.1,0.5,0.1,0.8c0.1,0.2,0.4,0.2,0.3,0c0-0.1-0.2-0.4-0.1-0.5c0.2-0.2,0.7,0.1,0.8,0.2
							c0.3,0.3,0.5,0.7,0.6,1c0,0.1,0.3,0.3,0.4,0.1c0.1-0.3,0.2-0.5,0.2-0.8c0.1,0.1,0.2,0.2,0.3,0.3c0.1,0.1,0.4,0.2,0.5,0
							c0.1-0.4,0.3-0.7,0.3-1.1c0.5,0.2,1.1,0.3,1.5,0.1c0.6-0.3,0.6-1,0.5-1.5c0.6,0,1.2-0.2,1.5-0.6c0,0,0.1,0,0.1,0.1
							c0.4,0.2,0.8,0.3,1.2,0.1c0.5-0.2,0.7-0.8,0.7-1.3c1.2,0.2,3.9,0.2,3.1-1.4C242.4,120,242.1,119.8,242.1,120z"/>
					</g>
					<g>
						<path class="st29" d="M241.4,124.8c-0.3,0.1-0.5,0.3-0.7,0.5c-0.3,0.2-0.6,0.4-0.9,0.5c-0.6,0.3-1.2,0.4-1.8,0.7
							c-0.4,0.2-0.7,0.6-1.1,0.9c-0.5,0.4-0.9,0.5-1.5,0.2c-0.1-0.1-0.4,0-0.4,0.1c0,0.4-0.1,0.8-0.4,1.1c-0.1,0.1-0.2,0.2-0.3,0.3
							c0,0,0,0,0,0c0-0.1-0.1-0.2-0.1-0.3c-0.1-0.1-0.2-0.2-0.3-0.1c-0.3,0.5,0.4,1,0.9,0.7c0.5-0.3,0.8-0.9,0.8-1.4
							c0.4,0.1,0.8,0.2,1.2,0c0.5-0.2,0.8-0.6,1.2-0.9c0.5-0.4,1.2-0.6,1.8-0.8c0.6-0.3,1.4-0.7,1.8-1.2c0,0,0.1-0.1,0-0.2
							c0,0,0-0.1,0-0.1C241.6,124.9,241.5,124.8,241.4,124.8z"/>
					</g>
				</g>
				<g>
					<g>
						<g>
							<path class="st29" d="M241,128c0.6,1.4,1.6,2.5,2.3,3.9c0.7,1.3,1.1,2.7,1.3,4.1c0.3,2.7-0.3,5.5-1.8,7.8
								c-0.4,0.6-0.8,1.1-1.2,1.6c-0.5,0.6-1.2,1.1-1.8,1.5c-0.2,0.1,0.1,0.4,0.3,0.4c1.3-0.4,2.3-1.6,3.1-2.7
								c0.8-1.1,1.4-2.4,1.8-3.8c0.7-2.8,0.5-5.8-0.7-8.4c-0.8-1.6-1.8-3.3-3-4.6C241,127.8,240.9,127.9,241,128L241,128z"/>
						</g>
					</g>
					<g>
						<g>
							<path class="st29" d="M240.6,144.4c-0.5,0.5-0.7,1.2-0.9,1.8c-0.2,0.5-0.4,1-0.8,1.4c-0.2,0.2,0.1,0.5,0.3,0.5
								c0.5-0.1,1-0.3,1.5-0.4c0.2-0.1,0.5-0.1,0.8-0.1c0.1,0,0.2,0,0.3,0c0.1,0,0.3,0.2,0.5,0.1c0,0,0.1,0,0.1-0.1
								c0-0.1,0-0.3-0.1-0.4c0,0-0.1-0.1-0.1-0.1c-0.1,0-0.1-0.1-0.2-0.1c-0.1,0-0.3-0.1-0.4-0.1c-0.3,0-0.6,0-0.9,0.1
								c-0.5,0.1-1.1,0.3-1.6,0.4c0.1,0.2,0.2,0.3,0.3,0.5c0.4-0.4,0.7-1,0.9-1.6c0.2-0.6,0.4-1.2,0.6-1.8
								C240.9,144.5,240.7,144.2,240.6,144.4L240.6,144.4z"/>
						</g>
					</g>
				</g>
				<g>
					<g>
						<g>
							<path class="st29" d="M155.9,198.3c0.1,0.2,0.1,0.4-0.1,0.5c-0.2,0.1-0.5,0.1-0.6-0.1c-0.1-0.2-0.1-0.4,0.1-0.5
								C155.5,198.1,155.8,198.2,155.9,198.3z"/>
						</g>
						<g>
							<path class="st29" d="M157.2,197.6c0.1,0.2,0.1,0.4-0.1,0.5c-0.2,0.1-0.5,0.1-0.6-0.1c-0.1-0.2-0.1-0.4,0.1-0.5
								C156.8,197.4,157,197.4,157.2,197.6z"/>
						</g>
						<g>
							<path class="st29" d="M158.4,196.9c0.1,0.2,0.1,0.4-0.1,0.5c-0.2,0.1-0.5,0.1-0.6-0.1c-0.1-0.2-0.1-0.4,0.1-0.5
								C158,196.7,158.3,196.7,158.4,196.9z"/>
						</g>
					</g>
					<g id="Mobile_3_">
						<g id="XMLID_1029_">
							<path class="st29" d="M148.4,206.3c-0.3,0-0.6-0.1-0.7-0.4l-23.4-33.4c-0.1-0.2-0.2-0.4-0.1-0.6c0.1-0.2,0.2-0.5,0.4-0.6
								l19.5-11.3c0.4-0.3,1-0.2,1.3,0.2l23.5,33.6c0.1,0.2,0.1,0.3,0.1,0.4c-0.1,0.3-0.3,0.5-0.5,0.6L149,206.2
								C148.8,206.3,148.6,206.3,148.4,206.3z M144.7,160.4c-0.1,0-0.2,0-0.3,0.1l-19.5,11.3c-0.1,0.1-0.2,0.2-0.2,0.3
								c0,0.1,0,0.2,0,0.2l23.4,33.4c0.1,0.2,0.4,0.2,0.7,0.1l19.5-11.3c0.3-0.2,0.3-0.3,0.3-0.3c0,0,0,0,0-0.1l-23.5-33.6
								C145,160.5,144.8,160.4,144.7,160.4z"/>
						</g>
					</g>
					<g>
						<path class="st29" d="M138.5,178.2l6.6-3.8c0.1,0,0.1-0.1,0-0.2l0-0.1c-0.1-0.1-0.2-0.1-0.2-0.1l-6.6,3.8
							c-0.1,0-0.1,0.1,0,0.2l0,0.1C138.3,178.2,138.4,178.3,138.5,178.2z"/>
					</g>
					<g>
						<g>
							<g>
								<path class="st29" d="M153.6,194.3l-2-2.8c-0.1-0.2-0.4-0.3-0.6-0.1l-0.2,0.1c-0.2,0.1-0.3,0.4-0.1,0.6l2,2.8
									c0.1,0.2,0.4,0.3,0.6,0.1l0.2-0.1C153.7,194.7,153.7,194.5,153.6,194.3z"/>
							</g>
							<g>
								<path class="st29" d="M155.6,193.1l-2-2.8c-0.1-0.2-0.4-0.3-0.6-0.1l-0.2,0.1c-0.2,0.1-0.3,0.4-0.1,0.6l2,2.8
									c0.1,0.2,0.4,0.3,0.6,0.1l0.2-0.1C155.7,193.6,155.7,193.3,155.6,193.1z"/>
							</g>
						</g>
						<g>
							<g>
								<g>
									<path class="st29" d="M148.7,195.3l1.5,0c0.2,0,0.3-0.2,0.2-0.4l-0.8-1.2c-0.1-0.1-0.3-0.1-0.4,0l-0.7,1.2
										C148.4,195.2,148.5,195.3,148.7,195.3z"/>
								</g>
								<g>
									<path class="st29" d="M149,196l-1.1-1.6c-0.1-0.1-0.2-0.1-0.4-0.1l-0.1,0.1c-0.1,0.1-0.2,0.2-0.1,0.3l1.1,1.6
										c0.1,0.1,0.2,0.1,0.4,0.1l0.1-0.1C149.1,196.3,149.1,196.1,149,196z"/>
								</g>
							</g>
							<g>
								<g>
									<path class="st29" d="M157.8,190.1l-0.7,1.2c-0.1,0.1-0.3,0.2-0.4,0l-0.8-1.2c-0.1-0.1,0-0.4,0.2-0.4l1.5,0
										C157.8,189.8,157.9,189.9,157.8,190.1z"/>
								</g>
								<g>
									<path class="st29" d="M158.3,190.7l-1.1-1.6c-0.1-0.1,0-0.3,0.1-0.3l0.1-0.1c0.1-0.1,0.3,0,0.4,0.1l1.1,1.6
										c0.1,0.1,0,0.3-0.1,0.3l-0.1,0.1C158.6,190.8,158.4,190.8,158.3,190.7z"/>
								</g>
							</g>
						</g>
					</g>
					<g>
						<path class="st29" d="M136,177.1C136,177.1,136,177.1,136,177.1C136,177,136,177,136,177.1l0-1.3c-0.2,0.1-0.4,0.2-0.6,0.2
							c-0.2,0-0.4,0-0.6,0c-0.2,0-0.4-0.1-0.5-0.2c-0.2-0.1-0.3-0.2-0.4-0.4c-0.1-0.2-0.2-0.3-0.2-0.5c0-0.2,0-0.3,0-0.5
							c0-0.2,0.1-0.3,0.3-0.5c0.1-0.1,0.3-0.3,0.5-0.4c0.2-0.1,0.4-0.2,0.6-0.2c0.2,0,0.4,0,0.6,0c0.2,0,0.4,0.1,0.5,0.2
							c0.2,0.1,0.3,0.2,0.4,0.4c0.1,0.1,0.1,0.2,0.1,0.3c0,0.1,0.1,0.2,0.1,0.3c0,0.1,0,0.2,0,0.3c0,0.1,0,0.2,0,0.2l0,1.8
							c0,0,0,0.1,0,0.1c0,0,0,0.1-0.1,0.1l-0.4,0.3c0,0-0.1,0-0.1,0C136,177.2,136,177.1,136,177.1z M134.6,175
							c0.1,0.2,0.3,0.3,0.5,0.3c0.2,0,0.4,0,0.6-0.1c0.2-0.1,0.3-0.2,0.4-0.4c0.1-0.2,0-0.3-0.1-0.5c-0.1-0.2-0.3-0.3-0.5-0.3
							c-0.2,0-0.4,0-0.6,0.1c-0.2,0.1-0.3,0.2-0.4,0.4C134.5,174.7,134.5,174.9,134.6,175z"/>
						<path class="st29" d="M137.5,173.1c0,0,0.1,0,0.1,0c0,0,0.1,0,0.1,0.1l0.3,0.5c0,0,0,0.1,0,0.1c0,0,0,0.1-0.1,0.1l-0.5,0.3
							c0,0-0.1,0-0.1,0c0,0-0.1,0-0.1-0.1l-0.3-0.5c0,0,0-0.1,0-0.1c0,0,0-0.1,0.1-0.1L137.5,173.1z M138.7,174.8c0,0,0.1,0,0.1,0
							c0,0,0.1,0,0.1,0.1l0.3,0.5c0,0,0,0.1,0,0.1c0,0,0,0.1-0.1,0.1l-0.5,0.3c0,0-0.1,0-0.1,0c0,0-0.1,0-0.1-0.1l-0.3-0.5
							c0,0,0-0.1,0-0.1c0,0,0-0.1,0.1-0.1L138.7,174.8z"/>
						<path class="st29" d="M139.9,170.5c0,0,0.1,0,0.1,0c0,0,0.1,0,0.1,0.1l0.2,0.3c0,0,0,0.1,0,0.1c0,0,0,0.1,0,0.1l-0.2,1.1
							c0.2-0.1,0.3-0.1,0.5-0.1c0.2,0,0.3,0,0.4,0c0.1,0,0.3,0.1,0.4,0.2c0.1,0.1,0.2,0.2,0.3,0.3c0.1,0.2,0.2,0.3,0.2,0.5
							c0,0.2,0,0.3-0.1,0.5c-0.1,0.2-0.2,0.3-0.3,0.4c-0.1,0.1-0.3,0.3-0.5,0.4c-0.2,0.1-0.4,0.2-0.6,0.3c-0.2,0-0.4,0.1-0.6,0
							c-0.2,0-0.3-0.1-0.4-0.1c-0.1-0.1-0.2-0.1-0.3-0.2c0,0,0-0.1,0-0.1c0,0,0-0.1,0.1-0.1l0.4-0.2c0,0,0.1,0,0.1,0
							c0,0,0.1,0,0.1,0c0,0,0.1,0,0.2,0.1c0.1,0,0.1,0,0.2,0c0.1,0,0.2,0,0.2-0.1c0.1,0,0.2-0.1,0.3-0.1c0.2-0.1,0.3-0.2,0.4-0.4
							c0.1-0.1,0.1-0.3,0-0.4c-0.1-0.1-0.2-0.2-0.4-0.2c-0.2,0-0.3,0.1-0.5,0.2l-0.4,0.2c0,0-0.1,0-0.1,0c0,0-0.1,0-0.1-0.1
							l-0.2-0.3c0,0,0-0.1,0-0.1c0,0,0-0.1,0-0.1l0.2-1.1l-1.3,0.8c0,0-0.1,0-0.1,0c0,0-0.1,0-0.1-0.1l-0.2-0.3c0,0,0-0.1,0-0.1
							c0,0,0-0.1,0.1-0.1L139.9,170.5z"/>
						<path class="st29" d="M144.1,169.7c0,0.1,0.1,0.1,0.1,0.2c0,0.1,0.1,0.1,0.2,0.2c0.1,0.1,0.1,0.1,0.2,0.2
							c0,0.1,0.1,0.1,0.1,0.2c0.1,0.2,0.2,0.4,0.3,0.5c0.1,0.2,0.1,0.4,0.1,0.5c0,0.2-0.1,0.3-0.2,0.5c-0.1,0.2-0.3,0.3-0.5,0.4
							c-0.2,0.1-0.5,0.2-0.7,0.3c-0.2,0-0.4,0-0.6,0c-0.2-0.1-0.3-0.1-0.5-0.3c-0.2-0.1-0.3-0.3-0.4-0.4c-0.1-0.1-0.2-0.2-0.3-0.4
							c-0.1-0.1-0.2-0.3-0.3-0.4c-0.1-0.2-0.2-0.4-0.3-0.6c-0.1-0.2-0.1-0.4-0.1-0.5c0-0.2,0.1-0.3,0.2-0.5c0.1-0.2,0.3-0.3,0.5-0.4
							c0.2-0.1,0.5-0.2,0.7-0.3c0.2,0,0.4,0,0.6,0c0.2,0.1,0.3,0.1,0.5,0.3C143.9,169.4,144,169.5,144.1,169.7z M142.7,171.6
							c0.2,0.2,0.3,0.4,0.5,0.4c0.2,0.1,0.4,0,0.6-0.1c0.2-0.1,0.3-0.3,0.4-0.5c0-0.2-0.1-0.4-0.2-0.6c-0.1-0.1-0.2-0.3-0.3-0.4
							c-0.1-0.1-0.2-0.3-0.3-0.4c-0.2-0.2-0.3-0.4-0.5-0.4c-0.2-0.1-0.4,0-0.6,0.1c-0.2,0.1-0.3,0.3-0.4,0.5c0,0.2,0.1,0.4,0.2,0.6
							c0.1,0.1,0.2,0.3,0.3,0.4C142.6,171.4,142.7,171.5,142.7,171.6z"/>
					</g>
					<g>
						<g id="XMLID_1055_">
							<g id="XMLID_1058_">
								<path class="st29" d="M129.9,171.5C129.9,171.5,129.9,171.5,129.9,171.5l-0.1-0.1l-0.2,0.1c0,0,0,0,0,0l0,0c0,0,0,0,0,0
									c0,0,0,0,0,0l0-0.5c0,0,0,0,0,0c0,0,0,0,0,0l0,0c0,0,0,0,0,0c0,0,0,0,0,0l0.2,0.3l0.1,0c0,0,0,0,0,0c0,0,0,0,0,0l0,0
									c0,0,0,0,0,0c0,0,0,0,0,0l-0.1,0L129.9,171.5C130,171.4,130,171.4,129.9,171.5C130,171.4,130,171.4,129.9,171.5L129.9,171.5
									C129.9,171.5,129.9,171.5,129.9,171.5z M129.8,171.3l-0.2-0.2l0,0.3L129.8,171.3z"/>
							</g>
							<g id="XMLID_1056_">
								<path class="st29" d="M130.1,171.3c-0.1,0-0.2-0.1-0.2-0.2c-0.1-0.1-0.1-0.2-0.1-0.3c0-0.1,0.1-0.1,0.1-0.2c0,0,0.1,0,0.1,0
									c0,0,0.1,0,0.1,0c0,0,0,0,0,0c0,0,0,0,0,0l0,0.1c0,0,0,0,0,0c0,0,0,0,0,0c0,0-0.1,0-0.1,0c-0.1,0-0.1,0.1-0.1,0.1
									c0,0.1,0,0.1,0.1,0.2C130,171.1,130.1,171.1,130.1,171.3c0.1-0.1,0.1-0.1,0.2-0.1c0,0,0,0,0.1,0c0,0,0,0,0,0l-0.1-0.1
									l-0.1,0.1c0,0,0,0,0,0c0,0,0,0,0,0l0,0c0,0,0,0,0,0c0,0,0,0,0,0l0.2-0.1c0,0,0,0,0,0c0,0,0,0,0,0l0.1,0.2c0,0,0,0,0,0
									c0,0,0,0,0,0c0,0.1-0.1,0.1-0.2,0.2C130.3,171.3,130.2,171.3,130.1,171.3z"/>
							</g>
						</g>
						<g id="XMLID_1044_">
							<g id="XMLID_1053_">
								<g id="XMLID_1054_">
									<path class="st29" d="M132.1,170.1c0,0.1,0,0.2,0,0.2c-0.1,0-0.2,0-0.2-0.1c0-0.1,0-0.2,0-0.2
										C131.9,170,132,170,132.1,170.1z"/>
								</g>
							</g>
							<g id="XMLID_1049_">
								<g id="XMLID_1050_">
									<g id="XMLID_1051_">
										<path class="st29" d="M131.7,169.8c-0.1,0.1-0.2,0.2-0.2,0.4c0,0,0,0.1,0.1,0.1h0c0,0,0.1,0,0.1-0.1c0-0.1,0-0.2,0.1-0.3
											c0.1-0.1,0.2-0.1,0.3,0c0,0,0.1,0,0.1,0l0,0c0,0,0-0.1,0-0.1C132,169.7,131.8,169.7,131.7,169.8z"/>
									</g>
								</g>
							</g>
							<g id="XMLID_1045_">
								<g id="XMLID_1046_">
									<g id="XMLID_1047_">
										<path class="st29" d="M131.6,169.6c-0.2,0.1-0.3,0.3-0.3,0.5c0,0,0,0.1,0.1,0.1l0,0c0,0,0.1,0,0.1-0.1
											c0-0.2,0.1-0.3,0.3-0.4c0.2-0.1,0.4-0.1,0.5,0c0,0,0.1,0,0.1,0l0,0c0,0,0-0.1,0-0.1C132,169.5,131.8,169.5,131.6,169.6z"
											/>
									</g>
								</g>
							</g>
						</g>
						<g>
							<g>
								<polygon class="st29" points="127.3,173 127.2,172.9 127.5,172.7 127.6,172.9 								"/>
							</g>
							<g>
								<polygon class="st29" points="127.7,172.8 127.5,172.5 127.7,172.3 128,172.7 								"/>
							</g>
							<g>
								<polygon class="st29" points="128.1,172.6 127.7,172.1 128,171.9 128.3,172.5 								"/>
							</g>
							<g>
								<polygon class="st29" points="128.5,172.4 128,171.7 128.2,171.5 128.7,172.2 								"/>
							</g>
						</g>
						<g id="XMLID_1035_">
							<g id="XMLID_1039_">
								<path class="st29" d="M144.1,162.6c0,0-0.1,0-0.1,0l-0.9,0.5c-0.1,0-0.1,0.1,0,0.2l0.2,0.3c0,0,0.1,0.1,0.1,0.1
									c0,0,0,0,0.1,0c0,0,0,0,0.1,0l0.9-0.5c0.1,0,0.1-0.1,0-0.2l-0.2-0.3C144.2,162.6,144.1,162.6,144.1,162.6z M143.4,163.7
									C143.3,163.7,143.3,163.6,143.4,163.7l-0.3-0.4c0-0.1,0-0.1,0-0.2l0.9-0.5c0,0,0,0,0,0c0,0,0,0,0,0c0,0,0,0,0.1,0l0.2,0.3
									c0,0.1,0,0.1,0,0.2L143.4,163.7C143.4,163.7,143.4,163.7,143.4,163.7z"/>
							</g>
							<g id="XMLID_1038_">
								<g>
									<path class="st29" d="M143.3,163.1l0.3,0.4l-0.1,0.1c0,0,0,0,0,0l-0.2-0.3c0,0,0-0.1,0-0.1L143.3,163.1z"/>
								</g>
								<g>
									<polygon class="st29" points="143.4,163.1 143.5,163 143.8,163.3 143.6,163.4 									"/>
								</g>
								<g>
									<polygon class="st29" points="143.6,162.9 143.8,162.8 144.1,163.2 143.9,163.3 									"/>
								</g>
								<g>
									<path class="st29" d="M144.1,162.7l0.2,0.3c0,0.1,0,0.1-0.1,0.1l-0.1,0l-0.3-0.4L144.1,162.7
										C144,162.7,144,162.7,144.1,162.7z"/>
								</g>
							</g>
							<g id="XMLID_1036_">
								<g id="XMLID_1037_">
									<path class="st29" d="M144.2,162.6c0,0,0.1,0,0.1,0.1l0,0.1c0,0.1,0.1,0.1,0,0.2l0,0L144.2,162.6
										C144.2,162.7,144.2,162.6,144.2,162.6z"/>
								</g>
							</g>
						</g>
						<g>
							<polygon class="st29" points="141.6,164.2 142.4,163.5 142.6,164.3 142.2,164 							"/>
						</g>
					</g>
					<g>
						<g>
							<path class="st29" d="M152.5,181.8c1.1,2.5,0.2,5.3-2.3,6.7c-2.2,1.2-4.9,1-6.9-0.4l0.8-5.4l6.3,2.1c0.5,0.2,0.6,0,0.2-0.3
								l-1.5-1l0.6-2.4L152.5,181.8z"/>
						</g>
						<g>
							<g>
								<path class="st29" d="M143.6,178.9c-2.8,1.6-3.5,5.1-1.7,7.7c0.2,0.3,0.5,0.6,0.7,0.9l0.8-5.5c0-0.1,0.1-0.1,0.1-0.2
									c0,0,0,0,0,0c0.1,0,0.2,0,0.3,0l4.4,1.5l0.7-2.8c0-0.1,0.2-0.2,0.4-0.2l2.7,0.6l0,0C150.1,178.1,146.4,177.3,143.6,178.9z
									 M147,180.5c-0.4,0.2-0.9,0.1-1.1-0.3c-0.3-0.4-0.1-0.8,0.2-1c0.4-0.2,0.9-0.1,1.1,0.3C147.4,179.8,147.3,180.3,147,180.5z"
									/>
							</g>
						</g>
					</g>
				</g>
			</g>
			<polygon class="st19" points="80,150.3 79.7,149.9 80,149.7 79.8,149.3 80.1,149.1 79.9,148.7 80.2,148.6 79.9,148.2 80.2,148 
				80,147.6 80.3,147.4 85.3,149.5 85.6,149.9 85.3,150 85.5,150.4 85.2,150.6 85.4,151 85.1,151.2 85.4,151.6 85.1,151.7 
				85.3,152.1 85,152.3 			"/>
			<polygon class="st19" points="134.2,228.3 134,227.8 133.7,227.9 133.5,227.4 133.2,227.5 133,227 132.6,227.2 132.5,226.7 
				132.1,226.8 132,226.3 131.6,226.4 129.6,232.1 129.8,232.6 130.2,232.5 130.3,233 130.7,232.8 130.8,233.3 131.2,233.2 
				131.3,233.7 131.7,233.6 131.8,234 132.2,233.9 			"/>
			<polygon class="st19" points="217.5,71.3 217.3,70.8 217,71 216.8,70.5 216.4,70.7 216.2,70.2 215.9,70.4 215.7,69.9 215.3,70 
				215.1,69.6 214.8,69.7 213.3,75.5 213.5,76 213.9,75.9 214.1,76.3 214.4,76.2 214.6,76.7 215,76.5 215.2,77 215.5,76.8 
				215.7,77.3 216.1,77.1 			"/>
		</g>
	</g>
	<g id="Character_5_">
		<g>
			<g id="XMLID_1181_">
				<g id="XMLID_1185_">
					<g id="XMLID_1193_">
						<path id="XMLID_1194_" class="st9" d="M244.1,272.2c0-0.1,0.9-9,0.9-9s-0.6,0.9-5.7,0.5c-2.6-0.2-5.7-1.3-5.7-1.3l-0.3,6.4
							c-0.9,2.6-5.4,2.2-10.2,2.5c-0.8,0-1.6,0.1-2.5,0.1l-0.1,0c-2.6,0.3-4.9,2.3-1.8,4c3,1.7,7.5,1.8,11.7,1.8
							C235.3,277.2,244.1,277.1,244.1,272.2z"/>
					</g>
					<g id="XMLID_1186_">
						<path id="XMLID_1192_" class="st18" d="M210.2,277.2c0,0-0.3,1.1,0.1,2.6c0.3,0.9,3.1,3.7,7.6,5c4.4,1.2,9.5,0.5,12,0.8
							c2.5,0.3,4.9,1.3,7.8,1.5c3,0.2,5.7,0.1,8.2-2.2c0.4-0.9,0.6-2.8,0.4-3C245.8,281.5,210.2,277.2,210.2,277.2z"/>
						<path id="XMLID_1191_" class="st12" d="M232.6,269.7c-1.6,1.6-5.5,1.3-9.6,1.6c-3.9,0.2-8.4-0.4-10.8,1
							c-2.4,1.3-2.9,4.4,1.3,7.7c1.2,1,2.6,2.2,3.9,2.7c4.4,1.7,8.9,0.8,11.9,1c3.8,0.3,6.1,1.5,9.5,1.4c4.4-0.2,7-1.8,7.6-3.1
							c0.6-1.3-0.4-10.8-2.2-10.3c0,0-0.3,3.2-7.9,1.4C232.9,272.3,232.6,270.4,232.6,269.7z"/>
						<path id="XMLID_1190_" class="st19" d="M217.4,282.6c0,0-1.5-9.9,4.1-11.3l0.7,0c0,0-0.1-0.7-2.3-0.8c-4.2-0.3-6.9,0.2-8.7,2
							c-0.8,0.8-1.6,2.9-1.1,4.7C210.7,279,212.9,281.2,217.4,282.6z"/>
						<path id="XMLID_1189_" class="st19" d="M221.4,276.8c0,0-0.3-4,2.5-5.6c0,0,0.9-0.6,1.6-0.1c0,0-2.6,0.9-2.7,5.7
							c0,0-0.1,0.3-0.7,0.3C221.9,277.1,221.5,277.1,221.4,276.8z"/>
						<path id="XMLID_1188_" class="st19" d="M228.1,271c0,0,0-0.1-0.7-0.1c-0.5,0-0.8,0.2-0.8,0.2s-2,1.3-1.7,5.5
							c0,0,0.1,0.5,0.8,0.5c0.7,0,0.7-0.5,0.7-0.5S226.1,272.2,228.1,271z"/>
						<path id="XMLID_1187_" class="st19" d="M230.5,270.7c0,0-0.2-0.2-0.7-0.1c-0.6,0.1-0.8,0.4-0.8,0.4s-1.3,1.9-0.7,5.3
							c0,0,0,0.6,0.9,0.5c0.8-0.1,0.6-0.7,0.6-0.7S229.3,271.6,230.5,270.7z"/>
					</g>
				</g>
				<g id="XMLID_1182_">
					<g id="XMLID_1183_">
						<path id="XMLID_1184_" class="st12" d="M232.8,215.2c-0.4,8.8-0.1,49.9-0.1,49.9s5.4,4.6,12.3,2.2l4.2-47.1L232.8,215.2z"/>
					</g>
				</g>
			</g>
			<g id="XMLID_1166_">
				<g id="XMLID_1171_">
					<g id="XMLID_1179_">
						<path id="XMLID_1180_" class="st9" d="M219.8,287.3c0-0.1,1.6-8.6,1.6-8.6s-1.6,1.1-6.7,0.8c-2.6-0.2-5-0.9-5-0.9l-0.8,6.2
							c-0.8,2.6-5.3,2.4-10.1,2.8c-0.8,0.1-1.6,0.1-2.5,0.1l0,0c-2.6,0.4-4.8,2.4-1.7,4c3.1,1.6,7.6,1.6,11.7,1.5
							C211.2,293.1,219.9,292.2,219.8,287.3z"/>
					</g>
					<g id="XMLID_1172_">
						<path id="XMLID_1178_" class="st18" d="M186,293.9c0,0-0.3,1.1,0.2,2.6c0.3,0.9,3.2,3.6,7.7,4.7c4.5,1.1,9.5,0.2,12,0.4
							c2.5,0.2,4.9,1.1,7.9,1.2c3,0.1,5.7-0.1,8.2-2.5c0.4-0.9,0.6-2.8,0.4-3C221.8,297.1,186,293.9,186,293.9z"/>
						<path id="XMLID_1177_" class="st12" d="M208.3,285.7c-1.5,1.6-5.4,1.5-9.5,1.9c-3.9,0.3-8.4-0.1-10.8,1.3
							c-2.4,1.4-2.7,4.4,1.5,7.6c1.2,0.9,2.6,2.1,3.9,2.6c4.4,1.6,9,0.5,11.9,0.7c3.8,0.2,6.1,1.4,9.5,1.1c4.4-0.4,6.9-2,7.5-3.3
							c0.5-1.3-0.7-10.8-2.5-10.2c0,0-0.2,3.2-7.8,1.7C208.6,288.3,208.3,286.4,208.3,285.7z"/>
						<path id="XMLID_1176_" class="st19" d="M193.5,299.1c0,0-1.8-9.8,3.7-11.4l0.7,0c0,0-0.1-0.7-2.3-0.8
							c-4.2-0.2-6.9,0.4-8.6,2.3c-0.7,0.8-1.5,2.9-1,4.7C186.6,295.7,188.9,297.9,193.5,299.1z"/>
						<path id="XMLID_1175_" class="st19" d="M197.3,293.2c0,0-0.4-4,2.3-5.6c0,0,0.8-0.6,1.6-0.1c0,0-2.6,0.9-2.6,5.7
							c0,0-0.1,0.3-0.7,0.3C197.8,293.5,197.4,293.5,197.3,293.2z"/>
						<path id="XMLID_1174_" class="st19" d="M203.8,287.2c0,0,0-0.1-0.7-0.1c-0.5,0-0.8,0.2-0.8,0.2s-2,1.4-1.6,5.6
							c0,0,0.1,0.5,0.8,0.5c0.7,0,0.7-0.6,0.7-0.6S201.8,288.4,203.8,287.2z"/>
						<path id="XMLID_1173_" class="st19" d="M206.2,286.8c0,0-0.2-0.2-0.7-0.1c-0.6,0.1-0.7,0.4-0.7,0.4s-1.2,1.9-0.5,5.3
							c0,0,0.1,0.6,0.9,0.5c0.8-0.1,0.6-0.7,0.6-0.7S205,287.8,206.2,286.8z"/>
					</g>
				</g>
				<g id="XMLID_1169_">
					<path id="XMLID_1170_" class="st2" d="M211.3,232.3c-1,9.1-2,35.6-2.7,48.8c0,0,5.8,3.5,13.2,1.5l9.4-47.5L211.3,232.3z"/>
				</g>
			</g>
		</g>
		<g id="XMLID_1144_">
			<g id="XMLID_1164_">
				<path id="XMLID_1165_" class="st2" d="M270.5,340.6c-0.6,0-1.1-0.5-1.1-1.1v-70.9c0-0.6,0.5-1.1,1.1-1.1c0.6,0,1.1,0.5,1.1,1.1
					v70.9C271.6,340.1,271.1,340.6,270.5,340.6z"/>
			</g>
			<g id="XMLID_1162_">
				<path id="XMLID_1163_" class="st2" d="M314.4,314.8c-0.4,0-0.9-0.3-1-0.7l-21.7-55c-0.2-0.6,0.1-1.2,0.6-1.4
					c0.6-0.2,1.2,0.1,1.4,0.6l21.7,55c0.2,0.6-0.1,1.2-0.6,1.4C314.7,314.8,314.5,314.8,314.4,314.8z"/>
			</g>
			<g id="XMLID_1160_">
				<path id="XMLID_1161_" class="st2" d="M311.8,308.2c-0.3,0-0.6-0.1-0.8-0.3L270.5,265l-40.4,42.6c-0.4,0.4-1.1,0.5-1.6,0
					c-0.4-0.4-0.5-1.1,0-1.6l41.2-43.5c0.2-0.2,0.5-0.3,0.8-0.3h0c0.3,0,0.6,0.1,0.8,0.3l41.3,43.7c0.4,0.4,0.4,1.1,0,1.6
					C312.3,308.1,312.1,308.2,311.8,308.2z"/>
			</g>
			<g id="XMLID_1157_">
				<path id="XMLID_1159_" class="st2" d="M226.7,314.8c-0.1,0-0.3,0-0.4-0.1c-0.6-0.2-0.8-0.9-0.6-1.4l21.7-55
					c0.2-0.6,0.9-0.8,1.4-0.6c0.6,0.2,0.8,0.9,0.6,1.4l-21.7,55C227.5,314.6,227.1,314.8,226.7,314.8z"/>
			</g>
			<g id="XMLID_1155_">
				<path id="XMLID_1156_" class="st3" d="M226.1,244.3c-0.8-4.4,2.8-7.9,9.7-12.5c6.8-4.6,15.5-9.2,19.8-11.1
					c5.7-2.6,11.5-2.4,18.8,1.4c10.1,5.2,40.7,23.7,40.7,23.7s-45.6,25.8-54.4,24.6c-8.8-1.2-30.7-15.4-32.5-20.5
					C226.4,244.9,226.1,244.3,226.1,244.3z"/>
			</g>
			<g id="XMLID_1152_">
				<path id="XMLID_1154_" class="st3" d="M265,265c-6.6,5.9-13.4,0.8-24.2-6.2c-12.3-8-14.7-14.5-14.7-14.5s0,4.9,0.9,7.2
					c0.9,2.3,2.9,4.9,11.7,11c8.8,6.1,15.2,9.1,21.2,10.3l4.7-0.6"/>
			</g>
			<path id="XMLID_1151_" class="st4" d="M240.8,258.8c-12.3-8-14.7-14.5-14.7-14.5s0,4.9,0.9,7.2c0.9,2.3,2.9,4.9,11.7,11
				c8.8,6.1,15.2,9.1,21.2,10.3l4.7-0.6l0.4-7.1C258.5,270.9,251.6,265.8,240.8,258.8z"/>
			<g id="XMLID_1149_">
				<path id="XMLID_1150_" class="st18" d="M312.9,306.5l2.9,7.6c0,0.1,0,0.1,0,0.2c0,0,0,0.1,0,0.1c0,0.2-0.2,0.4-0.4,0.5
					c-0.5,0.3-1.3,0.3-1.7,0c-0.2-0.1-0.3-0.2-0.3-0.4c0,0,0,0,0,0l0-0.1l-2.7-7.1L312.9,306.5z"/>
			</g>
			<g id="XMLID_1147_">
				<path id="XMLID_1148_" class="st18" d="M228.2,306.5l-2.9,7.6c0,0.1,0,0.1,0,0.2c0,0,0,0.1,0,0.1c0,0.2,0.2,0.4,0.4,0.5
					c0.5,0.3,1.3,0.3,1.7,0c0.2-0.1,0.3-0.2,0.3-0.4c0,0,0,0,0,0l0-0.1l2.7-7.1L228.2,306.5z"/>
			</g>
			<g id="XMLID_1145_">
				<path id="XMLID_1146_" class="st18" d="M271.8,334v6.3c0,0.2-0.1,0.4-0.4,0.5c-0.5,0.3-1.3,0.3-1.8,0c-0.2-0.1-0.4-0.3-0.4-0.5
					V334C270.1,333.6,271,333.6,271.8,334z"/>
			</g>
		</g>
		<g id="XMLID_1137_">
			<g id="XMLID_1142_">
				<path id="XMLID_1143_" class="st12" d="M300.7,226.7c0,0-36.6-11-43-12.8c-6.4-1.7-18.6-4.7-22.1-3.1c-3.6,1.6-5.4,3.5-5.7,8.6
					c-0.1,1,0,5.7,0,5.7s18.5,7.5,33,7.5C277.4,232.6,300.7,226.7,300.7,226.7z"/>
			</g>
			<g id="XMLID_1139_">
				<path id="XMLID_1141_" class="st2" d="M300.9,222.1c2.3,7.8,3,15.5-2.5,21.2c-4,4.1-20.5,18.8-35.1,14.3
					c-16.2-5-35.6-19-35.6-19s-12.5,0.4-12.6-3.3c0-0.9-4-2-3.9-3c0.5-10.8,7.8-15.3,18.6-13.3c11.3,2.1,36.7,9.3,36.7,9.3
					L300.9,222.1z"/>
			</g>
			<path id="XMLID_1138_" class="st30" d="M282.7,254.7c2.7-10,6-22.6,6-22.6l-15,4.7c-3.1,9.8-4.7,15.1-12.4,13.8
				c-7.7-1.3-33.6-12.1-33.6-12.1s19.4,14.1,35.6,19C269.8,259.6,276.7,257.7,282.7,254.7z"/>
		</g>
		<g id="Character_12_">
			<path id="XMLID_1134_" class="st2" d="M294.6,161.8c7.2-1.9,13,0.8,14.4,7.5c1.1,5.3,0.1,15.1-1.1,23.8c0,0-4.2,1.6-12.8-1.6
				L294.6,161.8z"/>
			<g id="XMLID_1115_">
				<g id="XMLID_1131_">
					<g id="XMLID_1132_">
						<polygon id="XMLID_1133_" class="st9" points="276.9,158.3 279.3,173.2 292.7,172.5 291.1,155.1 						"/>
					</g>
				</g>
				<g id="XMLID_1128_">
					<g id="XMLID_1129_">
						<path id="XMLID_1130_" class="st3" d="M306.2,167.3c-4.4-7.1-14.5-5.2-14.5-5.2l0.2,1.7c-0.6,2.5-7.2,3.4-13.8,1.8L278,165
							c0,0-7.9,2.4-10.8,4.1c-4.3,2.5-6.2,8.3-3.4,25.2c2.1,12.5,0.9,30.1-2.8,38.1c6.7,8.5,23,7.4,29.8,6
							c14.2-2.8,16.4-10.4,16.4-10.4s3-25.8,2.8-37C309.9,181.5,309,171.7,306.2,167.3z"/>
					</g>
				</g>
				<g id="XMLID_1208_" class="st31">
					<g id="XMLID_1209_">
						<path id="XMLID_1210_" class="st5" d="M306.2,167.3c-4.4-7.1-14.5-5.2-14.5-5.2l0.2,1.7c-0.6,2.5-7.2,3.4-13.8,1.8L278,165
							c0,0-7.9,2.4-10.8,4.1c-4.3,2.5-6.2,8.3-3.4,25.2c2.1,12.5,0.9,30.1-2.8,38.1c6.7,8.5,23,7.4,29.8,6
							c14.2-2.8,16.4-10.4,16.4-10.4s3-25.8,2.8-37C309.9,181.5,309,171.7,306.2,167.3z"/>
					</g>
				</g>
				<path class="st32" d="M283.2,205.9c-3.6,10.7-4.4,14.8-10.1,32.8c6.6,1.2,13.8,0.5,17.7-0.3c14.2-2.8,16.4-10.4,16.4-10.4
					s3-25.8,2.8-37c0-2.1-0.1-4.1-0.2-6.1C296.8,187.7,286.5,196.1,283.2,205.9z"/>
				<g id="XMLID_1123_">
					<g id="XMLID_1126_">
						<path id="XMLID_1127_" class="st10" d="M267,140c0,0-3.5,5.3-3.1,5.9c0.4,0.5,3,1,3,1L267,140z"/>
					</g>
					<g id="XMLID_1124_">
						<path id="XMLID_1125_" class="st9" d="M276.7,125.2c-7.1,1.5-9.2,4.6-9.9,16c-0.7,11.8,0.5,15.5,2.1,17.1
							c1,1.1,6.9,1.3,9.8,0.5c3.7-1,12-4,15.9-9.9c4.6-7,5.8-16.5,0.9-20.4C288.6,123,279.6,124.6,276.7,125.2z"/>
					</g>
					<path class="st10" d="M268.9,158.3c0.9,0.9,5,1.2,8.1,0.8l-0.1-1.5c0,0-3.4,0.7-5.1,0.9C270.7,158.6,269.4,158.5,268.9,158.3
						C268.9,158.3,268.9,158.3,268.9,158.3z"/>
				</g>
				<g id="XMLID_1116_">
					<g id="XMLID_1120_">
						<g id="XMLID_1121_">
							<path id="XMLID_1122_" class="st18" d="M265.3,130.1C265.3,130.1,265.3,130.1,265.3,130.1c2.1,1.3,4.5,1.9,6.9,2.2
								c-0.1,1.9,0.5,3.8,1.1,5.6c0.4,1.3,2,5.2,3.6,3c1.1-1.6,2.2-3.1,4.4-2.7c3.7,0.6,4.2,5.3,1.9,8.2c-2.3,2.9-4.5,1.8-4.5,1.8
								s0.1,6.2,2.9,9.8c0,0,3.2,1,8.9-0.2c3.6-0.8,8.6-5.2,10.7-9.9c4.5-10,4.8-18.9-1.6-21.6c-0.7-4.6-4.3-6.7-8.4-7.6
								c-5.7-1.3-11.5,2.4-17.1,0.2c-1.2-0.5-2.3-1.1-3.4-1.6c-0.7-0.2-1.5-0.3-2,0.1c-0.5,0.3-0.7,1-0.8,1.6
								c-0.2,1.1-0.3,2.3,0.3,3.3c-0.8-0.4-1.7-0.8-2.6-0.9c-0.9-0.1-1.9,0-2.6,0.6c-0.6,0.6-0.9,1.4-1,2.3
								C261.8,126.5,263.3,128.7,265.3,130.1z"/>
						</g>
					</g>
				</g>
			</g>
			<g>
				<g id="XMLID_1135_">
					<g id="Pencil_2_">
						<g id="XMLID_1195_">
							<g id="XMLID_1196_">
								<path id="XMLID_1207_" class="st9" d="M183.8,162.8l-5.8,2.8c-0.2,0.1-0.1,0.3,0,0.4l6.3,1.3L183.8,162.8z"/>
								<path id="XMLID_1206_" class="st10" d="M178,166C178,166,178.1,166,178,166l6.4,1.3l-0.3-2.4l-0.8,0.1l-5.2,0.8L178,166z"/>
								<path id="XMLID_1205_" class="st19" d="M178.1,166c-0.2,0-0.2-0.3,0-0.4l1.1-0.6l0,0c-0.1,0.4-0.1,0.8,0.2,1.1l0.1,0.1
									L178.1,166z"/>
								<path id="XMLID_1204_" class="st3" d="M211.3,163.7l-0.6,0.1l-0.7,0.1l-25.6,3.4c-0.6-0.4-1-1.1-1.1-1.8
									c-0.3-1.1,0-2.2,0.5-2.7l25.5-3.4l1.4-0.2C209.8,159.4,210.4,163.9,211.3,163.7z"/>
								<path id="XMLID_1203_" class="st6" d="M211.3,163.7l-0.6,0.1l-0.7,0.1l-25.6,3.4c-0.7-0.6-1.1-1.3-1.2-2.2l27-3.7
									c0-0.1,0-0.1,0.1-0.1C210.4,162.5,210.8,163.8,211.3,163.7z"/>
								<path id="XMLID_1202_" class="st26" d="M209,164l-1.3,0.2c-0.4,0.1-0.7-0.7-0.9-1.6c-0.3-1.2-0.1-2.7,0.4-2.8l1-0.1l0.3,0
									c-0.5,0.1-0.7,1.6-0.4,2.8C208.3,163.3,208.6,164,209,164L209,164C209,164,209,164,209,164z"/>
								<path id="XMLID_1201_" class="st12" d="M208.7,164.1c-0.9,0.1-1.5-4.3-0.6-4.5l1.3-0.2c-0.9,0.1-0.3,4.6,0.6,4.5
									L208.7,164.1z"/>
								<path id="XMLID_1200_" class="st26" d="M211.3,163.7l-1.3,0.2c-0.9,0.2-1.4-4.2-0.6-4.5c0,0,0,0,0,0l1.3-0.2
									C209.8,159.4,210.4,163.9,211.3,163.7z"/>
								<path id="XMLID_1199_" class="st9" d="M177.9,165.9c0,0.1,0.1,0.1,0.1,0.1C178,166,177.9,165.9,177.9,165.9z"/>
								<path id="XMLID_1197_" class="st10" d="M214,163.4l-2.7,0.3c-0.4,0.1-0.7-0.7-0.9-1.6c-0.3-1.2-0.1-2.7,0.4-2.8c0,0,0,0,0,0
									l2.7-0.3c1.1-0.1,1.7,2.1,1.4,3.5C214.7,162.9,214.4,163.3,214,163.4z"/>
							</g>
						</g>
						<path id="XMLID_1136_" class="st17" d="M212.8,162.4c-0.4-1-0.4-2.4,0.1-3.1c0.2-0.2,0.4-0.4,0.6-0.4c1,0.1,1.5,2.1,1.2,3.5
							c-0.1,0.5-0.4,0.9-0.8,1C213.6,163.4,213.1,163.1,212.8,162.4z"/>
					</g>
				</g>
				<g id="Arm_2_">
					<path class="st9" d="M205.7,164.5c0.2,0.2,0.4,0.5,0.6,0.7c0.9,1,1.3,2.1,1.6,3.4c0.6,3.2-0.2,2.9,3.1,4.8
						c3.3,1.8,18.2,10.5,18.2,10.5c3.3-1.5,15.6-7.6,20.3-10c8.6-4.3,12.6-7.1,21.1-6.2c2.4,4.9-0.4,14.5-7.4,19.5
						c-6.3,4.4-22.7,8.5-29.6,10.6c-0.7,0.2-1.4,0.4-2,0.6c0,0-0.1,0-0.1,0c-4.1,1-5.3,0.1-8.6-2.2c-2.5-1.8-5-3.7-7.5-5.5
						c-1.8-1.3-3.5-2.7-5.3-4c-1.7-1.3-3.5-2.4-5.1-3.7c-2.6-2-5.2-3.9-8-5.6c-4.1-2.5-8.4-5.5-9-10.7c-0.1-1.4,0-2.8,0.1-4.1
						c0.1-1.4,0.2-2.8,0.4-4.3c0-0.2,0-0.5,0.2-0.7c0.3-0.4,1-0.2,1.5,0c3.5,1.9,5.9,5.3,9.4,7.3c0.7,0.4,1.5,0.5,2,0.3L205.7,164.5
						z"/>
				</g>
				<path class="st2" d="M271.4,167.2c-4.1-0.6-6.9-1.5-13.8,1.9c-6.9,3.4-18.9,9.7-18.9,9.7s-1.4,10.7,5.8,17.3
					c0,0,17.6-6.4,21.9-9.1C270.6,184.4,274.3,174.9,271.4,167.2z"/>
			</g>
		</g>
		<g id="XMLID_659_">
			<path id="XMLID_1112_" class="st3" d="M264.7,272.1c3.7-0.2,6.7-2.9,15.5-6.6c16.4-6.8,28.7-12.3,33.3-20.9
				c4.7-8.6,8-33.3,6.8-44.1c-0.2-1.4-0.4-2.6-0.8-3.6l1.2-0.2l-3-2.5l0,0c-3.1-2.5-8-0.3-11.8,1.8c-10.7,5.8-19.1,11.5-25.7,32
				c-5,15.4-8.3,29.5-15.2,37"/>
			<path id="XMLID_1111_" class="st16" d="M319.6,197l1.2-0.2l-3-2.5l0,0c-3.1-2.5-8-0.3-11.8,1.8c-10.7,5.8-19.1,11.5-25.7,32
				c-5,15.4-8.3,29.5-15.2,37l-0.4,7.1c3.7-0.2,6.7-2.9,15.5-6.6c16.4-6.8,28.7-12.3,33.3-20.9c4.7-8.6,8-33.3,6.8-44.1
				C320.2,199.1,319.9,197.9,319.6,197z"/>
			<g id="XMLID_1109_">
				<path id="XMLID_1110_" class="st3" d="M309,198.7c-10.7,5.8-19.1,11.5-25.7,32c-6.6,20.5-10.3,38.6-23.3,42.1
					c0,0,5.9,2.3,24-5.3c5.8-2.4,12.8-6.9,17.3-9.5c9-5,14.5-9.2,15.3-10.7c4.8-8.5,8-33.3,6.8-44.1
					C322.3,192.4,314.4,195.7,309,198.7z"/>
			</g>
		</g>
	</g>
	<g id="User">
		<g>
			<g id="Bubble">
				<g id="Facebook_1_">
					<g id="XMLID_1017_">
						<g id="XMLID_1018_">
							<g id="XMLID_1023_">
								<path id="XMLID_1034_" class="st3" d="M315.3,119.7c-0.3-0.1-0.6-0.1-1,0.1c-0.8,0.4-1.4,1.5-1.4,2.4c0,0.5,0.2,0.8,0.4,0.9
									c0.1,0,2,1.2,2,1.2c0.3,0.1,0.6,0.1,1-0.1c0.8-0.4,1.4-1.5,1.4-2.4c0-0.4-0.2-0.8-0.4-0.9"/>
								<path id="XMLID_1030_" class="st3" d="M316.3,121.1c-0.8,0.4-1.4,1.5-1.4,2.4c0,0.9,0.6,1.3,1.4,0.8
									c0.8-0.4,1.4-1.5,1.4-2.4C317.7,121,317.1,120.6,316.3,121.1z"/>
								<path id="XMLID_1028_" class="st17" d="M315.3,119.7l2,1.2c-0.3-0.1-0.6-0.1-1,0.1c-0.5,0.3-1,0.9-1.2,1.5l-2-1.2
									c0.2-0.6,0.7-1.2,1.2-1.5C314.6,119.6,315,119.6,315.3,119.7z"/>
								<path id="XMLID_1026_" class="st14" d="M315.3,124.4c-0.1-0.1-1.9-1.2-2-1.2c-0.3-0.1-0.4-0.5-0.4-0.9l2,1.2
									C314.9,123.9,315,124.2,315.3,124.4z"/>
								<path id="XMLID_1024_" class="st17" d="M313.1,121.3l2,1.2c-0.1,0.3-0.2,0.7-0.2,1v0l-2-1.2
									C312.8,122,312.9,121.6,313.1,121.3z"/>
							</g>
						</g>
					</g>
				</g>
				<g id="Facebook_4_">
					<g id="XMLID_681_">
						<g id="XMLID_1097_">
							<g id="XMLID_1098_">
								<path id="XMLID_1106_" class="st3" d="M308.9,125.7c-0.2-0.1-0.5-0.1-0.9,0.1c-0.7,0.4-1.2,1.3-1.2,2.1
									c0,0.4,0.1,0.7,0.4,0.8c0.1,0,1.7,1,1.7,1c0.2,0.1,0.5,0.1,0.9-0.1c0.7-0.4,1.2-1.3,1.2-2.1c0-0.4-0.1-0.7-0.4-0.8"/>
								<path id="XMLID_1105_" class="st3" d="M309.7,126.8c-0.7,0.4-1.2,1.3-1.2,2.1c0,0.8,0.5,1.1,1.2,0.7s1.2-1.3,1.2-2.1
									C310.9,126.8,310.4,126.5,309.7,126.8z"/>
								<path id="XMLID_1103_" class="st17" d="M308.9,125.7l1.7,1c-0.2-0.1-0.5-0.1-0.9,0.1c-0.4,0.3-0.8,0.7-1,1.3l-1.7-1
									c0.2-0.5,0.6-1,1-1.3C308.3,125.6,308.6,125.6,308.9,125.7z"/>
								<path id="XMLID_1101_" class="st14" d="M308.9,129.7c-0.1,0-1.7-1-1.7-1c-0.2-0.1-0.4-0.4-0.4-0.8l1.7,1
									C308.5,129.3,308.7,129.6,308.9,129.7z"/>
								<path id="XMLID_1099_" class="st17" d="M307,127.1l1.7,1c-0.1,0.3-0.2,0.6-0.2,0.8v0l-1.7-1
									C306.8,127.6,306.9,127.3,307,127.1z"/>
							</g>
						</g>
					</g>
				</g>
				<g id="Facebook_2_">
					<g id="XMLID_965_">
						<g id="XMLID_968_">
							<g id="XMLID_970_">
								<path id="XMLID_1014_" class="st3" d="M321.2,110.7c-0.4-0.2-1-0.2-1.6,0.2c-1.2,0.7-2.2,2.4-2.2,3.9c0,0.7,0.3,1.2,0.7,1.4
									c0.1,0.1,2.1,1.3,2.2,1.3c0.4,0.2,1,0.2,1.6-0.2c1.2-0.7,2.2-2.4,2.2-3.9c0-0.7-0.2-1.2-0.7-1.4"/>
								<path id="XMLID_1011_" class="st3" d="M321.9,112.2c-1.2,0.7-2.2,2.4-2.2,3.9c0,1.4,1,2,2.2,1.3c1.2-0.7,2.2-2.4,2.2-3.9
									C324.1,112.1,323.1,111.5,321.9,112.2z"/>
								<path id="XMLID_1009_" class="st17" d="M321.2,110.7l2.2,1.3c-0.4-0.2-1-0.2-1.6,0.2c-0.8,0.5-1.5,1.4-1.9,2.3l-2.2-1.3
									c0.4-1,1.1-1.9,1.9-2.3C320.3,110.5,320.8,110.5,321.2,110.7z"/>
								<path id="XMLID_1004_" class="st14" d="M320.3,117.5c-0.1-0.1-2.1-1.2-2.2-1.3c-0.4-0.2-0.7-0.7-0.7-1.4l2.2,1.3
									C319.7,116.8,319.9,117.3,320.3,117.5z"/>
								<path id="XMLID_1002_" class="st17" d="M317.8,113.2l2.2,1.3c-0.2,0.5-0.3,1-0.3,1.5v0l-2.2-1.3
									C317.4,114.3,317.5,113.7,317.8,113.2z"/>
							</g>
						</g>
					</g>
				</g>
				<g id="Facebook_3_">
					<g id="XMLID_685_">
						<g id="XMLID_690_">
							<g id="XMLID_691_">
								<path id="XMLID_964_" class="st3" d="M325.2,98.4c-0.6-0.3-1.3-0.3-2.2,0.2c-1.7,1-3.1,3.3-3.1,5.3c0,1,0.3,1.7,0.9,2
									c0.1,0.1,2.1,1.2,2.2,1.3c0.6,0.3,1.3,0.3,2.2-0.2c1.7-1,3.1-3.3,3.1-5.3c0-1-0.3-1.7-0.9-2"/>
								<path id="XMLID_930_" class="st3" d="M325.3,99.9c-1.7,1-3.1,3.3-3.1,5.3c0,2,1.4,2.7,3.1,1.8c1.7-1,3.1-3.3,3.1-5.3
									C328.3,99.7,327,98.9,325.3,99.9z"/>
								<path id="XMLID_718_" class="st17" d="M325.2,98.4l2.2,1.3c-0.6-0.3-1.3-0.3-2.2,0.2c-1.1,0.6-2.1,1.9-2.6,3.2l-2.2-1.3
									c0.5-1.3,1.5-2.6,2.6-3.2C323.9,98.1,324.6,98.1,325.2,98.4z"/>
								<path id="XMLID_713_" class="st14" d="M323.1,107.2c-0.2-0.1-2.1-1.2-2.2-1.3c-0.6-0.3-0.9-1-0.9-2l2.2,1.3
									C322.2,106.2,322.5,106.8,323.1,107.2z"/>
								<path id="XMLID_692_" class="st17" d="M320.4,101.8l2.2,1.3c-0.3,0.7-0.4,1.4-0.4,2.1v0l-2.2-1.3
									C320,103.2,320.1,102.5,320.4,101.8z"/>
							</g>
						</g>
					</g>
				</g>
			</g>
			<g>
				<path class="st3" d="M333.3,34.9c-4.8-3-11.5-2.7-18.9,1.6c-14.5,8.4-26.3,28.8-26.3,45.6c0,8.2,2.9,14.1,7.5,16.9
					c0.6,0.3,2.6,1.5,3,1.7c4.8,2.8,11.4,2.5,18.7-1.7c14.5-8.4,26.3-28.8,26.3-45.6c0-8.4-3-14.3-7.7-17
					C335.4,36.1,333.7,35.2,333.3,34.9z"/>
				<path class="st17" d="M333.3,34.9c-4.8-3-11.5-2.7-18.9,1.6c-14.5,8.4-26.3,28.8-26.3,45.6c0,8.2,2.9,14.1,7.5,16.9
					c0.6,0.3,2.6,1.5,3,1.7c4.8,2.8,11.4,2.5,18.7-1.7c14.5-8.4,26.3-28.8,26.3-45.6c0-8.4-3-14.3-7.7-17
					C335.4,36.1,333.7,35.2,333.3,34.9z"/>
				<path class="st3" d="M334.4,81.8l-40-23.1c-3.9,7.6-6.3,15.9-6.3,23.4c0,8.2,2.9,14.1,7.5,16.9c0.6,0.3,2.6,1.5,3,1.7
					c4.8,2.8,11.4,2.5,18.7-1.7C323.8,95.2,329.8,89,334.4,81.8z"/>
				<path class="st17" d="M334.4,81.8l-40-23.1c-3.9,7.6-6.3,15.9-6.3,23.4c0,8.2,2.9,14.1,7.5,16.9c0.6,0.3,2.6,1.5,3,1.7
					c4.8,2.8,11.4,2.5,18.7-1.7C323.8,95.2,329.8,89,334.4,81.8z"/>
				<path class="st14" d="M288.6,75.7c-0.4,2.2-0.5,4.3-0.5,6.5c0,8.2,2.9,14.1,7.5,16.9c0.6,0.3,2.6,1.5,3,1.7
					c4.8,2.8,11.4,2.5,18.7-1.7c1.8-1.1,3.6-2.3,5.3-3.7L288.6,75.7z"/>
				<path id="XMLID_563_" class="st3" d="M317.3,38.2C302.8,46.6,291,67,291,83.8c0,16.8,11.8,23.6,26.3,15.2
					c14.5-8.4,26.3-28.8,26.3-45.6C343.6,36.7,331.8,29.9,317.3,38.2z"/>
				<g id="XMLID_265_">
					<g id="XMLID_561_">
						<path id="XMLID_562_" class="st18" d="M328.3,78.2c-4.9-0.2-17.9-1.9-17.9-1.9l0,0c-7.9-5.1-12.4-14.2-11.7-23.6l0.3-4.1
							c0.5-7.7,6.3-14.2,13.9-15.2c9.9-1.4,18,6.6,17.3,16c-0.1,2,0.1,3.8,1.5,5.4c0.7,0.8,1.7,1.4,2.6,2.1c1.3,0.9,2.6,1.9,3.4,3.3
							c0.9,1.3,1.4,3,1,4.5c-0.3,1-0.8,1.9-1.6,2.6c-0.1,0.1-0.3,0.2-0.3,0.4c0,0.1,0.1,0.2,0.1,0.3c1.2,2.1,1.5,4.9,0.3,6.9
							c-0.8,1.3-2.1,2.2-3.6,2.7c-1.4,0.5-3,0.6-4.5,0.6C328.8,78.2,328.5,78.2,328.3,78.2z"/>
					</g>
					<path class="st23" d="M305.3,78.3c-0.6,3.5-2.4,5.7-3.9,6.9c-1.2,0.9-2.2,1.3-2.4,1.3c0,0,0,0,0,0L295.3,98
						c-2.7-3.2-4.3-8-4.3-14.2c0-2.4,0.2-4.9,0.7-7.4v0c1.9-4.7,4.3-6.7,9.6-7.2c0,0,0,0,0,0C301.6,69.4,306.2,72.5,305.3,78.3z"/>
					<g>
						<path class="st23" d="M331.9,75c2,4.7,4.7,12.5,6.4,17.3l7.9-9.3h6.7c0,0-8,17.1-12.8,21.1c-3.2,2.6-5.2,0.7-6-0.9l0,0
							c0-0.1-1.4-2.4-3.1-5.9c-2.3-4.6-4.7-9.6-4.7-9.6L321,67.9C325.2,67.5,329.4,69,331.9,75z"/>
						<path class="st24" d="M338.3,92.3c0,0-1.9,2.3-2.4,3.3c0,0,1-3.2,2.1-4.3L338.3,92.3z"/>
						<g id="XMLID_1261_">
							<g id="XMLID_1262_">
								<path id="XMLID_646_" class="st2" d="M354.9,70.5L354.9,70.5l-0.6-0.7l0,0c-0.1-0.1-0.4-0.2-0.7-0.1l-7.7,1.3
									c-0.7,0.1-1.5,0.8-1.8,1.4l-6.9,15c-0.2,0.3-0.1,0.6,0,0.8l0,0l0.7,0.7l0,0c0.1,0.1,0.4,0.2,0.7,0.2l7.7-1.3
									c0.7-0.1,1.5-0.8,1.8-1.4c1.4-3,5.5-12.1,6.9-15C355.1,71,355.1,70.7,354.9,70.5z"/>
								<path id="XMLID_1264_" class="st18" d="M337.8,88.1l6.9-15c0.3-0.7,1.1-1.3,1.8-1.4l7.7-1.3c0.7-0.1,1,0.3,0.7,1
									c-1.4,3-5.5,12.1-6.9,15c-0.3,0.7-1.1,1.3-1.8,1.4l-7.7,1.3C337.8,89.2,337.5,88.7,337.8,88.1z"/>
								<path id="XMLID_1263_" class="st12" d="M345.7,72c-0.4,0.3-0.8,0.7-1,1.1l-6.9,15c-0.2,0.3-0.1,0.6,0,0.8l-0.6-0.6l0,0
									c-0.2-0.2-0.2-0.5,0-0.8l6.9-15c0.2-0.4,0.5-0.7,0.9-1L345.7,72z"/>
							</g>
						</g>
						<path id="XMLID_1260_" class="st23" d="M351.3,85.3c3.2-3.7,3.1-8.2,1.6-9.5l-1,2.1c0,0-4.9,1.1-7.2,0.9
							c-2.3-0.2-4.3-0.7-4.9-0.3c-1.4,1-1.7,5,2.1,6.5C345.3,86.3,351.3,85.3,351.3,85.3z"/>
					</g>
					<path class="st19" d="M326.6,88l-0.2,3.9c-2.8,2.9-5.9,5.3-9.1,7.2c-3.4,2-6.7,3.1-9.7,3.5c-2.6,0.3-5,0-7.2-0.8l0.5-1.7
						L299,86.5c0,0,0,0,0,0c0.1-0.1,0.4-0.3,0.8-0.9c0.1-0.2,0.2-0.3,0.3-0.5c0.1-0.2,0.3-0.4,0.4-0.7c0.1-0.2,0.2-0.3,0.3-0.5
						c0.1-0.2,0.2-0.4,0.3-0.6c0-0.1,0.1-0.2,0.1-0.3c0.1-0.2,0.2-0.5,0.3-0.7c0-0.1,0.1-0.1,0.1-0.2v0c0.4-1,0.7-2.3,0.9-3.8
						c0.7-5.3-0.6-8.5-1-9.1c0,0,0,0,0,0c0.2-0.1,5.1-0.3,5.1-0.3l9.9-1.2l4.7,0.2c0,0,5.3,2.8,7.9,9.5
						C331.5,83.6,326.6,88,326.6,88z"/>
					<path class="st17" d="M307.6,102.5c-2.6,0.3-5,0-7.2-0.8l0.5-1.7L299,86.5c0,0,0,0,0,0c0.1-0.1,0.4-0.3,0.8-0.9
						c0.1-0.2,0.2-0.3,0.3-0.5c0.1-0.2,0.3-0.4,0.4-0.7c0.1-0.2,0.2-0.3,0.3-0.5c0.1-0.2,0.2-0.4,0.3-0.6c0-0.1,0.1-0.2,0.1-0.3
						c0.1-0.2,0.2-0.5,0.3-0.7c0-0.1,0.1-0.1,0.1-0.2c0,0.7-0.1,1.8-0.1,3.1c0,1.3,0,2.8,0.2,4.1c0.4,3.5,4.2,11.2,5.7,12.4
						C307.5,101.9,307.6,102.2,307.6,102.5z"/>
					<g id="XMLID_348_">
						<g id="XMLID_361_">
							<g id="XMLID_558_">
								<path id="XMLID_559_" class="st23" d="M324.4,41.1c1.1,1,2.6,3.6,2.8,12.7c0.2,7.6-2.2,9.6-3.5,10.2
									c-1.2,0.6-3.6,0.4-5.9,0.1v4.6c0,0,5.9,5.8,1.9,6.5c-2.7,0.5-5.3-0.2-7.3-1.4c-3.2-1.8-5-3.9-5-3.9v-11c0,0-1.3,1.4-3.7-0.5
									c-2-1.6-2.8-4.4-1.3-6c1.4-1.6,4.2-1.3,5.4,0.8c0,0,3.7,0,8.6-3C321,47.3,324.2,44,324.4,41.1z"/>
							</g>
							<g id="XMLID_551_">
								<path id="XMLID_556_" class="st18" d="M318.8,52.3c0.1,0.5-0.3,1-0.9,1.1c-0.5,0-1-0.4-1.1-0.9c-0.1-0.5,0.3-1,0.9-1.1
									C318.2,51.4,318.7,51.8,318.8,52.3z"/>
							</g>
							<g id="XMLID_547_">
								<path id="XMLID_549_" class="st24" d="M318.6,58.4l2.6,0.7c-0.2,0.7-0.9,1.2-1.6,1C318.9,59.9,318.5,59.2,318.6,58.4z"/>
							</g>
							<g id="XMLID_535_">
								<path id="XMLID_545_" class="st18" d="M326,49l-2.2-0.8c0.2-0.6,0.9-1,1.5-0.7C325.8,47.7,326.2,48.4,326,49z"/>
							</g>
							<g id="XMLID_533_">
								<path id="XMLID_534_" class="st18" d="M325.9,52c0.1,0.5-0.3,1-0.9,1.1c-0.5,0-1-0.4-1.1-0.9c-0.1-0.5,0.3-1,0.9-1.1
									C325.3,51,325.8,51.4,325.9,52z"/>
							</g>
							<g id="XMLID_531_">
								<polygon id="XMLID_532_" class="st24" points="321.5,50.9 321.7,57.2 324.7,56.1 								"/>
							</g>
							<g id="XMLID_362_">
								<path id="XMLID_530_" class="st24" d="M317.8,64.1c-2.5-0.2-7.7-1.4-8.5-3.4c0,0,0.3,1.2,1.9,2.5c1.6,1.2,6.6,2.5,6.6,2.5
									V64.1z"/>
							</g>
						</g>
					</g>
					<path id="XMLID_287_" class="st18" d="M307.6,55.3c1.1,0,1.9-0.9,1.9-1.9c0-1.1-0.9-1.9-1.9-1.9L307.6,55.3z"/>
				</g>
			</g>
		</g>
		<path id="Music" class="st3" d="M350.3,45.2l2.5,12.2c-0.3,0-0.6,0-0.9,0c-1.5,0.3-2.4,1.5-2.2,2.8c0.3,1.3,1.6,2,3.1,1.8
			c1.5-0.3,2.4-1.5,2.2-2.8l-2-9.9l9.1-1.8l0,0l0,0l1.5,7.7c-0.3,0-0.6,0-0.9,0c-1.5,0.3-2.4,1.5-2.2,2.8c0.3,1.3,1.6,2,3.1,1.8
			c1.5-0.3,2.4-1.5,2.2-2.8l0,0l-2.9-14.3L350.3,45.2z"/>
	</g>
	<g id="Paper_Plane">
		<g id="XMLID_1220_">
			<polygon id="XMLID_1226_" class="st3" points="86.7,64.6 123.1,53.3 95.1,72.7 			"/>
			<polygon id="XMLID_1225_" class="st3" points="123.1,53.3 83.9,59.8 75.5,51.7 			"/>
			<polygon id="XMLID_1224_" class="st3" points="83.9,59.8 83.9,69.5 86.7,64.6 123.1,53.3 			"/>
			<polygon id="XMLID_1223_" class="st21" points="83.9,59.8 83.9,69.5 86.7,64.6 123.1,53.3 			"/>
			<polygon id="XMLID_1222_" class="st3" points="83.9,69.5 89.5,67.3 86.7,64.6 			"/>
			<polygon id="XMLID_1221_" class="st21" points="86.7,64.6 89.5,67.3 88.6,67.7 			"/>
		</g>
		<g id="XMLID_1219_">
			<g>
				<path class="st1" d="M77.5,68.3c-0.2,0-0.4-0.1-0.5-0.3c-0.2-0.3-0.1-0.7,0.2-0.8c0.7-0.4,1.5-0.8,2.2-1.2
					c0.3-0.1,0.7,0,0.8,0.3c0.1,0.3,0,0.7-0.3,0.8c-0.7,0.3-1.4,0.7-2.2,1.1C77.7,68.3,77.6,68.3,77.5,68.3z"/>
			</g>
			<g>
				<path class="st1" d="M70.5,123.1c-0.1,0-0.3,0-0.4-0.1c-1.4-1.1-2.6-2.2-3.8-3.5c-0.2-0.3-0.2-0.6,0.1-0.9
					c0.3-0.2,0.6-0.2,0.9,0.1c1.1,1.2,2.3,2.4,3.6,3.4c0.3,0.2,0.3,0.6,0.1,0.9C70.9,123,70.7,123.1,70.5,123.1z M64.2,116.2
					c-0.2,0-0.4-0.1-0.5-0.3c-0.9-1.4-1.7-3-2.4-4.6c-0.1-0.3,0-0.7,0.3-0.8c0.3-0.1,0.7,0,0.8,0.3c0.7,1.5,1.4,3,2.3,4.4
					c0.2,0.3,0.1,0.7-0.2,0.9C64.5,116.2,64.4,116.2,64.2,116.2z M60.5,107.8c-0.3,0-0.5-0.2-0.6-0.5c-0.4-1.6-0.8-3.3-1-5.1
					c0-0.3,0.2-0.6,0.5-0.7c0.3,0,0.6,0.2,0.7,0.5c0.2,1.7,0.5,3.3,0.9,4.9c0.1,0.3-0.1,0.7-0.4,0.8
					C60.6,107.8,60.6,107.8,60.5,107.8z M59.3,98h-0.6c0-1.7,0.1-3.4,0.3-5.1c0-0.3,0.4-0.6,0.7-0.5c0.3,0,0.6,0.4,0.5,0.7
					c-0.2,1.6-0.3,3.3-0.3,4.9L59.3,98z M60.5,89.4c-0.1,0-0.1,0-0.2,0c-0.3-0.1-0.5-0.4-0.4-0.8c0.4-1.7,1-3.3,1.7-4.9
					c0.1-0.3,0.5-0.4,0.8-0.3c0.3,0.1,0.4,0.5,0.3,0.8c-0.7,1.5-1.2,3.1-1.7,4.7C61,89.2,60.8,89.4,60.5,89.4z M64.2,80.9
					c-0.1,0-0.2,0-0.3-0.1c-0.3-0.2-0.4-0.6-0.2-0.9c0.9-1.4,1.9-2.8,3-4.2c0.2-0.3,0.6-0.3,0.9-0.1c0.3,0.2,0.3,0.6,0.1,0.9
					c-1.1,1.3-2.1,2.6-2.9,4C64.6,80.8,64.4,80.9,64.2,80.9z M70.1,73.8c-0.2,0-0.3-0.1-0.5-0.2c-0.2-0.2-0.2-0.6,0-0.9
					c1.2-1.2,2.6-2.3,4-3.3c0.3-0.2,0.7-0.1,0.9,0.1c0.2,0.3,0.1,0.7-0.1,0.9c-1.4,1-2.6,2-3.8,3.2C70.4,73.7,70.2,73.8,70.1,73.8z"
					/>
			</g>
			<g>
				<path class="st1" d="M76.2,126.5c-0.1,0-0.2,0-0.3-0.1c-0.8-0.3-1.5-0.7-2.3-1.1c-0.3-0.2-0.4-0.5-0.2-0.8
					c0.2-0.3,0.5-0.4,0.8-0.2c0.7,0.4,1.4,0.8,2.2,1.1c0.3,0.1,0.5,0.5,0.3,0.8C76.7,126.4,76.5,126.5,76.2,126.5z"/>
			</g>
		</g>
	</g>
</g>
</svg>
